<?xml version="1.0" encoding="UTF-8"?>
<svg width="37px" height="41px" viewBox="0 0 37 41" version="1.1" xmlns="http://www.w3.org/2000/svg" xmlns:xlink="http://www.w3.org/1999/xlink">
    <!-- Generator: Sketch 59.1 (86144) - https://sketch.com -->
    <title>ic_audio</title>
    <desc>Created with Sketch.</desc>
    <g id="页面1" stroke="none" stroke-width="1" fill="none" fill-rule="evenodd">
        <g id="知識庫圖標改版" transform="translate(-113.000000, -627.000000)" fill="#0072EF" fill-rule="nonzero">
            <g id="ic_audio" transform="translate(113.000000, 626.000000)">
                <path d="M37.0001592,4 L37.0001592,31.68 C36.8543693,34.5759273 34.3966618,36.8102069 31.5,36.68 C28.6033382,36.8102069 26.1456307,34.5759273 26,31.68 C26.1456307,28.7840727 28.6033382,26.5497931 31.5,26.68 C32.3635066,26.6784948 33.2168537,26.8662311 34,27.23 L34,11.69 L11,15.94 L11,36.68 C10.8543693,39.5759273 8.39666177,41.8102069 5.5,41.68 C2.60333823,41.8102069 0.145630712,39.5759273 0,36.68 C0.145630712,33.7840727 2.60333823,31.5497931 5.5,31.68 C6.3635066,31.6784948 7.2168537,31.8662311 8,32.23 L8,8.23 C7.99959174,6.78493698 9.02942957,5.54492817 10.45,5.28 L33.45,1.02 C34.332157,0.855433604 35.2416605,1.09441294 35.9289761,1.67137077 C36.6162916,2.24832861 37.0092362,3.10267191 37.0001592,4 Z" id="Path"></path>
            </g>
        </g>
    </g>
</svg>