<?xml version="1.0" encoding="UTF-8"?>
<svg width="46px" height="30px" viewBox="0 0 46 30" version="1.1" xmlns="http://www.w3.org/2000/svg" xmlns:xlink="http://www.w3.org/1999/xlink">
    <!-- Generator: Sketch 59.1 (86144) - https://sketch.com -->
    <title>ic_font</title>
    <desc>Created with Sketch.</desc>
    <g id="页面1" stroke="none" stroke-width="1" fill="none" fill-rule="evenodd">
        <g id="知識庫圖標改版" transform="translate(-181.000000, -629.000000)" fill="#0072EF" fill-rule="nonzero">
            <g id="ic_font" transform="translate(181.000000, 628.000000)">
                <path d="M22.5,29.8 C21.8258163,30.1233321 21.0400307,30.1168647 20.3712602,29.7824795 C19.7024898,29.4480943 19.2258446,28.8233463 19.08,28.09 L16.8,20.76 L7.15,20.76 L4.72,28.28 C4.58733904,28.9222085 4.17263074,29.4705811 3.590823,29.7731212 C3.00901526,30.0756612 2.32192561,30.1002235 1.72,29.84 C1.07973278,29.7079596 0.536193004,29.2879104 0.246962312,28.7016319 C-0.04226838,28.1153535 -0.0448374206,27.4284254 0.24,26.84 L8,4 C8.47249523,2.16063217 10.1731906,0.907048328 12.07,1 C13.9921272,0.903944008 15.7258335,2.14823077 16.25,4 C18.6,10.54 21.57,19 24,26.45 C24.51,28.17 24.06,29.34 22.5,29.8 Z M15.74,17.26 L12.24,6.05 L11.94,6.05 L8.29,17.26 L15.74,17.26 Z" id="Shape"></path>
                <path d="M45.3,16.58 L45.3,27.58 C45.3,29.15 44.58,30 43,30 C42.3307239,30.074512 41.6645785,29.8355331 41.1952977,29.352565 C40.726017,28.8695969 40.5062828,28.1968581 40.6,27.53 L40.6,26.53 C39.24,28.85 36.73,30.03 33.73,30.03 C29.73,30.03 27.31,27.71 27.31,24.03 C27.31,19.59 31.45,16.74 37.79,16.66 C38.629992,16.6222843 39.4715957,16.6759324 40.3,16.82 L40.3,16.44 C40.3,13.97 39.05,12.6 36.69,12.56 C34.697671,12.611388 32.8183769,13.4966153 31.51,15 C30.8331061,15.8091321 29.6337142,15.9290713 28.81,15.27 C28.4183485,14.951226 28.1758293,14.4847817 28.1398508,13.9810821 C28.1038722,13.4773825 28.2776326,12.9812039 28.62,12.61 C30.6950644,10.3015812 33.6881889,9.0339911 36.79,9.15 C39.9,9.15 42.11,9.91 43.59,11.43 C44.8165113,12.854181 45.4310713,14.7050489 45.3,16.58 L45.3,16.58 Z M40.3,20 C39.4808998,19.8974357 38.655185,19.85732 37.83,19.88 C33.69,20.04 32.17,21.82 32.21,23.68 C32.132559,24.4334449 32.4050852,25.1807677 32.9493647,25.7074898 C33.4936442,26.2342119 34.2494983,26.4820959 35,26.38 C37.2877297,26.2672161 39.3367464,24.9292387 40.36,22.88 L40.3,20 Z" id="Shape"></path>
            </g>
        </g>
    </g>
</svg>