<?xml version="1.0" encoding="UTF-8"?>
<svg width="38px" height="50px" viewBox="0 0 38 50" version="1.1" xmlns="http://www.w3.org/2000/svg" xmlns:xlink="http://www.w3.org/1999/xlink">
    <!-- Generator: Sketch 57.1 (83088) - https://sketch.com -->
    <title>ic_star</title>
    <desc>Created with Sketch.</desc>
    <g id="中文版" stroke="none" stroke-width="1" fill="none" fill-rule="evenodd">
        <g id="ic_star" transform="translate(0.000000, -1.000000)" fill-rule="nonzero">
            <polygon id="Path" fill="#285DB3" points="25.66 28.83 25.66 51 18.66 44 11.66 51 11.66 28.83"></polygon>
            <path d="M20.79,1.61 L23.26,3.14 C23.8120319,3.48605285 24.4402386,3.69202227 25.09,3.74 L28,4 C29.5313496,4.10430643 30.8679616,5.07568144 31.44,6.5 L32.54,9.2 C32.790256,9.78377252 33.1779348,10.2983904 33.67,10.7 L35.9,12.58 C37.0595862,13.5572218 37.5668578,15.1061428 37.21,16.58 L36.51,19.41 C36.359815,20.0445682 36.359815,20.7054318 36.51,21.34 L37.21,24.17 C37.5668578,25.6438572 37.0595862,27.1927782 35.9,28.17 L33.67,30.05 C33.1688207,30.4673364 32.7803038,31.003696 32.54,31.61 L31.44,34.31 C30.8893014,35.7616997 29.5482719,36.7635735 28,36.88 L25.09,37.1 C24.4411024,37.1449504 23.8129558,37.3474676 23.26,37.69 L20.79,39.23 C19.4905072,40.0448528 17.8394928,40.0448528 16.54,39.23 L14.06,37.69 C13.5070442,37.3474676 12.8788976,37.1449504 12.23,37.1 L9.32,36.88 C7.79474483,36.773751 6.46348296,35.8073248 5.89,34.39 L4.79,31.69 C4.54256505,31.0876403 4.15520856,30.5528827 3.66,30.13 L1.43,28.25 C0.27041381,27.2727782 -0.236857839,25.7238572 0.12,24.25 L0.81,21.42 C0.970004363,20.7866154 0.970004363,20.1233846 0.81,19.49 L0.12,16.62 C-0.236857839,15.1461428 0.27041381,13.5972218 1.43,12.62 L3.66,10.7 C4.15281606,10.2789213 4.5398709,9.74800535 4.79,9.15 L5.89,6.45 C6.47538378,5.04830004 7.80421341,4.09913602 9.32,4 L12.23,3.79 C12.8797614,3.74202227 13.5079681,3.53605285 14.06,3.19 L16.54,1.61 C17.8394928,0.795147237 19.4905072,0.795147237 20.79,1.61 Z" id="Path" fill="#0072EF"></path>
            <circle id="Oval" fill="#DEEFFF" cx="18.69" cy="20.45" r="12.07"></circle>
            <polygon id="Path" fill="#0072EF" points="18.66 11 21.49 16.75 27.82 17.67 23.24 22.15 24.32 28.47 18.66 25.49 13.01 28.47 14.09 22.15 9.51 17.67 15.84 16.75"></polygon>
        </g>
    </g>
</svg>