<svg width="257" height="193" viewBox="0 0 257 193" fill="none" xmlns="http://www.w3.org/2000/svg">
<g clip-path="url(#clip0)">
<path d="M102.3 147.6L81.3 143L60.8 127L66 121L84.3 136.8L103.8 142.8C103.8 142.8 107.8 140.7 109.3 140.8C110.8 140.9 114.1 140.5 114.2 141.2C114.3 142.2 112.3 142.5 111.5 142.7C111 142.8 110.2 143.7 110.2 143.7C110.2 143.7 111.9 144.7 113.9 145.3C115.9 145.9 118.2 146.2 119 146.8C119.5 147.2 119.4 148 118.3 148C118.3 148 119.1 148.3 119.1 148.9C119.1 149.3 118.8 149.8 118.1 149.7C118.1 149.7 118.4 150.3 118.2 150.8C118 151.3 117.1 151.3 117.1 151.3C117.1 151.3 117.1 152 116.9 152.3C116.1 153.5 112.2 152.3 109.9 151.5C107.1 150.3 102.3 147.6 102.3 147.6Z" fill="#FFF0EB"/>
<path d="M115.4 153.1C114.3 153.1 112.5 152.8 109.6 151.7C107 150.8 102.6 148.3 102 148L81 143.4C80.9 143.4 80.9 143.4 80.8 143.3L60.4 127.4C60.3 127.3 60.2 127.2 60.2 127.1C60.2 127 60.2 126.8 60.3 126.7L65.5 120.7C65.7 120.5 66 120.5 66.2 120.6L84.4 136.3L103.6 142.2C104.5 141.7 107.8 140.1 109.2 140.2C109.6 140.2 110.2 140.2 110.8 140.2C112.9 140.1 114.5 140.1 114.6 141.1C114.8 142.5 112.6 142.9 111.6 143.1H111.5C111.4 143.1 111.2 143.3 111 143.4C111.7 143.7 112.8 144.3 114 144.6C114.6 144.8 115.2 144.9 115.8 145.1C117.3 145.5 118.6 145.8 119.2 146.3C119.6 146.6 119.8 147.1 119.6 147.6C119.6 147.7 119.4 147.9 119.2 148.1C119.3 148.3 119.4 148.5 119.4 148.8C119.4 149.2 119.2 149.5 118.9 149.8C118.8 149.9 118.6 150 118.5 150C118.5 150.3 118.5 150.6 118.4 150.9C118.2 151.3 117.7 151.5 117.4 151.6C117.4 151.9 117.3 152.2 117.1 152.5C117.1 152.6 116.8 153.1 115.4 153.1ZM81.4 142.5L102.3 147.1C102.3 147.1 102.4 147.1 102.4 147.2C102.4 147.2 107.2 149.9 109.9 150.9C114.4 152.5 116.1 152.3 116.3 151.9C116.4 151.8 116.4 151.4 116.4 151.2C116.4 151.1 116.4 150.9 116.5 150.8C116.6 150.7 116.7 150.6 116.8 150.6C117.1 150.6 117.4 150.5 117.4 150.4C117.5 150.2 117.4 149.9 117.3 149.8C117.2 149.6 117.2 149.4 117.3 149.3C117.4 149.2 117.6 149.1 117.8 149.1C117.9 149.1 118 149.1 118.1 149C118.2 148.9 118.2 148.8 118.2 148.8C118.2 148.7 117.9 148.5 117.7 148.4C117.5 148.3 117.4 148.1 117.4 147.8C117.5 147.6 117.6 147.4 117.9 147.4C118.3 147.4 118.4 147.3 118.4 147.3C118.4 147.3 118.4 147.2 118.3 147.1C117.9 146.7 116.5 146.4 115.2 146.1C114.6 146 114 145.8 113.4 145.6C111.4 145 109.7 144 109.6 144C109.5 143.9 109.4 143.8 109.4 143.6C109.4 143.4 109.4 143.3 109.5 143.2C109.7 143 110.5 142.2 111.1 142.1H111.2C112.8 141.8 113.3 141.5 113.4 141.3C112.9 141.1 111.5 141.2 110.7 141.2C110.1 141.2 109.5 141.2 109 141.2C107.9 141.1 104.8 142.6 103.7 143.2C103.6 143.3 103.4 143.3 103.3 143.2L83.8 137.2C83.7 137.2 83.7 137.1 83.6 137.1L65.7 121.7L61.2 126.9L81.4 142.5Z" fill="black"/>
<path d="M55.9 114.2C55.9 114.2 59.7 114.2 62.7 116.7C67 120.3 76.7 129.5 76.7 129.5L70.8 135.7C70.8 135.7 58.2 125.5 55 125" fill="url(#paint0_linear)"/>
<path d="M70.7 136.1C70.6 136.1 70.5 136.1 70.4 136C66.9 133.2 57.3 125.8 54.9 125.4C54.6 125.4 54.4 125.1 54.5 124.8C54.5 124.5 54.8 124.3 55.1 124.4C58.1 124.8 68.4 133 70.8 134.9L76.1 129.4C74.3 127.7 66.3 120.1 62.5 117C59.7 114.7 56.1 114.6 56 114.6C55.7 114.6 55.5 114.4 55.5 114.1C55.5 113.8 55.7 113.6 56 113.6C56.2 113.6 60 113.6 63.1 116.2C67.4 119.7 77 128.9 77.1 129C77.2 129.1 77.3 129.2 77.3 129.4C77.3 129.6 77.3 129.7 77.2 129.8L71.3 136C71 136.1 70.9 136.1 70.7 136.1Z" fill="black"/>
<path d="M118.3 147.8C117.9 147.8 116.6 147.5 114.3 146.9C112.1 146.4 112 146.3 112 146.3" fill="#FFF0EB"/>
<path d="M118.3 148.3C117.8 148.3 116.2 147.9 114.2 147.4C112 146.8 111.9 146.8 111.8 146.8C111.6 146.7 111.4 146.4 111.6 146.1C111.7 145.9 112 145.8 112.3 145.9C112.3 145.9 112.5 146 114.5 146.5C117.1 147.1 118.2 147.3 118.4 147.3C118.7 147.3 118.9 147.5 118.9 147.8C118.8 148.1 118.5 148.3 118.3 148.3Z" fill="black"/>
<path d="M118 149.5C118 149.5 117 149.3 115 148.9C113.2 148.5 111.2 147.9 111.2 147.9" fill="#FFF0EB"/>
<path d="M118 150C117.9 150 116.9 149.8 114.9 149.4C113.1 149 111.1 148.4 111.1 148.4L111.4 147.4C111.4 147.4 113.5 147.9 115.2 148.3C117.2 148.8 118.1 148.9 118.2 148.9C118.5 148.9 118.7 149.2 118.6 149.5C118.5 149.8 118.3 150 118 150Z" fill="black"/>
<path d="M116.9 151C116.9 151 114.6 150.6 112.9 150.2C111.2 149.8 110.8 149.7 110.8 149.7" fill="#FFF0EB"/>
<path d="M116.9 151.5C116.8 151.5 114.5 151.1 112.8 150.7C111.1 150.3 110.7 150.2 110.7 150.2C110.4 150.1 110.3 149.8 110.4 149.6C110.5 149.3 110.8 149.2 111 149.3C111 149.3 111.4 149.4 113 149.8C114.7 150.2 117 150.6 117 150.6C117.3 150.6 117.5 150.9 117.4 151.2C117.4 151.4 117.2 151.5 116.9 151.5Z" fill="black"/>
<path d="M68.8 185.8C68.8 185.8 73.9 184.9 73.8 185L77.9 173.5C78.2 171.8 76.4 170.7 75.4 170.7L72.6 170.8C71.8 170.8 70.8 171 70.6 172.4L68.4 184C68.2 184.2 67.8 185.8 68.8 185.8Z" fill="#FFF0EB"/>
<path d="M68.8 186.3C68.4 186.3 68.1 186.1 67.9 185.8C67.6 185.2 67.8 184.2 68 183.8L70.2 172.3C70.5 170.4 72.1 170.3 72.7 170.3L75.5 170.2C76.3 170.2 77.3 170.7 77.9 171.4C78.4 172 78.6 172.8 78.5 173.6L74.4 185.2C74.3 185.4 74 185.6 73.8 185.5C73.3 185.5 71 185.9 69 186.3C68.8 186.3 68.8 186.3 68.8 186.3ZM75.5 171.2L72.7 171.3C71.8 171.3 71.3 171.5 71.2 172.4L68.9 184C68.9 184.1 68.9 184.1 68.8 184.2C68.7 184.4 68.5 185.2 68.6 185.3C71.4 184.8 72.7 184.6 73.4 184.5L77.4 173.3C77.5 172.9 77.4 172.4 77 172C76.6 171.5 75.9 171.2 75.5 171.2Z" fill="black"/>
<path d="M74.3 184.4C74.8 184.2 74.4 185.5 75.7 185.9C78.7 186.9 81.3 186.9 81.8 188.4C82.2 189.7 81.8 190.3 81.8 190.3H67.4C66.6 190.3 66.8 189.1 66.9 188.3L67.7 183.7C68.4 184 72.7 184.9 74.3 184.4Z" fill="#FFBA3B"/>
<path d="M81.8 190.8H67.4C67 190.8 66.8 190.6 66.6 190.5C66.2 190 66.3 189.2 66.4 188.4V188.2L67.2 183.5C67.2 183.3 67.4 183.2 67.5 183.1C67.7 183 67.8 183.1 68 183.2C68.5 183.6 72.6 184.5 74 184C74.2 183.9 74.4 184 74.6 184C74.9 184.1 75 184.4 75.1 184.7C75.2 185 75.3 185.4 75.8 185.5C76.7 185.8 77.6 186 78.4 186.2C80.3 186.7 81.8 187 82.3 188.4C82.8 189.9 82.3 190.6 82.2 190.7C82.1 190.7 81.9 190.8 81.8 190.8ZM68.2 184.2L67.5 188.4C67.5 188.7 67.4 189.5 67.5 189.7H81.6C81.6 189.5 81.7 189.1 81.5 188.5C81.3 187.7 80 187.4 78.4 187C77.6 186.8 76.7 186.6 75.7 186.3C74.7 186 74.5 185.3 74.3 184.9C72.6 185.3 69.6 184.8 68.2 184.2Z" fill="black"/>
<path d="M81.9 190.3V191.5C81.9 192 81.4 192.3 80.9 192.3H67.7C67.2 192.3 66.8 191.9 66.8 191.4V190.2L81.9 190.3Z" fill="white"/>
<path d="M80.9 192.8H67.7C66.9 192.8 66.3 192.2 66.3 191.4V190.2C66.3 190.1 66.4 189.9 66.4 189.8C66.5 189.7 66.6 189.7 66.8 189.7L81.8 189.8C82.1 189.8 82.3 190 82.3 190.3V191.5C82.4 192.3 81.7 192.8 80.9 192.8ZM67.4 190.7V191.4C67.4 191.6 67.6 191.8 67.8 191.8H81C81.2 191.8 81.5 191.7 81.5 191.5V190.8L67.4 190.7Z" fill="black"/>
<path d="M69.6 178.2L69.3 179.6L75.2 179.7L75.5 179C73.6 178.5 71.7 179 69.6 178.2Z" fill="black"/>
<path d="M36.6 154.8C36.6 154.8 41.9 157.6 51 156C60.8 154.2 75.7 150.8 75.2 151.4L67.8 177.9L76.8 178.9C76.8 178.9 87.8 149.4 88.4 146.8C89 144.2 88.1 140.2 84.2 139.5C79.4 138.6 40.5 143.2 40.5 143.2" fill="#0072ED"/>
<path d="M76.9 179.4C76.8 179.4 76.8 179.4 76.9 179.4L67.8 178.4C67.7 178.4 67.5 178.3 67.4 178.2C67.3 178.1 67.3 177.9 67.3 177.8L74.5 151.9C72.9 152.1 68.5 153 64.2 153.9C59.9 154.8 55 155.8 51 156.5C41.8 158.2 36.5 155.4 36.3 155.3C36.1 155.2 36 154.9 36.1 154.6C36.2 154.4 36.5 154.3 36.8 154.4C36.9 154.4 42.1 157.1 50.9 155.5C54.9 154.8 59.8 153.8 64 152.9C75.3 150.6 75.3 150.6 75.6 151.1C75.7 151.2 75.7 151.4 75.6 151.5L68.4 177.4L76.5 178.3C77.8 174.9 87.4 149 88 146.6C88.3 145.4 88.3 143.4 87.3 141.9C86.6 140.8 85.6 140.2 84.2 139.9C79.5 139 41.1 143.6 40.7 143.6C40.4 143.6 40.2 143.4 40.1 143.2C40.1 142.9 40.3 142.7 40.5 142.6C42.1 142.4 79.5 138 84.3 138.9C85.9 139.2 87.2 140 88 141.3C89.2 143.1 89.2 145.3 88.9 146.8C88.3 149.4 77.7 177.7 77.3 179C77.3 179.3 77.1 179.4 76.9 179.4Z" fill="black"/>
<path d="M127.3 136.7H103V192.4H127.3V136.7Z" fill="#E0E0E0"/>
<path d="M127.2 192.9H103C102.7 192.9 102.5 192.7 102.5 192.4V136.7C102.5 136.4 102.7 136.2 103 136.2H127.3C127.6 136.2 127.8 136.4 127.8 136.7V192.4C127.7 192.6 127.5 192.9 127.2 192.9ZM103.5 191.9H126.8V137.2H103.5V191.9Z" fill="black"/>
<path d="M15.2 180.6L14.4 181.9L33.4 184.3C34.1 185.3 34.4 186 34.4 185L34.1 182.9C34.1 182.2 34.5 178.2 33.8 178.1L16.6 176.2C15.7 176.1 15.3 179.7 15.2 180.6Z" fill="#FFF0EB"/>
<path d="M34.3 186.1C34 186.1 33.8 185.8 33.5 185.4C33.4 185.3 33.3 185.1 33.2 184.9L14.4 182.6C14.2 182.6 14.1 182.5 14 182.3C13.9 182.1 13.9 182 14 181.8L14.8 180.5V180.3C15.1 178 15.4 176.5 16.1 176C16.3 175.9 16.5 175.8 16.7 175.9L33.8 177.8C34.7 177.9 34.8 179.2 34.6 182.1C34.6 182.5 34.6 182.9 34.6 183L34.9 185C34.9 185.4 34.9 185.9 34.5 186C34.4 186.1 34.3 186.1 34.3 186.1ZM15.2 181.6L33.5 183.9C33.6 183.9 33.7 183.9 33.7 184L33.6 183.1C33.6 182.9 33.6 182.5 33.6 182C33.6 181.2 33.7 179.2 33.5 178.7L16.5 176.9C16.3 177.1 16 177.8 15.7 180.4V180.7C15.7 180.8 15.7 180.8 15.6 180.9L15.2 181.6Z" fill="black"/>
<path d="M15.9 182.6C15.1 183.5 14.7 185.3 14.8 185.8C14.9 186.5 15.9 187.4 15.8 188.7C15.8 190 15.1 190.4 15.1 190.4L12.1 188.9C11.5 188.6 11 188 11 187.2L10.7 176.3C10.7 175.5 12 175.6 13.2 175.5C14.4 175.4 17 176.1 17 176.1C16.3 177.2 15.1 179.9 15.9 182.6Z" fill="#FFBA3B"/>
<path d="M15 191C14.9 191 14.8 191 14.8 190.9L11.8 189.4C11 189 10.5 188.2 10.4 187.3L10.1 176.4C10.1 175.2 11.5 175.2 12.7 175.1H13C14.2 175 16.9 175.7 17 175.7C17.2 175.7 17.3 175.8 17.3 176C17.4 176.1 17.4 176.3 17.3 176.4C17 176.9 15.6 179.7 16.4 182.4C16.4 182.6 16.4 182.7 16.3 182.9C15.5 183.7 15.2 185.4 15.3 185.7C15.3 185.9 15.5 186.1 15.6 186.4C15.9 187 16.3 187.8 16.3 188.8C16.2 190.4 15.4 190.8 15.3 190.9C15.2 191 15.1 191 15 191ZM13.2 176.1H13.1H12.8C12.3 176.1 11.3 176.2 11.2 176.3L11.5 187.2C11.5 187.7 11.9 188.2 12.3 188.4L15.1 189.7C15.2 189.5 15.4 189.2 15.4 188.6C15.4 187.9 15.1 187.3 14.8 186.7C14.6 186.4 14.5 186.1 14.4 185.7C14.3 185 14.7 183.3 15.5 182.2C14.9 179.7 15.7 177.4 16.3 176.2C15.3 176.4 14 176.1 13.2 176.1Z" fill="black"/>
<path d="M15 190.5C15 190.5 14.2 192.2 13.8 192.1C13.8 192.1 10.8 190.6 10.1 190.3C9.49999 189.9 8.89999 188.9 8.79999 188.2L8.59999 176.9C8.59999 176.4 8.99999 176 9.39999 176H10.5L10.8 187C10.9 188 11.5 188.9 12.3 189.3L15 190.5Z" fill="white"/>
<path d="M13.8 192.6C13.7 192.6 13.7 192.6 13.7 192.6H13.6C13.5 192.5 10.5 191.1 9.9 190.7C9.1 190.2 8.5 189 8.4 188.2L8.2 176.8C8.2 176.4 8.3 176.1 8.6 175.8C8.9 175.5 9.2 175.4 9.5 175.4H10.6C10.9 175.4 11.1 175.6 11.1 175.9L11.4 186.9C11.5 187.7 11.9 188.4 12.7 188.8L15.4 190.1C15.6 190.2 15.7 190.5 15.6 190.8C14.7 192.4 14.1 192.6 13.8 192.6ZM10.1 176.4H9.5C9.4 176.4 9.3 176.4 9.3 176.5C9.2 176.6 9.2 176.7 9.2 176.7L9.4 188C9.5 188.5 9.9 189.4 10.4 189.7C10.9 190 13.2 191.1 13.8 191.4C13.9 191.2 14.2 190.9 14.4 190.5L12.2 189.4C11.2 188.9 10.5 187.9 10.4 186.7L10.1 176.4Z" fill="black"/>
<path d="M34.7 140.7C34.7 140.7 32.3 146.6 36.2 155C40.3 163.7 49.9 180.5 49.3 180.1L21.2 176.3L20.7 185.8C20.7 185.8 53.2 191.5 55.9 191.8C58.6 192.1 62 190.4 62.2 186.4C62.5 181.5 49 144.9 49 144.9" fill="#0072ED"/>
<path d="M56.5 192.4C56.3 192.4 56.1 192.4 55.8 192.4C53.2 192.1 21.9 186.6 20.6 186.4C20.4 186.4 20.2 186.1 20.2 185.9L20.7 176.4C20.7 176.3 20.8 176.1 20.9 176C21 175.9 21.1 175.9 21.3 175.9L48.6 179.6C48 178.4 46.5 175.7 45 172.9C42.1 167.5 38.1 160.1 35.8 155.3C31.8 146.8 34.2 140.8 34.3 140.6C34.4 140.3 34.7 140.2 34.9 140.3C35.2 140.4 35.3 140.7 35.2 140.9C35.2 141 32.9 146.8 36.7 154.8C38.9 159.6 42.9 167 45.9 172.4C50.1 180.2 50.1 180.2 49.7 180.5C49.6 180.6 49.4 180.6 49.3 180.6L21.7 176.9L21.3 185.5C25.2 186.2 53.6 191.1 56 191.4C57.4 191.6 58.9 191.1 60 190.2C61.1 189.3 61.7 188 61.8 186.5C62 181.7 48.7 145.5 48.6 145.2C48.5 144.9 48.6 144.7 48.9 144.6C49.2 144.5 49.4 144.6 49.5 144.9C50.1 146.4 63 181.7 62.8 186.6C62.7 188.4 62 190 60.7 191C59.4 191.9 58 192.4 56.5 192.4Z" fill="black"/>
<path d="M71.9 101C72.4 101.3 74.8 102.8 74.5 105C74.3 107 75.1 110.6 72.6 113C70.5 115 74 115.8 70.5 118.9C70.5 118.9 65.4 116.9 61.2 112.7C57.6 109.1 55.8 105.6 55.8 105.6C55.8 105.6 64.2 101.7 65.2 100.8C66.2 99.9 69.9 97 71.9 101Z" fill="#40588F"/>
<path d="M70.5 119.4C70.4 119.4 70.4 119.4 70.3 119.4C70.1 119.3 65 117.3 60.8 113.1C57.2 109.5 55.4 106 55.3 105.9C55.2 105.8 55.2 105.6 55.3 105.5C55.3 105.4 55.4 105.3 55.6 105.2C59 103.7 64.2 101.1 64.9 100.5C65.5 100 67.6 98.2 69.7 98.6C70.8 98.8 71.6 99.5 72.3 100.7C74.8 102.3 75.1 104 75 105.1C75 105.5 75 106.1 75 106.7C75 108.7 75.1 111.4 73 113.4C72.3 114.1 72.4 114.5 72.5 115.1C72.7 116.1 73 117.3 70.9 119.3C70.8 119.3 70.7 119.4 70.5 119.4ZM56.5 105.8C57.1 106.8 58.8 109.5 61.5 112.3C65.1 115.9 69.3 117.8 70.4 118.3C71.9 116.9 71.7 116.1 71.5 115.3C71.3 114.6 71.1 113.7 72.2 112.6C74 110.9 73.9 108.5 73.9 106.6C73.9 106 73.9 105.4 73.9 104.9C74 103.7 73.2 102.5 71.5 101.4C71.4 101.4 71.4 101.3 71.3 101.2C70.8 100.2 70.1 99.6 69.4 99.5C67.7 99.2 65.8 100.8 65.4 101.2C64.6 102 58.4 104.9 56.5 105.8Z" fill="black"/>
<path d="M66.2 112C65.2 113.5 62.8 116.3 62.3 117.9C62 118.8 61 119.3 60.1 119C58.8 118.6 57.2 117.4 55.9 116.3C55.1 115.6 53.9 115.4 54.7 114.7L62.1 108.3C62.9 107.6 64.1 107.8 64.7 108.6L65.7 110C66.1 110.6 66.6 111.4 66.2 112Z" fill="#FFF0EB"/>
<path d="M60.6 119.6C60.4 119.6 60.2 119.6 60 119.5C58.5 119 56.8 117.7 55.6 116.7C55.4 116.5 55.1 116.4 54.9 116.2C54.4 115.9 54 115.7 54 115.2C54 114.7 54.3 114.4 54.4 114.3L61.8 107.9C62.3 107.5 62.9 107.3 63.6 107.4C64.2 107.5 64.8 107.8 65.2 108.4L66.2 109.8C66.7 110.5 67.4 111.5 66.8 112.3C66.5 112.8 66.1 113.3 65.6 114C64.6 115.4 63.3 117.1 62.9 118.1C62.4 119 61.5 119.6 60.6 119.6ZM55 115.1C55.1 115.2 55.2 115.2 55.3 115.3C55.6 115.5 55.9 115.6 56.2 115.9C57.3 116.8 58.9 118.1 60.2 118.5C60.8 118.7 61.5 118.3 61.8 117.7C62.2 116.5 63.5 114.8 64.6 113.3C65.1 112.7 65.5 112.1 65.8 111.7C66 111.4 65.7 110.9 65.3 110.3L64.3 108.9C64.1 108.6 63.8 108.4 63.4 108.4C63 108.4 62.7 108.5 62.4 108.7L55 115.1Z" fill="black"/>
<path d="M64.6 110.9C65.2 111.5 65.4 112.5 64.9 113.2L64.1 114.4C64.1 114.4 63.6 112.6 63 111.5C62.4 110.4 62.4 109.9 61.6 109.6C61.9 109.3 62.7 108.4 62.7 108.4C62.7 108.4 63.5 109.8 64.6 110.9Z" fill="black"/>
<path d="M64.1 114.8C63.8 114.8 63.7 114.6 63.6 114.4C63.6 114.4 63.2 112.6 62.6 111.7C62.4 111.4 62.3 111.1 62.2 110.9C61.9 110.3 61.8 110.2 61.5 110.1C61.3 110 61.2 109.9 61.2 109.7C61.2 109.5 61.2 109.3 61.3 109.2C61.5 109 62.1 108.3 62.4 108C62.5 107.9 62.7 107.8 62.8 107.8C63 107.8 63.1 107.9 63.2 108.1C63.2 108.1 63.9 109.5 65 110.5C65.8 111.3 66 112.5 65.3 113.4L64.5 114.6C64.4 114.7 64.3 114.8 64.1 114.8ZM62.4 109.5C62.7 109.8 62.9 110.1 63.1 110.5C63.2 110.7 63.3 111 63.5 111.3C63.8 111.9 64.1 112.6 64.3 113.2L64.5 112.9C64.8 112.4 64.8 111.7 64.3 111.3C63.6 110.6 63 109.8 62.7 109.3C62.6 109.3 62.5 109.4 62.4 109.5Z" fill="black"/>
<path d="M73.7 108.9C73.7 109 73.6 109 73.6 109.1C73.2 109.8 70.5 114.8 68 114.8C65.1 114.9 63.9 109.9 63.5 108.4C63.1 106.9 62.6 104.5 65.5 101.9C68.4 99.2 70 99.5 72 101.2C75.4 103.7 74 108.1 73.7 108.9Z" fill="#FFF0EB"/>
<path d="M67.9 115.3C64.9 115.3 63.6 110.8 63.1 108.8L63 108.5C62.4 106.5 62.2 104.1 65.1 101.5C68.3 98.6 70.2 99 72.2 100.7C75.9 103.4 74.4 108.1 74.1 109C74.1 109.1 74 109.2 74 109.3C72.5 112 70.3 115.2 68 115.3C68 115.3 68 115.3 67.9 115.3ZM69.2 100.4C68.3 100.4 67.2 100.9 65.8 102.2C63 104.8 63.6 107 63.9 108.2L64 108.5C64.4 110.1 65.6 114.3 67.9 114.2C69.3 114.2 71.2 112.1 73 108.8C73.1 108.7 73.1 108.7 73.1 108.6C73.4 107.8 74.7 103.8 71.5 101.5C70.8 100.9 70.1 100.4 69.2 100.4Z" fill="black"/>
<path d="M54.9 114C56.8 113.6 62.7 114.5 64.7 119.7C65.5 121.8 63.1 126.3 60.4 131.7C57.7 137 52.3 139.7 49.8 147.1C43.8 145.5 39.6 143.7 34.6 140.4C34.6 140.4 38.2 134.7 42.9 126.9C48.8 116.9 53.3 114.3 54.9 114Z" fill="url(#paint1_linear)"/>
<path d="M49.7 147.6H49.6C43.4 145.9 39.1 144.1 34.3 140.9C34.1 140.8 34 140.4 34.2 140.2C34.2 140.1 37.9 134.4 42.5 126.7C49.3 115.2 54 113.8 54.9 113.6C56.8 113.2 63 114 65.2 119.6C66 121.8 64 125.9 61.4 131L60.9 132C59.8 134.3 58.1 136.1 56.4 137.9C54.1 140.5 51.7 143.1 50.2 147.2C50.1 147.4 49.9 147.6 49.7 147.6ZM35.2 140.3C39.7 143.2 43.7 145 49.4 146.5C50.9 142.4 53.3 139.8 55.6 137.2C57.3 135.4 58.8 133.6 59.9 131.5L60.4 130.5C62.8 125.8 64.8 121.7 64.2 119.9C62.4 115.1 57 114.1 55 114.5C54.5 114.6 50 115.8 43.3 127.1C39.4 133.7 36.2 138.8 35.2 140.3Z" fill="black"/>
<path d="M73.8 101.1C73.8 101.1 74.8 102.6 75 103.7C75.2 104.8 74.5 106.5 74.1 106.7C73.7 106.9 73.7 106.7 73.5 106.4C73.4 106.1 73.6 103.9 73.3 102.7C73 101.5 72.6 99.7 73.8 101.1Z" fill="#40588F"/>
<path d="M73.8 107.3C73.7 107.3 73.6 107.3 73.5 107.2C73.2 107.1 73.1 106.8 73.1 106.6C73 106.3 73 106 73 105.3C73 104.5 73 103.4 72.9 102.7C72.9 102.5 72.8 102.3 72.8 102.2C72.6 101.1 72.4 100.4 72.9 100.1C73.4 99.8 73.9 100.4 74.2 100.8C74.2 100.9 75.3 102.4 75.5 103.6C75.7 104.8 75 106.8 74.3 107.1C74.2 107.2 74 107.3 73.8 107.3ZM73.7 101.9C73.7 101.9 73.7 102 73.7 101.9C73.8 102.2 73.8 102.4 73.8 102.5C74 103.3 73.9 104.4 73.9 105.3C73.9 105.6 73.9 105.9 73.9 106.1C74.2 105.7 74.5 104.6 74.4 103.8C74.4 103.2 74 102.4 73.7 101.9Z" fill="black"/>
<path d="M64.9 97.1C61.9 94.5 62.9 88.5 67.8 88.1C73 88 74.6 93.7 72 96.7C71.5 97.2 70.6 97.9 69.2 98C69.3 98.1 70 97.8 70.8 98.2C73.2 99.4 75.1 102.5 75.2 104.4C75.3 105.8 75.6 107.9 70.9 106.9C68.8 106.7 68.5 107.9 68.2 108.6C67.9 109.3 67.8 110.7 66.3 110.9C64.2 111.2 64.1 111.4 64 112.5C63.8 114.3 61.9 114.5 61.9 114.5C61.9 114.5 62.4 113.7 62.5 113C62.8 111.9 62.4 111.6 62.7 110.6C63.1 109.7 64.3 109.3 65.7 108.9C66.9 108.5 66.3 106.9 66.9 106.1C67.2 105.7 68.6 105.2 68.6 105.2C68.6 105.2 67.1 105.3 65.8 106.3C64.5 107.3 63.9 107.1 63.5 108.5C62.9 110.3 61.8 109.6 61.1 110.9C60.7 111.8 60.2 112.6 59.1 112.5C56.2 109.8 52.5 105.8 50.8 101C50.8 101 53.1 99.5 54.6 100.1C57 101.1 56.8 98.4 59.1 99.1C60.4 99.5 60.6 99.1 61.6 98.2C63 97 63.7 97.4 64.9 97.7C65.1 97.7 66.3 97.7 66.5 97.7C65.7 97.6 65.2 97.3 64.9 97.1Z" fill="#40588F"/>
<path d="M61.9 114.9C61.8 114.9 61.7 114.9 61.6 114.8C61.2 114.5 61.4 114.1 61.5 113.9C61.6 113.6 61.9 113.2 62 112.7C62.1 112.3 62.1 112 62.1 111.7C62.1 111.3 62 110.9 62.3 110.3C62.1 110.4 61.9 110.6 61.7 110.9C61.3 111.7 60.7 112.9 59.2 112.8C59.1 112.8 59 112.7 58.9 112.7C54.7 108.8 51.8 104.8 50.5 101C50.4 100.8 50.5 100.5 50.7 100.4C51.1 100.2 53.3 98.9 54.9 99.5C55.9 99.9 56.2 99.6 56.7 99.1C57.3 98.6 58 98 59.3 98.5C60.1 98.8 60.2 98.7 60.9 98.1C61 98 61.2 97.8 61.4 97.7C62.5 96.8 63.2 96.7 64 96.8C62.8 95.3 62.3 93.2 63 91.2C63.7 89.1 65.5 87.6 67.8 87.4C70.3 87.4 72.3 88.5 73.2 90.6C74.2 92.7 73.8 95.2 72.4 96.8C72.2 97 71.9 97.4 71.4 97.6C73.8 99 75.6 102 75.8 104V104.2C75.8 105 75.9 106 75.1 106.7C74.3 107.4 73 107.5 70.9 107.1C69.4 107 69.1 107.7 68.8 108.4L68.7 108.6C68.6 108.7 68.6 108.9 68.5 109C68.3 109.7 67.9 111 66.4 111.2C64.6 111.5 64.6 111.5 64.5 112.4C64.4 114.2 62.8 114.8 61.9 114.9C61.9 114.9 62 114.9 61.9 114.9ZM68.8 104.6C69 104.6 69.2 104.8 69.3 105C69.4 105.2 69.2 105.5 69 105.6C68.4 105.8 67.7 106.2 67.5 106.4C67.3 106.6 67.3 107 67.2 107.4C67.1 108.1 67 109.1 66 109.4C64.6 109.8 63.6 110.1 63.3 110.8C63.1 111.2 63.2 111.4 63.2 111.8C63.2 112.1 63.2 112.5 63.1 113.1C63.1 113.3 63 113.5 62.9 113.6C63.2 113.4 63.5 113 63.6 112.4C63.7 110.9 64.3 110.6 66.3 110.3C67.1 110.2 67.4 109.6 67.6 108.8C67.7 108.6 67.7 108.4 67.8 108.3L67.9 108.2C68.2 107.5 68.8 106.2 71 106.3C73.2 106.7 74.1 106.5 74.4 106.2C74.8 105.8 74.8 105.2 74.7 104.5V104.3C74.6 102.6 72.7 99.6 70.6 98.5C70.2 98.3 69.8 98.3 69.5 98.4C69.3 98.4 69.2 98.4 69 98.4C68.8 98.3 68.7 98.1 68.7 97.8C68.7 97.6 68.9 97.4 69.2 97.4C70.5 97.3 71.3 96.7 71.6 96.3C72.8 94.9 73.1 92.9 72.3 91.2C71.5 89.5 69.9 88.6 67.9 88.6H67.8C65.9 88.8 64.4 89.9 63.9 91.7C63.3 93.5 63.8 95.6 65.2 96.8C65.3 96.9 65.7 97.2 66.7 97.3C67 97.3 67.2 97.5 67.2 97.8C67.2 98.1 67 98.3 66.8 98.3C66.6 98.3 65.3 98.3 65 98.3C64.8 98.3 64.7 98.2 64.5 98.2C63.6 98 63.2 97.8 62.1 98.7C61.9 98.8 61.8 99 61.7 99.1C60.9 99.8 60.4 100.2 59.1 99.8C58.2 99.5 57.9 99.8 57.4 100.2C56.8 100.7 56.1 101.3 54.5 100.7C53.7 100.4 52.3 100.9 51.5 101.3C52.8 104.8 55.5 108.4 59.4 112C60 112 60.3 111.5 60.8 110.6C61.2 109.8 61.7 109.6 62.1 109.4C62.5 109.2 62.9 109 63.1 108.2C63.5 107.1 64 106.8 64.6 106.4C64.9 106.2 65.2 106.1 65.6 105.7C67.1 104.6 68.7 104.6 68.8 104.6C68.7 104.6 68.7 104.6 68.8 104.6ZM66.3 106.5C65.8 106.9 65.5 107.1 65.2 107.3C64.6 107.6 64.4 107.8 64.1 108.5C64 108.7 64 108.8 63.9 108.9C64.4 108.7 65 108.5 65.6 108.3C66 108.2 66.1 107.9 66.2 107.2C66.2 107 66.3 106.8 66.3 106.5Z" fill="black"/>
<path d="M66.6 106.5C66.6 106.5 66.9 104.2 65.1 104.6C63.8 104.9 63.4 106.8 63.9 108.5" fill="#FFF0EB"/>
<path d="M63.9 109C63.7 109 63.5 108.9 63.4 108.6C63 107.3 63.1 105.9 63.7 105C64 104.5 64.5 104.1 65 104C65.7 103.8 66.2 104.1 66.5 104.3C67.2 105 67.1 106.3 67.1 106.4C67.1 106.7 66.8 106.9 66.5 106.8C66.2 106.8 66 106.5 66.1 106.3C66.1 106 66.1 105.3 65.8 105C65.8 105 65.6 104.8 65.2 104.9C64.9 105 64.7 105.1 64.5 105.4C64.1 106 64.1 107.1 64.3 108.2C64.4 108.5 64.2 108.7 64 108.8C64 109 64 109 63.9 109Z" fill="black"/>
<path d="M40.5 150.3C40.3 150.3 40.2 150.2 40.1 150C40 149.8 40 149.5 40.3 149.3L46.3 145.9C46.5 145.8 46.8 145.8 47 146.1C47.1 146.3 47.1 146.6 46.8 146.8L40.8 150.2C40.7 150.2 40.6 150.3 40.5 150.3Z" fill="black"/>
<path d="M54.8 186.8C47.2 186.6 22.5 181.9 21.4 181.7C21.1 181.6 21 181.4 21 181.1C21.1 180.8 21.3 180.7 21.6 180.7C21.9 180.7 47.3 185.6 54.8 185.8C55.3 185.8 56 185.5 56.3 185C56.6 184.6 56.9 183.9 56.6 182.9C53.6 173.4 43 148.6 42.8 148.4C42.7 148.1 42.8 147.9 43.1 147.7C43.4 147.6 43.6 147.7 43.8 148C43.9 148.2 54.6 173.1 57.6 182.6C57.9 183.7 57.8 184.7 57.2 185.6C56.6 186.3 55.7 186.8 54.8 186.8Z" fill="black"/>
<path d="M164.2 163.6H125.3V192.5H164.2V163.6Z" fill="#E0E0E0"/>
<path d="M164.2 193H125.3C125 193 124.8 192.8 124.8 192.5V163.6C124.8 163.3 125 163.1 125.3 163.1H164.2C164.5 163.1 164.7 163.3 164.7 163.6V192.5C164.7 192.8 164.5 193 164.2 193ZM125.8 192H163.7V164.1H125.8V192V192Z" fill="black"/>
<path d="M167.5 163.6H141.6V192.5H167.5V163.6Z" fill="#F0F0F0"/>
<path d="M167.5 193H141.6C141.3 193 141.1 192.8 141.1 192.5V163.6C141.1 163.3 141.3 163.1 141.6 163.1H167.5C167.8 163.1 168 163.3 168 163.6V192.5C168 192.8 167.8 193 167.5 193ZM142.1 192H167V164.1H142.1V192Z" fill="black"/>
<path d="M210.4 169.4H179.3V192.5H210.4V169.4Z" fill="#E0E0E0"/>
<path d="M210.4 193H179.3C179 193 178.8 192.8 178.8 192.5V169.4C178.8 169.1 179 168.9 179.3 168.9H210.4C210.7 168.9 210.9 169.1 210.9 169.4V192.5C210.9 192.8 210.7 193 210.4 193ZM179.8 192H209.9V169.9H179.8V192Z" fill="black"/>
<path d="M213.1 169.4H192.4V192.5H213.1V169.4Z" fill="#F0F0F0"/>
<path d="M213.1 193H192.4C192.1 193 191.9 192.8 191.9 192.5V169.4C191.9 169.1 192.1 168.9 192.4 168.9H213.1C213.4 168.9 213.6 169.1 213.6 169.4V192.5C213.6 192.8 213.3 193 213.1 193ZM192.9 192H212.6V169.9H192.9V192Z" fill="black"/>
<path d="M159.3 145.9H135.6V163.6H159.3V145.9Z" fill="#E0E0E0"/>
<path d="M159.3 164.1H135.6C135.3 164.1 135.1 163.9 135.1 163.6V145.9C135.1 145.6 135.3 145.4 135.6 145.4H159.3C159.6 145.4 159.8 145.6 159.8 145.9V163.6C159.8 163.9 159.6 164.1 159.3 164.1ZM136.1 163.1H158.8V146.4H136.1V163.1Z" fill="black"/>
<path d="M159.3 145.9H151.9V163.6H159.3V145.9Z" fill="white"/>
<path d="M159.3 164.1H151.9C151.6 164.1 151.4 163.9 151.4 163.6V145.9C151.4 145.6 151.6 145.4 151.9 145.4H159.3C159.6 145.4 159.8 145.6 159.8 145.9V163.6C159.8 163.9 159.6 164.1 159.3 164.1ZM152.4 163.1H158.8V146.4H152.4V163.1Z" fill="black"/>
<path d="M140.5 145.9L148.4 131.7L157 145.8L140.5 145.9Z" fill="#FFDB66"/>
<path d="M140.5 146.4C140.3 146.4 140.2 146.3 140.1 146.2C140 146 140 145.9 140.1 145.7L148 131.5C148.1 131.3 148.2 131.2 148.4 131.2C148.6 131.2 148.7 131.3 148.8 131.4L157.4 145.5C157.5 145.7 157.5 145.8 157.4 146C157.3 146.2 157.1 146.3 157 146.3L140.5 146.4ZM148.5 132.7L141.4 145.4L156.2 145.3L148.5 132.7Z" fill="black"/>
<path d="M206.5 156.4H193.5V169.4H206.5V156.4Z" fill="#0072ED"/>
<path d="M206.5 169.9H193.5C193.2 169.9 193 169.7 193 169.4V156.4C193 156.1 193.2 155.9 193.5 155.9H206.5C206.8 155.9 207 156.1 207 156.4V169.4C207 169.7 206.8 169.9 206.5 169.9ZM194 168.9H206V156.9H194V168.9Z" fill="black"/>
<path d="M243.3 89.3H106.8C105.6 89.3 104.7 88.4 104.7 87.2V3.2C104.7 2 105.6 1.1 106.8 1.1H243.3C244.5 1.1 245.4 2 245.4 3.2V87.2C245.4 88.4 244.5 89.3 243.3 89.3Z" fill="white"/>
<path d="M243.3 89.8H106.8C105.4 89.8 104.2 88.6 104.2 87.2V3.2C104.2 1.8 105.4 0.599998 106.8 0.599998H243.3C244.7 0.599998 245.9 1.8 245.9 3.2V87.2C245.9 88.6 244.7 89.8 243.3 89.8ZM106.8 1.6C105.9 1.6 105.2 2.3 105.2 3.2V87.2C105.2 88.1 105.9 88.8 106.8 88.8H243.3C244.2 88.8 244.9 88.1 244.9 87.2V3.2C244.9 2.3 244.2 1.6 243.3 1.6H106.8V1.6Z" fill="black"/>
<path d="M243.2 0.5H106.9C105.7 0.5 104.8 1.4 104.8 2.6V14.3H245.5V2.6C245.4 1.4 244.5 0.5 243.2 0.5Z" fill="white"/>
<path d="M245.9 14.9H104.2V2.6C104.2 1.2 105.4 0 106.8 0H243.1C244.6 0 245.8 1.1 245.8 2.6V14.9H245.9ZM105.2 13.9H244.9V2.6C244.9 1.7 244.2 1 243.2 1H106.9C106 1 105.3 1.7 105.3 2.6V13.9H105.2Z" fill="black"/>
<path d="M111.1 6.9C112.039 6.9 112.8 6.13888 112.8 5.2C112.8 4.26112 112.039 3.5 111.1 3.5C110.161 3.5 109.4 4.26112 109.4 5.2C109.4 6.13888 110.161 6.9 111.1 6.9Z" fill="white"/>
<path d="M111.1 7.4C109.9 7.4 108.9 6.4 108.9 5.2C108.9 4 109.9 3 111.1 3C112.3 3 113.3 4 113.3 5.2C113.3 6.4 112.3 7.4 111.1 7.4ZM111.1 4C110.4 4 109.9 4.5 109.9 5.2C109.9 5.9 110.4 6.4 111.1 6.4C111.8 6.4 112.3 5.9 112.3 5.2C112.3 4.5 111.8 4 111.1 4Z" fill="black"/>
<path d="M116.7 6.9C117.639 6.9 118.4 6.13888 118.4 5.2C118.4 4.26112 117.639 3.5 116.7 3.5C115.761 3.5 115 4.26112 115 5.2C115 6.13888 115.761 6.9 116.7 6.9Z" fill="white"/>
<path d="M116.7 7.4C115.5 7.4 114.5 6.4 114.5 5.2C114.5 4 115.5 3 116.7 3C117.9 3 118.9 4 118.9 5.2C118.9 6.4 117.9 7.4 116.7 7.4ZM116.7 4C116 4 115.5 4.5 115.5 5.2C115.5 5.9 116 6.4 116.7 6.4C117.4 6.4 117.9 5.9 117.9 5.2C117.9 4.5 117.3 4 116.7 4Z" fill="black"/>
<path d="M122.2 6.9C123.139 6.9 123.9 6.13888 123.9 5.2C123.9 4.26112 123.139 3.5 122.2 3.5C121.261 3.5 120.5 4.26112 120.5 5.2C120.5 6.13888 121.261 6.9 122.2 6.9Z" fill="white"/>
<path d="M122.2 7.4C121 7.4 120 6.4 120 5.2C120 4 121 3 122.2 3C123.4 3 124.4 4 124.4 5.2C124.4 6.4 123.5 7.4 122.2 7.4ZM122.2 4C121.5 4 121 4.5 121 5.2C121 5.9 121.5 6.4 122.2 6.4C122.9 6.4 123.4 5.9 123.4 5.2C123.4 4.5 122.9 4 122.2 4Z" fill="black"/>
<path d="M234.2 97.8H97.7C96.5 97.8 95.6 96.9 95.6 95.7V11.7C95.6 10.5 96.5 9.6 97.7 9.6H234.2C235.4 9.6 236.3 10.5 236.3 11.7V95.7C236.3 96.8 235.3 97.8 234.2 97.8Z" fill="white"/>
<path d="M234.2 98.3H97.7C96.3 98.3 95.1 97.1 95.1 95.7V11.7C95.1 10.3 96.3 9.1 97.7 9.1H234.2C235.6 9.1 236.8 10.3 236.8 11.7V95.7C236.8 97.1 235.6 98.3 234.2 98.3ZM97.7 10.1C96.8 10.1 96.1 10.8 96.1 11.7V95.7C96.1 96.6 96.8 97.3 97.7 97.3H234.2C235.1 97.3 235.8 96.6 235.8 95.7V11.7C235.8 10.8 235.1 10.1 234.2 10.1H97.7V10.1Z" fill="black"/>
<path d="M234.1 9H97.7C96.5 9 95.6 9.9 95.6 11.1V18.6H236.3V11C236.3 9.9 235.4 9 234.1 9Z" fill="white"/>
<path d="M236.8 19.1H95.1V11.1C95.1 9.7 96.3 8.5 97.7 8.5H234C235.5 8.5 236.7 9.6 236.7 11.1V19.1H236.8ZM96.1 18.1H235.8V11C235.8 10.1 235.1 9.4 234.1 9.4H97.7C96.8 9.4 96.1 10.1 96.1 11V18.1V18.1Z" fill="black"/>
<path d="M102 15.4C102.939 15.4 103.7 14.6389 103.7 13.7C103.7 12.7611 102.939 12 102 12C101.061 12 100.3 12.7611 100.3 13.7C100.3 14.6389 101.061 15.4 102 15.4Z" fill="white"/>
<path d="M102 15.9C100.8 15.9 99.8 14.9 99.8 13.7C99.8 12.5 100.8 11.5 102 11.5C103.2 11.5 104.2 12.5 104.2 13.7C104.2 14.9 103.2 15.9 102 15.9ZM102 12.5C101.3 12.5 100.8 13 100.8 13.7C100.8 14.4 101.3 14.9 102 14.9C102.7 14.9 103.2 14.4 103.2 13.7C103.2 13 102.6 12.5 102 12.5Z" fill="black"/>
<path d="M107.5 15.4C108.439 15.4 109.2 14.6389 109.2 13.7C109.2 12.7611 108.439 12 107.5 12C106.561 12 105.8 12.7611 105.8 13.7C105.8 14.6389 106.561 15.4 107.5 15.4Z" fill="white"/>
<path d="M107.5 15.9C106.3 15.9 105.3 14.9 105.3 13.7C105.3 12.5 106.3 11.5 107.5 11.5C108.7 11.5 109.7 12.5 109.7 13.7C109.7 14.9 108.8 15.9 107.5 15.9ZM107.5 12.5C106.8 12.5 106.3 13 106.3 13.7C106.3 14.4 106.8 14.9 107.5 14.9C108.2 14.9 108.7 14.4 108.7 13.7C108.7 13 108.2 12.5 107.5 12.5Z" fill="black"/>
<path d="M113.1 15.4C114.039 15.4 114.8 14.6389 114.8 13.7C114.8 12.7611 114.039 12 113.1 12C112.161 12 111.4 12.7611 111.4 13.7C111.4 14.6389 112.161 15.4 113.1 15.4Z" fill="white"/>
<path d="M113.1 15.9C111.9 15.9 110.9 14.9 110.9 13.7C110.9 12.5 111.9 11.5 113.1 11.5C114.3 11.5 115.3 12.5 115.3 13.7C115.3 14.9 114.3 15.9 113.1 15.9ZM113.1 12.5C112.4 12.5 111.9 13 111.9 13.7C111.9 14.4 112.4 14.9 113.1 14.9C113.8 14.9 114.3 14.4 114.3 13.7C114.3 13 113.8 12.5 113.1 12.5Z" fill="black"/>
<path d="M196.4 15.8H138.6C138 15.8 137.5 15.3 137.5 14.7V12.6C137.5 12 138 11.5 138.6 11.5H196.4C197 11.5 197.5 12 197.5 12.6V14.7C197.5 15.3 197 15.8 196.4 15.8Z" fill="#F0F0F0"/>
<path d="M196.4 16.3H138.6C137.7 16.3 137 15.6 137 14.7V12.6C137 11.7 137.7 11 138.6 11H196.4C197.3 11 198 11.7 198 12.6V14.7C198 15.6 197.3 16.3 196.4 16.3ZM138.6 12C138.3 12 138 12.3 138 12.6V14.7C138 15 138.3 15.3 138.6 15.3H196.4C196.7 15.3 197 15 197 14.7V12.6C197 12.3 196.7 12 196.4 12H138.6Z" fill="black"/>
<path d="M138.6 192.4L123.9 169.7L110.9 192.5L138.6 192.4Z" fill="white"/>
<path d="M110.9 193C110.7 193 110.6 192.9 110.5 192.8C110.4 192.6 110.4 192.5 110.5 192.3L123.5 169.5C123.6 169.3 123.7 169.3 123.9 169.2C124.1 169.2 124.2 169.3 124.3 169.4L139 192.1C139.1 192.3 139.1 192.4 139 192.6C138.9 192.8 138.7 192.9 138.6 192.9L110.9 193ZM123.9 170.7L111.7 192L137.6 191.9L123.9 170.7Z" fill="black"/>
<path d="M241.2 192.4L225.7 170.5L212.8 192.5L241.2 192.4Z" fill="white"/>
<path d="M212.8 193C212.6 193 212.5 192.9 212.4 192.7C212.3 192.5 212.3 192.4 212.4 192.2L225.3 170.2C225.4 170.1 225.5 170 225.7 170C225.9 170 226 170.1 226.1 170.2L241.6 192.2C241.7 192.4 241.7 192.6 241.6 192.7C241.5 192.8 241.3 193 241.2 193H212.8ZM225.7 171.4L213.7 192L240.3 191.9L225.7 171.4Z" fill="black"/>
<path d="M98.8 192.2C104.82 192.2 109.7 187.32 109.7 181.3C109.7 175.28 104.82 170.4 98.8 170.4C92.7801 170.4 87.9 175.28 87.9 181.3C87.9 187.32 92.7801 192.2 98.8 192.2Z" fill="#39AE7F"/>
<path d="M98.8 192.8C92.5 192.8 87.4 187.7 87.4 181.4C87.4 175.1 92.5 170 98.8 170C105.1 170 110.2 175.1 110.2 181.4C110.2 187.7 105.1 192.8 98.8 192.8ZM98.8 170.9C93 170.9 88.4 175.6 88.4 181.3C88.4 187 93.1 191.7 98.8 191.7C104.5 191.7 109.2 187 109.2 181.3C109.2 175.6 104.5 170.9 98.8 170.9Z" fill="black"/>
<path d="M225.8 170.2C230.826 170.2 234.9 166.126 234.9 161.1C234.9 156.074 230.826 152 225.8 152C220.774 152 216.7 156.074 216.7 161.1C216.7 166.126 220.774 170.2 225.8 170.2Z" fill="#39AE7F"/>
<path d="M225.8 170.7C220.5 170.7 216.2 166.4 216.2 161.1C216.2 155.8 220.5 151.5 225.8 151.5C231.1 151.5 235.4 155.8 235.4 161.1C235.4 166.4 231.1 170.7 225.8 170.7ZM225.8 152.5C221 152.5 217.2 156.4 217.2 161.1C217.2 165.8 221.1 169.7 225.8 169.7C230.6 169.7 234.4 165.8 234.4 161.1C234.4 156.4 230.6 152.5 225.8 152.5Z" fill="black"/>
<path d="M138.1 36.3C138.1 35.2 137.2 34.3 136.1 34.3H122.3C121.8 34.3 122 34.2 121.7 33.9L121.1 33.2C120.8 32.9 120.3 32.7 119.9 32.7H111.3C110.2 32.7 109.3 33.6 109.3 34.7V37.3V38.9V52.6C109.3 53.7 110.2 54.6 111.3 54.6H136.1C137.2 54.6 138.1 53.7 138.1 52.6V38.8V37.4V36.3V36.3Z" fill="#C4C4C4"/>
<path d="M120.8 32.6C120.7 32.5 120.7 32.5 120.6 32.5H110C109.7 32.5 109.4 32.7 109.4 33.1V36H120.5C120.6 36 120.6 36 120.7 35.9L122.4 34.3L120.8 32.6Z" fill="#E0E0E0"/>
<path d="M135.5 34.4C135.5 33.3 134.6 32.4 133.5 32.4H119.7C119.2 32.4 119.4 32.3 119.1 32L118.5 31.3C118.2 31 117.7 30.8 117.3 30.8H108.7C107.6 30.8 106.7 31.7 106.7 32.8V35.4V37V50.7C106.7 51.8 107.6 52.7 108.7 52.7H133.5C134.6 52.7 135.5 51.8 135.5 50.7V36.9V35.5V34.4V34.4Z" fill="#F0F0F0"/>
<path d="M133.5 53.2H108.7C107.3 53.2 106.2 52.1 106.2 50.7V32.8C106.2 31.4 107.3 30.3 108.7 30.3H117.3C117.9 30.3 118.5 30.6 118.9 31L119.5 31.7C119.6 31.8 119.7 31.9 119.7 31.9C119.7 31.9 119.7 31.9 119.8 31.9H133.6C135 31.9 136.1 33 136.1 34.4V50.7C136 52.1 134.9 53.2 133.5 53.2ZM108.7 31.4C107.9 31.4 107.2 32.1 107.2 32.9V50.8C107.2 51.6 107.9 52.3 108.7 52.3H133.5C134.3 52.3 135 51.6 135 50.8V34.4C135 33.6 134.3 32.9 133.5 32.9H119.7C119.3 32.9 119.1 32.8 118.8 32.5C118.8 32.5 118.7 32.4 118.7 32.3L118.1 31.6C117.9 31.4 117.6 31.2 117.3 31.2H108.7V31.4Z" fill="black"/>
<path d="M118.1 30.7C118 30.6 118 30.6 117.9 30.6H107.3C107 30.6 106.7 30.8 106.7 31.2V34.1H117.8C117.9 34.1 117.9 34.1 118 34L119.7 32.4L118.1 30.7Z" fill="#E0E0E0"/>
<path d="M117.9 34.6H106.8C106.5 34.6 106.3 34.4 106.3 34.1V31.2C106.3 30.6 106.8 30.1 107.4 30.1H118C118.2 30.1 118.4 30.2 118.6 30.4L120.2 32.1C120.3 32.2 120.3 32.3 120.3 32.4C120.3 32.5 120.2 32.7 120.1 32.8L118.4 34.4C118.2 34.5 118.1 34.6 117.9 34.6ZM107.3 33.6H117.8L119 32.4L117.8 31.1H107.3V33.6Z" fill="black"/>
<path d="M183.1 36.3C183.1 35.2 182.2 34.3 181.1 34.3H167.3C166.8 34.3 167 34.2 166.7 33.9L166.1 33.2C165.8 32.9 165.3 32.7 164.9 32.7H156.3C155.2 32.7 154.3 33.6 154.3 34.7V37.3V38.9V52.6C154.3 53.7 155.2 54.6 156.3 54.6H181.1C182.2 54.6 183.1 53.7 183.1 52.6V38.8V37.4V36.3V36.3Z" fill="#C4C4C4"/>
<path d="M165.7 32.6C165.6 32.5 165.6 32.5 165.5 32.5H154.9C154.6 32.5 154.3 32.7 154.3 33.1V36H165.4C165.5 36 165.5 36 165.6 35.9L167.3 34.3L165.7 32.6Z" fill="#E0E0E0"/>
<path d="M180.4 34.4C180.4 33.3 179.5 32.4 178.4 32.4H164.6C164.1 32.4 164.3 32.3 164 32L163.4 31.3C163.1 31 162.6 30.8 162.2 30.8H153.6C152.5 30.8 151.6 31.7 151.6 32.8V35.4V37V50.7C151.6 51.8 152.5 52.7 153.6 52.7H178.4C179.5 52.7 180.4 51.8 180.4 50.7V36.9V35.5V34.4V34.4Z" fill="#F0F0F0"/>
<path d="M178.5 53.2H153.7C152.3 53.2 151.2 52.1 151.2 50.7V32.8C151.2 31.4 152.3 30.3 153.7 30.3H162.3C162.9 30.3 163.5 30.6 163.9 31L164.5 31.7C164.6 31.8 164.7 31.9 164.7 31.9C164.7 31.9 164.7 31.9 164.8 31.9H178.6C180 31.9 181.1 33 181.1 34.4V50.7C180.9 52.1 179.8 53.2 178.5 53.2ZM153.6 31.4C152.8 31.4 152.1 32.1 152.1 32.9V50.8C152.1 51.6 152.8 52.3 153.6 52.3H178.4C179.2 52.3 179.9 51.6 179.9 50.8V34.4C179.9 33.6 179.2 32.9 178.4 32.9H164.6C164.2 32.9 164 32.8 163.7 32.5C163.7 32.5 163.6 32.4 163.6 32.3L163 31.6C162.8 31.4 162.5 31.2 162.2 31.2H153.6V31.4Z" fill="black"/>
<path d="M163.1 30.7C163 30.6 163 30.6 162.9 30.6H152.3C152 30.6 151.7 30.8 151.7 31.2V34.1H162.8C162.9 34.1 162.9 34.1 163 34L164.7 32.4L163.1 30.7Z" fill="#E0E0E0"/>
<path d="M162.8 34.6H151.7C151.4 34.6 151.2 34.4 151.2 34.1V31.2C151.2 30.6 151.7 30.1 152.3 30.1H162.9C163.1 30.1 163.3 30.2 163.5 30.4L165.1 32.1C165.2 32.2 165.2 32.3 165.2 32.4C165.2 32.5 165.1 32.7 165 32.8L163.3 34.4C163.2 34.5 163 34.6 162.8 34.6ZM152.2 33.6H162.7L163.9 32.4L162.7 31.1H152.2V33.6Z" fill="black"/>
<path d="M227.3 36.3C227.3 35.2 226.4 34.3 225.3 34.3H211.5C211 34.3 211.2 34.2 210.9 33.9L210.3 33.2C210 32.9 209.5 32.7 209.1 32.7H200.5C199.4 32.7 198.5 33.6 198.5 34.7V37.3V38.9V52.6C198.5 53.7 199.4 54.6 200.5 54.6H225.3C226.4 54.6 227.3 53.7 227.3 52.6V38.8V37.4V36.3V36.3Z" fill="#C4C4C4"/>
<path d="M209.9 32.6C209.8 32.5 209.8 32.5 209.7 32.5H199.1C198.8 32.5 198.5 32.7 198.5 33.1V36H209.6C209.7 36 209.7 36 209.8 35.9L211.5 34.3L209.9 32.6Z" fill="#E0E0E0"/>
<path d="M224.6 34.4C224.6 33.3 223.7 32.4 222.6 32.4H208.8C208.3 32.4 208.5 32.3 208.2 32L207.6 31.3C207.3 31 206.8 30.8 206.4 30.8H197.8C196.7 30.8 195.8 31.7 195.8 32.8V35.4V37V50.7C195.8 51.8 196.7 52.7 197.8 52.7H222.6C223.7 52.7 224.6 51.8 224.6 50.7V36.9V35.5V34.4V34.4Z" fill="#F0F0F0"/>
<path d="M222.7 53.2H197.9C196.5 53.2 195.4 52.1 195.4 50.7V32.8C195.4 31.4 196.5 30.3 197.9 30.3H206.5C207.1 30.3 207.7 30.6 208.1 31L208.7 31.7C208.8 31.8 208.9 31.9 208.9 31.9C208.9 31.9 208.9 31.9 209 31.9H222.8C224.2 31.9 225.3 33 225.3 34.4V50.7C225.1 52.1 224 53.2 222.7 53.2ZM197.9 31.4C197.1 31.4 196.4 32.1 196.4 32.9V50.8C196.4 51.6 197.1 52.3 197.9 52.3H222.7C223.5 52.3 224.2 51.6 224.2 50.8V34.4C224.2 33.6 223.5 32.9 222.7 32.9H208.9C208.5 32.9 208.3 32.8 208 32.5C208 32.5 207.9 32.4 207.9 32.3L207.3 31.6C207.1 31.4 206.8 31.2 206.5 31.2H197.9V31.4Z" fill="black"/>
<path d="M207.3 30.7C207.2 30.6 207.2 30.6 207.1 30.6H196.5C196.2 30.6 195.9 30.8 195.9 31.2V34.1H207C207.1 34.1 207.1 34.1 207.2 34L208.9 32.4L207.3 30.7Z" fill="#E0E0E0"/>
<path d="M207 34.6H195.9C195.6 34.6 195.4 34.4 195.4 34.1V31.2C195.4 30.6 195.9 30.1 196.5 30.1H207C207.2 30.1 207.4 30.2 207.6 30.4L209.2 32.1C209.3 32.2 209.3 32.3 209.3 32.4C209.3 32.5 209.2 32.7 209.1 32.8L207.4 34.4C207.4 34.5 207.2 34.6 207 34.6ZM196.4 33.6H207L208.2 32.4L207 31.1H196.5L196.4 33.6Z" fill="black"/>
<path d="M138.1 68.1C138.1 67 137.2 66.1 136.1 66.1H122.3C121.8 66.1 122 66 121.7 65.7L121.1 65C120.8 64.7 120.3 64.5 119.9 64.5H111.3C110.2 64.5 109.3 65.4 109.3 66.5V69.1V70.7V84.4C109.3 85.5 110.2 86.4 111.3 86.4H136.1C137.2 86.4 138.1 85.5 138.1 84.4V70.6V69.2V68.1V68.1Z" fill="#C4C4C4"/>
<path d="M120.8 64.5C120.7 64.4 120.7 64.4 120.6 64.4H110C109.7 64.4 109.4 64.6 109.4 65V67.9H120.5C120.6 67.9 120.6 67.9 120.7 67.8L122.4 66.2L120.8 64.5Z" fill="#E0E0E0"/>
<path d="M135.5 66.2C135.5 65.1 134.6 64.2 133.5 64.2H119.7C119.2 64.2 119.4 64.1 119.1 63.8L118.5 63.1C118.2 62.8 117.7 62.6 117.3 62.6H108.7C107.6 62.6 106.7 63.5 106.7 64.6V67.2V68.8V82.5C106.7 83.6 107.6 84.5 108.7 84.5H133.5C134.6 84.5 135.5 83.6 135.5 82.5V68.7V67.3V66.2V66.2Z" fill="#F0F0F0"/>
<path d="M133.5 85H108.7C107.3 85 106.2 83.9 106.2 82.5V64.6C106.2 63.2 107.3 62.1 108.7 62.1H117.3C117.9 62.1 118.5 62.4 118.9 62.8L119.5 63.5C119.6 63.6 119.6 63.7 119.7 63.7C119.7 63.7 119.7 63.7 119.8 63.7H133.6C135 63.7 136.1 64.8 136.1 66.2V82.5C136 83.9 134.9 85 133.5 85ZM108.7 63.2C107.9 63.2 107.2 63.9 107.2 64.7V82.6C107.2 83.4 107.9 84.1 108.7 84.1H133.5C134.3 84.1 135 83.4 135 82.6V66.2C135 65.4 134.3 64.7 133.5 64.7H119.7C119.3 64.7 119.1 64.6 118.8 64.3C118.8 64.3 118.7 64.2 118.7 64.1L118.1 63.4C117.9 63.2 117.6 63 117.3 63H108.7V63.2Z" fill="black"/>
<path d="M118.1 62.6C118 62.5 118 62.5 117.9 62.5H107.3C107 62.5 106.7 62.7 106.7 63.1V66H117.8C117.9 66 117.9 66 118 65.9L119.7 64.3L118.1 62.6Z" fill="#E0E0E0"/>
<path d="M117.9 66.4H106.8C106.5 66.4 106.3 66.2 106.3 65.9V63C106.3 62.4 106.8 61.9 107.4 61.9H118C118.2 61.9 118.4 62 118.6 62.2L120.2 63.9C120.3 64 120.3 64.1 120.3 64.2C120.3 64.3 120.2 64.5 120.1 64.6L118.4 66.2C118.2 66.3 118.1 66.4 117.9 66.4ZM107.3 65.4H117.8L119 64.2L117.8 62.9H107.3V65.4Z" fill="black"/>
<path d="M183.1 68.1C183.1 67 182.2 66.1 181.1 66.1H167.3C166.8 66.1 167 66 166.7 65.7L166.1 65C165.8 64.7 165.3 64.5 164.9 64.5H156.3C155.2 64.5 154.3 65.4 154.3 66.5V69.1V70.7V84.4C154.3 85.5 155.2 86.4 156.3 86.4H181.1C182.2 86.4 183.1 85.5 183.1 84.4V70.6V69.2V68.1V68.1Z" fill="#C4C4C4"/>
<path d="M165.7 64.5C165.6 64.4 165.6 64.4 165.5 64.4H154.9C154.6 64.4 154.3 64.6 154.3 65V67.9H165.4C165.5 67.9 165.5 67.9 165.6 67.8L167.3 66.2L165.7 64.5Z" fill="#E0E0E0"/>
<path d="M180.4 66.2C180.4 65.1 179.5 64.2 178.4 64.2H164.6C164.1 64.2 164.3 64.1 164 63.8L163.4 63.1C163.1 62.8 162.6 62.6 162.2 62.6H153.6C152.5 62.6 151.6 63.5 151.6 64.6V67.2V68.8V82.5C151.6 83.6 152.5 84.5 153.6 84.5H178.4C179.5 84.5 180.4 83.6 180.4 82.5V68.7V67.3V66.2V66.2Z" fill="#F0F0F0"/>
<path d="M178.5 85H153.7C152.3 85 151.2 83.9 151.2 82.5V64.6C151.2 63.2 152.3 62.1 153.7 62.1H162.3C162.9 62.1 163.5 62.4 163.9 62.8L164.5 63.5C164.6 63.6 164.6 63.7 164.7 63.7C164.7 63.7 164.7 63.7 164.8 63.7H178.6C180 63.7 181.1 64.8 181.1 66.2V82.5C180.9 83.9 179.8 85 178.5 85ZM153.6 63.2C152.8 63.2 152.1 63.9 152.1 64.7V82.6C152.1 83.4 152.8 84.1 153.6 84.1H178.4C179.2 84.1 179.9 83.4 179.9 82.6V66.2C179.9 65.4 179.2 64.7 178.4 64.7H164.6C164.2 64.7 164 64.6 163.7 64.3C163.7 64.3 163.6 64.2 163.6 64.1L163 63.4C162.8 63.2 162.5 63 162.2 63H153.6V63.2Z" fill="black"/>
<path d="M163.1 62.6C163 62.5 163 62.5 162.9 62.5H152.3C152 62.5 151.7 62.7 151.7 63.1V66H162.8C162.9 66 162.9 66 163 65.9L164.7 64.3L163.1 62.6Z" fill="#E0E0E0"/>
<path d="M162.8 66.4H151.7C151.4 66.4 151.2 66.2 151.2 65.9V63C151.2 62.4 151.7 61.9 152.3 61.9H162.9C163.1 61.9 163.3 62 163.5 62.2L165.1 63.9C165.2 64 165.2 64.1 165.2 64.2C165.2 64.3 165.1 64.5 165 64.6L163.3 66.2C163.2 66.3 163 66.4 162.8 66.4ZM152.2 65.4H162.7L163.9 64.2L162.7 62.9H152.2V65.4Z" fill="black"/>
<path d="M227.3 68.1C227.3 67 226.4 66.1 225.3 66.1H211.5C211 66.1 211.2 66 210.9 65.7L210.3 65C210 64.7 209.5 64.5 209.1 64.5H200.5C199.4 64.5 198.5 65.4 198.5 66.5V69.1V70.7V84.4C198.5 85.5 199.4 86.4 200.5 86.4H225.3C226.4 86.4 227.3 85.5 227.3 84.4V70.6V69.2V68.1V68.1Z" fill="#C4C4C4"/>
<path d="M209.9 64.5C209.8 64.4 209.8 64.4 209.7 64.4H199.1C198.8 64.4 198.5 64.6 198.5 65V67.9H209.6C209.7 67.9 209.7 67.9 209.8 67.8L211.5 66.2L209.9 64.5Z" fill="#E0E0E0"/>
<path d="M224.6 66.2C224.6 65.1 223.7 64.2 222.6 64.2H208.8C208.3 64.2 208.5 64.1 208.2 63.8L207.6 63.1C207.3 62.8 206.8 62.6 206.4 62.6H197.8C196.7 62.6 195.8 63.5 195.8 64.6V67.2V68.8V82.5C195.8 83.6 196.7 84.5 197.8 84.5H222.6C223.7 84.5 224.6 83.6 224.6 82.5V68.7V67.3V66.2V66.2Z" fill="#F0F0F0"/>
<path d="M222.7 85H197.9C196.5 85 195.4 83.9 195.4 82.5V64.6C195.4 63.2 196.5 62.1 197.9 62.1H206.5C207.1 62.1 207.7 62.4 208.1 62.8L208.7 63.5C208.8 63.6 208.8 63.7 208.9 63.7C208.9 63.7 208.9 63.7 209 63.7H222.8C224.2 63.7 225.3 64.8 225.3 66.2V82.5C225.1 83.9 224 85 222.7 85ZM197.9 63.2C197.1 63.2 196.4 63.9 196.4 64.7V82.6C196.4 83.4 197.1 84.1 197.9 84.1H222.7C223.5 84.1 224.2 83.4 224.2 82.6V66.2C224.2 65.4 223.5 64.7 222.7 64.7H208.9C208.5 64.7 208.3 64.6 208 64.3C208 64.3 207.9 64.2 207.9 64.1L207.3 63.4C207.1 63.2 206.8 63 206.5 63H197.9V63.2Z" fill="black"/>
<path d="M207.3 62.6C207.2 62.5 207.2 62.5 207.1 62.5H196.5C196.2 62.5 195.9 62.7 195.9 63.1V66H207C207.1 66 207.1 66 207.2 65.9L208.9 64.3L207.3 62.6Z" fill="#E0E0E0"/>
<path d="M207 66.4H195.9C195.6 66.4 195.4 66.2 195.4 65.9V63C195.4 62.4 195.9 61.9 196.5 61.9H207C207.2 61.9 207.4 62 207.6 62.2L209.2 63.9C209.3 64 209.3 64.1 209.3 64.2C209.3 64.3 209.2 64.5 209.1 64.6L207.4 66.2C207.4 66.3 207.2 66.4 207 66.4ZM196.4 65.4H207L208.2 64.2L207 63H196.5L196.4 65.4Z" fill="black"/>
<path d="M121.2 48.7C124.182 48.7 126.6 46.2823 126.6 43.3C126.6 40.3177 124.182 37.9 121.2 37.9C118.218 37.9 115.8 40.3177 115.8 43.3C115.8 46.2823 118.218 48.7 121.2 48.7Z" fill="#39AE7F"/>
<path d="M121.2 49.2C117.9 49.2 115.3 46.5 115.3 43.3C115.3 40.1 118 37.4 121.2 37.4C124.4 37.4 127.1 40.1 127.1 43.3C127.1 46.5 124.4 49.2 121.2 49.2ZM121.2 38.3C118.5 38.3 116.3 40.5 116.3 43.2C116.3 45.9 118.5 48.1 121.2 48.1C123.9 48.1 126.1 45.9 126.1 43.2C126.1 40.5 123.9 38.3 121.2 38.3Z" fill="black"/>
<path d="M159.5 47.8H173L166 37.8L159.5 47.8Z" fill="#FFDB66"/>
<path d="M173 48.3H159.5C159.3 48.3 159.1 48.2 159.1 48C159 47.8 159 47.6 159.1 47.5L165.5 37.5C165.6 37.4 165.7 37.3 165.9 37.3C166.1 37.3 166.2 37.4 166.3 37.5L173.3 47.5C173.4 47.7 173.4 47.9 173.3 48C173.2 48.1 173.2 48.3 173 48.3ZM160.4 47.3H172L166 38.7L160.4 47.3Z" fill="black"/>
<path d="M215.4 37.9H205.9V47.4H215.4V37.9Z" fill="#B2D6FF"/>
<path d="M215.4 47.9H206C205.7 47.9 205.5 47.7 205.5 47.4V37.9C205.5 37.6 205.7 37.4 206 37.4H215.4C215.7 37.4 215.9 37.6 215.9 37.9V47.4C215.9 47.7 215.6 47.9 215.4 47.9ZM206.4 46.9H214.8V38.4H206.4V46.9Z" fill="black"/>
<path d="M120.9 68.3L122.8 72.3L127.2 73L124 76.1L124.8 80.5L120.9 78.4L116.9 80.5L117.7 76.1L114.5 73L118.9 72.3L120.9 68.3Z" fill="#FFDB66"/>
<path d="M116.9 81C116.8 81 116.7 81 116.6 80.9C116.4 80.8 116.4 80.6 116.4 80.4L117.1 76.3L114.1 73.4C114 73.3 113.9 73.1 114 72.9C114.1 72.7 114.2 72.6 114.4 72.6L118.5 72L120.4 68.2C120.6 67.9 121.1 67.9 121.3 68.2L123.2 72L127.3 72.6C127.5 72.6 127.6 72.8 127.7 72.9C127.8 73.1 127.7 73.3 127.6 73.4L124.6 76.3L125.3 80.4C125.3 80.6 125.3 80.8 125.1 80.9C124.9 81 124.7 81 124.6 80.9L120.9 78.9L117.2 80.9C117.1 80.9 117 81 116.9 81ZM120.9 77.9C121 77.9 121.1 77.9 121.1 78L124.1 79.6L123.5 76.2C123.5 76 123.5 75.9 123.6 75.8L126.1 73.4L122.7 72.9C122.5 72.9 122.4 72.8 122.3 72.6L120.8 69.5L119.3 72.6C119.2 72.7 119.1 72.8 118.9 72.9L115.5 73.4L118 75.8C118.1 75.9 118.2 76.1 118.1 76.2L117.5 79.6L120.5 78C120.7 77.9 120.8 77.9 120.9 77.9Z" fill="black"/>
<path d="M161.5 71.9H171L173.9 78.4H159.2L161.5 71.9Z" fill="#E0E0E0"/>
<path d="M173.9 78.9H159.2C159 78.9 158.9 78.8 158.8 78.7C158.7 78.6 158.7 78.4 158.7 78.2L161 71.7C161.1 71.5 161.3 71.4 161.5 71.4H171.1C171.3 71.4 171.5 71.5 171.6 71.7L174.4 78.2C174.5 78.4 174.5 78.5 174.4 78.7C174.3 78.9 174 78.9 173.9 78.9ZM159.9 77.9H173.1L170.7 72.4H161.8L159.9 77.9Z" fill="black"/>
<path d="M218 71.1H203.4V78.6H218V71.1Z" fill="#0072ED"/>
<path d="M218 79.1H203.4C203.1 79.1 202.9 78.9 202.9 78.6V71.1C202.9 70.8 203.1 70.6 203.4 70.6H218C218.3 70.6 218.5 70.8 218.5 71.1V78.6C218.5 78.8 218.2 79.1 218 79.1ZM203.9 78.1H217.5V71.6H203.9V78.1Z" fill="black"/>
<path d="M36.3 65.4C38.6 60.5 52.4 56.6 53.7 59.4C55 62.4 42.8 67.2 39.9 67.7C37 68.2 43.7 63.3 49 62.5C54.3 61.7 54.4 64.8 49.7 67.9C45 71 40.6 71.7 42.2 69.9C42.8 69.2 52.2 65.2 53.6 67.7C54.7 69.6 48.2 73.6 45.3 74C42.4 74.4 52.2 67.6 54.4 70.2C55.8 71.9 49.7 74.8 49.3 75.7C48.9 76.6 51.1 75.8 52.6 75.2C54.6 74.4 55 75.3 53.5 76.3C52 77.3 50.9 78 51.5 78.3C52.1 78.6 54.6 76.9 54.6 77.7C54.6 78.5 53.2 79.1 53.5 79.7C53.8 80.4 55.3 82.7 55.3 82.7" fill="white"/>
<path d="M55.2 83.1C55 83.1 54.9 83 54.8 82.9C54.6 82.7 53.3 80.5 53 79.8C52.7 79.2 53.2 78.6 53.6 78.3C53.7 78.2 53.8 78.1 53.9 78C53.7 78.1 53.4 78.2 53.2 78.3C52.3 78.7 51.7 78.9 51.2 78.7C50.9 78.6 50.8 78.3 50.8 78.1C50.8 77.5 51.5 77 53.2 75.8C53.5 75.6 53.7 75.4 53.8 75.3C53.6 75.3 53.3 75.4 52.8 75.6C49.9 76.8 49.3 76.6 49 76.3C48.9 76.2 48.7 75.9 48.9 75.5C49.1 75.1 49.6 74.7 50.8 73.9C52 73.1 54 71.7 54.1 70.8C54.1 70.7 54.1 70.6 54 70.5C53.8 70.3 53.5 70.2 53.2 70.1C51.4 72.1 47.3 74.2 45.3 74.5C44.6 74.6 44.3 74.3 44.2 74.1C43.9 73.2 46.1 71.7 47.4 70.9C48.3 70.4 50.7 69.1 52.7 69.1C52.8 68.9 52.9 68.8 53 68.6C53.1 68.3 53.2 68.1 53.1 67.9C53 67.6 52.6 67.5 52.1 67.4C51.9 67.4 51.6 67.4 51.3 67.4C50.9 67.7 50.4 68.1 49.9 68.4C46.6 70.6 42.4 72.1 41.5 71.1C41.3 70.9 41.1 70.4 41.8 69.6C42.4 68.9 47.6 66.7 51 66.4C52.4 65.2 52.8 64.2 52.6 63.7C52.5 63.5 52.3 63.3 51.9 63.2C48.3 65.7 41.8 68.1 40 68.4C39.7 68.5 39.2 68.5 38.9 68.1C38.7 67.9 38.7 67.6 38.8 67.4C39.3 66 44.8 62.8 49 62.2C50.2 62 51.1 62 51.7 62.2C52.4 61.7 52.9 61.2 53.1 60.7C53.4 60.2 53.3 59.9 53.2 59.9C53 59.5 52.3 59.3 51.2 59.3H51.1C46.8 59.3 38.4 62.4 36.8 66C36.7 66.3 36.4 66.4 36.1 66.2C35.9 66.1 35.7 65.8 35.9 65.5C37.8 61.5 46.5 58.3 51.1 58.3H51.2C52.8 58.3 53.8 58.7 54.1 59.5C54.3 59.9 54.4 60.5 53.9 61.2C53.6 61.7 53.2 62.1 52.7 62.6C53.1 62.9 53.3 63.2 53.4 63.5C53.7 64.4 53.3 65.5 52.3 66.6C53.1 66.7 53.6 67.1 53.9 67.6C54.1 67.9 54.2 68.5 53.8 69.2C53.8 69.3 53.7 69.3 53.7 69.4C54 69.5 54.3 69.7 54.6 70C54.9 70.3 55 70.7 54.9 71.1C54.7 72.3 53.2 73.5 51.1 74.9C50.7 75.1 50.3 75.4 50 75.7C50.4 75.6 51.1 75.4 52.1 74.9C53.8 74.2 54.3 74.7 54.5 75C54.6 75.3 54.8 76 53.4 76.9C53 77.2 52.5 77.5 52.1 77.8C52.2 77.7 52.4 77.7 52.5 77.6C53.4 77.2 54 77 54.5 77.3C54.7 77.4 54.8 77.6 54.8 77.9C54.8 78.5 54.4 78.9 54.1 79.3C54 79.4 53.7 79.7 53.7 79.8C53.9 80.3 55.1 82.1 55.5 82.8C55.6 83 55.6 83.3 55.3 83.5C55.4 83.1 55.3 83.1 55.2 83.1ZM51.5 70C49.3 70.5 46.6 72.2 45.6 73.2C47.3 72.8 49.9 71.4 51.5 70ZM42.4 70.2C43.2 70.3 45.9 69.6 49.2 67.5C46.3 68.2 42.9 69.7 42.5 70.1C42.5 70.2 42.4 70.2 42.4 70.2ZM50.3 62.8C49.9 62.8 49.5 62.8 49.1 62.9C45.5 63.4 41.3 65.9 40.1 67.1C42 66.7 47.1 64.8 50.3 62.8Z" fill="black"/>
<path d="M256.4 193H0.5C0.2 193 0 192.8 0 192.5C0 192.2 0.2 192 0.5 192H256.4C256.7 192 256.9 192.2 256.9 192.5C256.9 192.8 256.7 193 256.4 193Z" fill="black"/>
<path d="M56.9 128L58.5 134.4L59.5 132.7C59.6 132.7 59.1 129.9 56.9 128Z" fill="black"/>
<path d="M97.3 157.4C97.3 157.4 70.6 151.3 70 150.3C69.4 149.2 60 132.2 60 132.2L68.5 128.1L75.7 144.5L98.5 152C98.5 152 101.4 149.7 102.9 149.8C104.5 149.9 107.7 149.1 108 150.1C108.2 151.1 106.1 151.5 105.3 151.7C104.8 151.8 104.2 152.6 104.2 152.6C104.2 152.6 106.1 153.4 108.1 153.9C110.1 154.4 111.2 154.8 112 155.4C112.5 155.8 112.4 156.9 111.3 156.9C111.3 156.9 112.1 157 112.1 157.6C112.1 158.2 111.6 158.7 111.1 158.6C111.1 158.6 111.3 158.8 111.2 159.3C111 160.2 110.3 160.2 110.3 160.2C110.3 160.2 110.2 160.8 109.9 161.1C109.1 162 106.3 161.4 103.9 160.5C101.1 159.7 97.3 157.4 97.3 157.4Z" fill="#FFF0EB"/>
<path d="M108.5 162.2C107.4 162.2 105.8 161.9 103.8 161.2C101.1 160.3 97.7 158.2 97.1 157.9C84.8 155.1 70.1 151.6 69.5 150.5C68.9 149.4 59.6 132.6 59.5 132.4C59.4 132.3 59.4 132.1 59.5 132C59.5 131.9 59.6 131.8 59.8 131.7L68.3 127.6C68.4 127.5 68.6 127.5 68.7 127.6C68.8 127.6 68.9 127.7 69 127.9L76 144L98.4 151.4C99.1 150.8 101.4 149.2 102.9 149.2C102.9 149.2 102.9 149.2 103 149.2C103.4 149.2 104 149.2 104.7 149.1C106.5 148.9 108.3 148.8 108.5 149.9C108.6 150.2 108.5 150.5 108.4 150.8C107.9 151.5 106.7 151.8 105.6 152.1H105.5C105.4 152.1 105.3 152.2 105.2 152.3C105.9 152.6 107.2 153 108.4 153.3C110.5 153.8 111.7 154.2 112.5 154.9C112.9 155.2 113.1 155.8 112.9 156.4C112.8 156.6 112.7 156.8 112.6 156.9C112.7 157.1 112.8 157.3 112.8 157.5C112.8 158 112.6 158.4 112.2 158.7C112.1 158.8 112 158.8 111.9 158.9C111.9 159 111.9 159.2 111.9 159.3C111.8 160.1 111.3 160.4 110.9 160.6C110.8 160.8 110.7 161.2 110.5 161.4C110 162 109.4 162.2 108.5 162.2ZM70.4 150C71.7 150.9 87.6 154.7 97.4 156.9C97.5 156.9 97.5 156.9 97.6 157C97.6 157 101.4 159.3 104.1 160.2C107.4 161.3 109.2 161.4 109.6 160.9C109.7 160.7 109.8 160.4 109.9 160.2C109.9 160 110.1 159.8 110.4 159.8C110.5 159.8 110.8 159.7 110.9 159.3C110.9 159 110.9 158.9 110.9 158.9C110.8 158.7 110.8 158.5 110.9 158.4C111 158.2 111.2 158.1 111.4 158.2C111.4 158.2 111.5 158.2 111.6 158.1C111.7 158 111.8 157.8 111.8 157.6C111.8 157.5 111.6 157.4 111.4 157.4C111.1 157.4 111 157.1 111 156.9C111 156.6 111.2 156.4 111.5 156.4C111.7 156.4 111.9 156.4 112 156.2C112.1 156 112 155.9 111.9 155.8C111.2 155.2 110.1 154.9 108.1 154.4C106.1 153.9 104.2 153.1 104.1 153.1C104 153 103.9 152.9 103.8 152.8C103.8 152.7 103.8 152.5 103.9 152.4C104 152.2 104.6 151.4 105.3 151.2H105.4C105.9 151.1 107.3 150.8 107.6 150.4C107.4 150 105.7 150.2 104.8 150.3C104.1 150.4 103.5 150.4 103 150.4C101.8 150.4 99.7 151.9 98.9 152.5C98.8 152.6 98.6 152.6 98.4 152.6L75.6 145.1C75.5 145.1 75.4 145 75.3 144.8L68.3 128.9L60.7 132.6C62.2 135.1 69.6 148.6 70.4 150Z" fill="black"/>
<path d="M62.6 116.6C62.6 116.6 64.6 117.8 66.3 121.4C68.8 126.7 73.4 138.2 73.4 138.2L64.9 141.9C64.9 141.9 58.8 128.9 56.1 127.1" fill="url(#paint2_linear)"/>
<path d="M64.9 142.5C64.7 142.5 64.5 142.4 64.4 142.2C62.7 138.6 57.9 129.1 55.8 127.7C55.6 127.5 55.5 127.2 55.7 127C55.9 126.8 56.2 126.7 56.4 126.9C58.9 128.6 64.1 139.1 65.2 141.4L72.8 138.1C71.9 135.9 68.1 126.3 65.9 121.7C64.3 118.3 62.4 117.1 62.4 117.1C62.2 117 62.1 116.6 62.2 116.4C62.3 116.2 62.7 116.1 62.9 116.2C63 116.3 65 117.5 66.8 121.3C69.3 126.5 73.8 138.1 73.9 138.2C74 138.5 73.9 138.7 73.6 138.8L65.1 142.5C65 142.5 65 142.5 64.9 142.5Z" fill="black"/>
<path d="M111.3 156.9C110.9 156.9 110.7 157 108.5 156.4C106.3 155.8 105.9 155.6 105.9 155.6" fill="#FFF0EB"/>
<path d="M111.3 157.4H111.2C110.9 157.4 110.4 157.4 108.4 156.8C106.2 156.2 105.7 156 105.6 155.9C105.4 155.8 105.3 155.5 105.4 155.2C105.5 155 105.8 154.9 106.1 155C106.1 155 106.6 155.2 108.6 155.8C110.5 156.3 110.9 156.3 111.2 156.3H111.3C111.6 156.3 111.8 156.5 111.8 156.8C111.8 157.2 111.6 157.4 111.3 157.4Z" fill="black"/>
<path d="M111.2 158.6C111.2 158.6 110.9 158.6 109 158.3C107.1 158 105.2 157.1 105.2 157.1" fill="#FFF0EB"/>
<path d="M111.2 159.1C111.2 159.1 111.1 159.1 111.2 159.1C111.1 159.1 110.8 159.1 109 158.8C107.1 158.5 105.1 157.6 105 157.6C104.7 157.5 104.6 157.2 104.8 156.9C104.9 156.6 105.2 156.5 105.5 156.7C105.5 156.7 107.5 157.6 109.2 157.8C111 158.1 111.4 158.1 111.4 158.1C111.7 158.1 111.9 158.4 111.8 158.7C111.7 159 111.4 159.1 111.2 159.1Z" fill="black"/>
<path d="M110.4 160.2C110.4 160.2 108.8 160.1 107 159.7C105.2 159.3 104.9 159.1 104.9 159.1" fill="#FFF0EB"/>
<path d="M110.4 160.7C110.3 160.7 108.7 160.6 106.9 160.2C105.2 159.8 104.7 159.6 104.6 159.5C104.4 159.3 104.3 159 104.5 158.8C104.7 158.6 105 158.5 105.2 158.7C105.2 158.7 105.6 158.9 107.2 159.2C108.9 159.6 110.5 159.7 110.6 159.7C110.9 159.7 111.1 160 111.1 160.2C110.9 160.5 110.6 160.7 110.4 160.7Z" fill="black"/>
<path d="M66.5 108.5H66.4C66.1 108.4 66 108.2 66 107.9C66.3 106.5 66 105.4 66 105.4C65.9 105.1 66.1 104.9 66.3 104.8C66.6 104.7 66.8 104.9 66.9 105.1C66.9 105.2 67.3 106.5 66.9 108.2C67 108.3 66.8 108.5 66.5 108.5Z" fill="black"/>
<path d="M183.2 156.8H163.6V192.4H183.2V156.8Z" fill="white"/>
<path d="M183.2 192.9H163.6C163.3 192.9 163.1 192.7 163.1 192.4V156.8C163.1 156.5 163.3 156.3 163.6 156.3H183.2C183.5 156.3 183.7 156.5 183.7 156.8V192.4C183.7 192.7 183.5 192.9 183.2 192.9ZM164.1 191.9H182.7V157.3H164.1V191.9Z" fill="black"/>
<path d="M173.4 159.2C178.812 159.2 183.2 158.17 183.2 156.9C183.2 155.63 178.812 154.6 173.4 154.6C167.988 154.6 163.6 155.63 163.6 156.9C163.6 158.17 167.988 159.2 173.4 159.2Z" fill="white"/>
<path d="M173.4 159.7C169.8 159.7 163.1 159.1 163.1 156.9C163.1 154.7 169.8 154.1 173.4 154.1C177 154.1 183.7 154.7 183.7 156.9C183.7 159.1 177 159.7 173.4 159.7ZM173.4 155.1C167.3 155.1 164.1 156.4 164.1 156.9C164.1 157.4 167.3 158.7 173.4 158.7C179.5 158.7 182.7 157.4 182.7 156.9C182.7 156.4 179.5 155.1 173.4 155.1Z" fill="black"/>
</g>
<defs>
<linearGradient id="paint0_linear" x1="69.5458" y1="119.922" x2="33.6996" y2="148.151" gradientUnits="userSpaceOnUse">
<stop offset="0.0259811" stop-color="#F3F4F6"/>
<stop offset="0.9245" stop-color="#E0E0E0"/>
</linearGradient>
<linearGradient id="paint1_linear" x1="57.9633" y1="112.138" x2="42.774" y2="147.441" gradientUnits="userSpaceOnUse">
<stop offset="0.0259811" stop-color="#F3F4F6"/>
<stop offset="0.9245" stop-color="#E0E0E0"/>
</linearGradient>
<linearGradient id="paint2_linear" x1="71.0342" y1="127.578" x2="26.9189" y2="138.257" gradientUnits="userSpaceOnUse">
<stop offset="0.0259811" stop-color="#F3F4F6"/>
<stop offset="0.9245" stop-color="#E0E0E0"/>
</linearGradient>
<clipPath id="clip0">
<rect width="256.9" height="193" fill="white"/>
</clipPath>
</defs>
</svg>
