<svg width="249" height="193" viewBox="0 0 249 193" fill="none" xmlns="http://www.w3.org/2000/svg">
<g clip-path="url(#clip0)">
<path d="M107.6 165.5H51.6V192.5H107.6V165.5Z" fill="#E0E0E0"/>
<path d="M107.6 193H51.6C51.3 193 51.1 192.8 51.1 192.5V165.5C51.1 165.2 51.3 165 51.6 165H107.6C107.9 165 108.1 165.2 108.1 165.5V192.5C108.1 192.8 107.9 193 107.6 193ZM52.1 192H107.1V166H52.1V192V192Z" fill="black"/>
<path d="M111 165.7H68.5V192.5H111V165.7Z" fill="#F0F0F0"/>
<path d="M111 193H68.5C68.2 193 68 192.8 68 192.5V165.7C68 165.4 68.2 165.2 68.5 165.2H111C111.3 165.2 111.5 165.4 111.5 165.7V192.5C111.5 192.8 111.3 193 111 193ZM69 192H110.5V166.2H69V192Z" fill="black"/>
<path d="M93.8 165.7L102.8 156.4H120L111 165.7H93.8Z" fill="#E0E0E0"/>
<path d="M111 166.2H93.8C93.6 166.2 93.4 166.1 93.3 165.9C93.2 165.7 93.3 165.5 93.4 165.4L102.4 156.1C102.5 156 102.6 155.9 102.8 155.9H120C120.2 155.9 120.4 156 120.5 156.2C120.6 156.4 120.5 156.6 120.4 156.7L111.4 166C111.3 166.1 111.1 166.2 111 166.2ZM95 165.2H110.8L118.8 156.9H103L95 165.2Z" fill="black"/>
<path d="M55.1 165.7C55.1 165.7 63.8 163.6 65.8 161.1C67.9 158.6 65.5 156 65 155.3C64.5 154.6 63 154.7 62.3 152.4C61.6 150.1 62.5 149.7 61.4 148.8C60.3 147.9 58.5 149.5 57 147.8C55.5 146.1 55.6 145 54.1 144.1C52.7 143.2 50.2 142.7 50.3 140.7C50.4 138.7 51.2 136.6 50.4 135.1C49.6 133.7 39.5 129.8 39.1 125C38.8 120.1 43 116.7 44 113.6C44.9 110.5 42.6 107.9 40.5 107C38.4 106.1 34.5 105.3 34.4 102.8C34.3 100.2 35.3 100.2 35.5 97.8C35.7 95.4 34.7 91.5 30.9 89.4C27.1 87.3 22.9 86.3 21.5 81.7C19.5 75.2 22.5 72.1 24.7 69.9C26.9 67.7 27.4 66 27.7 63.9C28 61.8 26 55.6 27.9 50.3C29.8 45 33.7 43.9 35.1 40.5C36.5 37.1 32.9 27.6 36.8 21.5C40.7 15.4 45.5 12.8 52.1 12.6C58.1 12.5 61.9 16.4 65 15C68.1 13.6 72.1 5.4 76.7 2.7C82.7 -0.800003 90.5 -0.200003 96.9 4.1C103.3 8.4 107.7 10.1 112.1 10.2C116.4 10.3 121.9 7.6 128.1 11.5C132.9 14.5 130.8 21.6 135.4 25.2C140 28.8 145.6 32.2 147.7 37.6C151 46.2 147.9 48.8 145.8 56.5C143.7 64.2 147.3 65.1 149.5 69.2C151.7 73.3 151 83.7 144.6 86.4C137.3 89.5 133.2 92.2 136.5 98.9C142 106.4 135.4 106.2 134.7 108.5C133 113.9 139 114.4 135.7 121.1C132.4 127.8 127 122.3 124.5 131.9C122.1 141.1 114.3 136.3 111.8 137.4C109.7 138.3 108.7 141.5 110.3 144.4C111.8 147.3 111 148.8 110.3 149.7C108.6 151.8 107 152.6 106.4 156.9C106 160.3 103.5 158.5 103.3 160.9C103.1 163.3 108.5 165.6 108.5 165.6H55.1V165.7Z" fill="white"/>
<path d="M108.6 166.2H51L55 165.2C55.1 165.2 63.5 163.1 65.5 160.8C66.9 159.1 66 157.3 64.8 155.8C64.7 155.7 64.7 155.6 64.6 155.6C64.5 155.5 64.3 155.3 64 155.2C63.3 154.8 62.4 154.3 61.8 152.6C61.5 151.5 61.5 150.8 61.5 150.3C61.5 149.7 61.5 149.6 61.1 149.2C60.8 148.9 60.4 149 59.7 149C58.8 149.1 57.6 149.2 56.6 148.1C55.9 147.3 55.5 146.7 55.2 146.1C54.8 145.4 54.5 145 53.8 144.5C53.5 144.3 53 144.1 52.6 143.9C51.3 143.3 49.6 142.5 49.7 140.7C49.7 140.1 49.8 139.4 49.9 138.8C50.1 137.5 50.3 136.3 49.8 135.4C49.6 135.1 48.3 134.3 47.1 133.6C43.8 131.6 38.7 128.7 38.5 125.1C38.3 121.8 40 119.2 41.5 117C42.3 115.8 43 114.7 43.4 113.6C44.3 110.7 41.9 108.4 40.2 107.6C39.8 107.4 39.3 107.2 38.7 107C36.6 106.2 33.9 105.3 33.8 102.9C33.7 101.4 34.1 100.6 34.4 99.9C34.6 99.3 34.9 98.8 35 97.8C35.2 95.8 34.4 92 30.6 89.9C29.9 89.5 29.1 89.1 28.4 88.8C25.2 87.3 22.2 85.8 21 81.9C18.9 75 22.3 71.7 24.3 69.6C26.3 67.6 26.8 66.1 27.2 63.9C27.3 63.3 27.2 62.2 27 60.9C26.6 57.9 26.1 53.9 27.4 50.2C28.5 47.1 30.3 45.4 31.9 43.9C33.1 42.8 34.1 41.8 34.7 40.4C35.2 39.2 35 37 34.8 34.5C34.4 30.4 34 25.2 36.4 21.3C40.2 15.2 45.2 12.3 52.1 12.2C55.2 12.1 57.7 13.1 59.7 13.9C61.8 14.7 63.4 15.3 64.8 14.7C66.1 14.1 67.8 11.9 69.6 9.6C71.6 6.9 74 3.9 76.5 2.4C82.7 -1.2 90.6 -0.600001 97.3 3.9C103.4 8 107.8 9.8 112.2 9.9C113.4 9.9 114.7 9.7 116 9.5C119.7 9 123.8 8.3 128.4 11.3C131 13 131.7 15.7 132.4 18.4C133 20.9 133.6 23.4 135.8 25C136.6 25.6 137.4 26.2 138.2 26.8C142.3 29.8 146.5 33 148.3 37.6C150.8 44.2 149.7 47.4 148.1 51.8C147.6 53.2 147 54.9 146.5 56.8C145 62.2 146.4 64 148.2 66.3C148.9 67.1 149.6 68 150.2 69.2C151.7 72 151.8 77.1 150.4 81C149.3 84 147.5 86.1 145.1 87.1C140.5 89.1 137.4 90.8 136.5 93.3C135.9 94.8 136.2 96.7 137.3 99C139 101.3 139.7 103.2 139.5 104.7C139.2 106.2 138 107 137 107.6C136.3 108 135.7 108.4 135.6 108.9C134.9 111.1 135.6 112.4 136.4 113.8C137.4 115.6 138.5 117.6 136.6 121.5C135.1 124.7 133 125.3 131.1 125.8C128.9 126.5 126.7 127.1 125.4 132.2C123.6 139.2 118.6 138.5 115.3 138.1C114.1 137.9 113 137.8 112.5 138C111.7 138.4 111.1 139.1 110.8 140C110.4 141.3 110.5 142.9 111.2 144.2C112.9 147.3 112 149.1 111.1 150.1C110.7 150.5 110.4 150.9 110 151.3C108.7 152.7 107.7 153.8 107.3 157C107 159.2 105.9 159.6 105.1 159.9C104.5 160.1 104.2 160.2 104.1 161C104 162.5 107 164.4 109 165.2L111.2 166.2H108.6ZM58.7 165.2H106.6C104.9 164.2 102.9 162.7 103 160.9C103.1 159.5 104 159.2 104.6 159C105.3 158.7 105.9 158.5 106.1 157C106.6 153.4 107.8 152.1 109.1 150.7C109.4 150.3 109.8 150 110.1 149.6C110.8 148.7 111.4 147.4 110 144.8C109.1 143.2 109 141.4 109.5 139.8C109.9 138.6 110.7 137.6 111.8 137.2C112.6 136.8 113.8 137 115.2 137.2C118.5 137.7 122.6 138.2 124.2 132C125.6 126.4 128.1 125.6 130.6 124.9C132.4 124.4 134.1 123.9 135.5 121.1C137.2 117.7 136.3 116 135.3 114.3C134.5 112.8 133.6 111.2 134.4 108.6C134.7 107.8 135.4 107.3 136.2 106.8C137.1 106.2 138 105.6 138.2 104.5C138.4 103.3 137.7 101.6 136.2 99.5C134.9 96.9 134.6 94.7 135.3 92.9C136.3 90.1 139.6 88.2 144.5 86.2C147.2 85.1 148.6 82.5 149.3 80.6C150.8 76.5 150.3 71.9 149.1 69.6C148.5 68.5 147.9 67.7 147.2 66.9C145.4 64.6 143.7 62.5 145.3 56.6C145.8 54.6 146.4 53 147 51.5C148.6 47.1 149.6 44.2 147.2 38C145.5 33.6 141.4 30.6 137.4 27.6C136.6 27 135.8 26.4 135 25.8C132.6 23.9 131.9 21.2 131.3 18.6C130.6 16 130 13.6 127.8 12.1C123.5 9.4 119.6 10 116.1 10.5C114.7 10.7 113.3 10.9 112.1 10.9C107.5 10.8 102.9 8.9 96.7 4.7C90.4 0.399999 82.8 -0.100001 77 3.3C74.7 4.7 72.4 7.6 70.4 10.2C68.5 12.7 66.8 14.9 65.3 15.6C63.5 16.4 61.6 15.7 59.4 14.9C57.3 14.1 55 13.2 52.2 13.3C45.6 13.4 41 16.1 37.3 21.9C35.1 25.5 35.5 30.4 35.8 34.4C36 37.1 36.2 39.4 35.6 40.8C34.9 42.4 33.8 43.5 32.6 44.6C31 46.1 29.4 47.7 28.4 50.5C27.2 54 27.7 57.9 28 60.7C28.2 62.1 28.3 63.2 28.2 64C27.9 66.3 27.2 68.1 25.1 70.3C23.1 72.3 20.1 75.3 22 81.6C23.1 85.1 25.9 86.5 28.9 87.9C29.7 88.3 30.4 88.6 31.2 89C35.5 91.3 36.3 95.6 36.1 97.8C36 99 35.7 99.6 35.5 100.2C35.2 100.9 35 101.4 35 102.7C35.1 104.4 37.3 105.2 39.2 105.9C39.8 106.1 40.3 106.3 40.8 106.5C43.3 107.6 45.5 110.6 44.6 113.7C44.2 114.9 43.5 116.1 42.6 117.4C41.2 119.6 39.6 122 39.8 124.9C40 128 44.8 130.8 47.9 132.6C49.7 133.7 50.7 134.2 51 134.8C51.7 136 51.4 137.4 51.2 138.8C51.1 139.4 51 140 51 140.6C50.9 141.7 51.9 142.2 53.3 142.9C53.7 143.1 54.2 143.3 54.6 143.6C55.5 144.2 55.9 144.8 56.3 145.5C56.6 146 57 146.6 57.6 147.3C58.3 148.1 59 148 59.9 147.9C60.6 147.8 61.4 147.7 62 148.3C62.8 149 62.8 149.5 62.8 150.2C62.8 150.7 62.8 151.3 63.1 152.2C63.5 153.5 64.2 153.9 64.8 154.2C65.1 154.4 65.5 154.6 65.7 154.9L65.9 155.1C66.7 156.1 68.7 158.7 66.5 161.3C65 162.9 61.4 164.3 58.7 165.2Z" fill="black"/>
<path d="M68.4 165.7L58.7 156.4H40.7L51.6 165.7H68.4Z" fill="#E0E0E0"/>
<path d="M68.4 166.2H51.6C51.5 166.2 51.4 166.2 51.3 166.1L40.4 156.8C40.2 156.7 40.2 156.4 40.3 156.2C40.4 156 40.6 155.9 40.8 155.9H58.8C58.9 155.9 59.1 155.9 59.1 156L68.8 165.3C68.9 165.4 69 165.7 68.9 165.8C68.8 165.9 68.6 166.2 68.4 166.2ZM51.8 165.2H67.2L58.5 156.9H42L51.8 165.2Z" fill="black"/>
<path d="M74.2 165.7C74.2 165.7 79.8 164.5 79.6 161.2C79.4 158 75.3 158.5 74.8 154.7C74.3 151.3 80.4 148.6 75.8 145.9C69.3 142.1 73.5 139.8 66.9 136.3C62.5 134 62.5 126 65.4 120.9C68.5 115.4 61.9 117 58.7 109.1C56.4 103.5 57.7 100.7 58.2 98.7C60.3 90.7 46.5 93.7 49.8 83.7C52.4 75.9 40.6 75.3 46.3 66.6C51.5 58.8 41.4 52.6 46.5 46.3C50 41.9 54.9 43.9 57.9 40.5C60.9 37 63.5 26 77.9 26C86.5 26 88.2 30.8 92.8 31.7C97.3 32.6 106.8 27.2 113.7 31.7C119.5 35.5 116.7 42.4 119.5 46.5C122.3 50.6 124.9 48.4 127.9 51.7C130.9 54.9 127.9 61.4 129.6 64C131.3 66.6 134 65.9 134.6 70.5C135.1 74.7 127.6 75.5 130.1 82.5C132.6 89.5 124.5 88.1 123.7 93.9C122.7 100.5 117.3 98.3 113.4 101.1C105.6 106.7 105.7 108.2 108.4 114.4C111 120.2 100.3 124.2 99.7 127.8C98.8 133.2 103.6 135.5 98.9 139.2C94.6 142.6 87.9 147.7 90.5 152.3C93.4 157.6 87.5 157.4 89.4 160.6C91.3 163.8 94.6 165.5 94.6 165.5H74.2V165.7Z" fill="#F0F0F0"/>
<path d="M94.8 166.2H74.2C73.9 166.2 73.7 166 73.7 165.8C73.7 165.5 73.8 165.3 74.1 165.3C74.2 165.3 79.3 164.1 79.1 161.3C79 160 78.2 159.4 77.1 158.7C75.9 157.9 74.6 157 74.3 154.8C74.1 153.3 75 151.9 75.8 150.7C76.5 149.7 77.1 148.7 77 147.9C76.9 147.4 76.4 146.9 75.6 146.4C72.2 144.4 71.6 142.8 71 141.3C70.4 139.9 69.9 138.5 66.8 136.9C65.3 136.1 64.1 134.6 63.5 132.5C62.5 129 63.1 124.3 65.1 120.8C66.6 118.2 65.8 117.6 63.8 116.1C62.1 114.9 59.9 113.2 58.3 109.5C56.2 104.3 57 101.5 57.6 99.4C57.7 99.2 57.7 98.9 57.8 98.7C58.7 95.4 56.5 94.2 54 92.8C51 91.2 47.6 89.4 49.5 83.6C50.6 80.3 48.9 78.4 47.2 76.4C45.1 74.1 42.8 71.4 46.1 66.4C48.6 62.6 47.3 59.2 46.1 55.9C44.9 52.7 43.7 49.4 46.3 46.1C48.3 43.6 50.7 43.1 52.9 42.6C54.7 42.2 56.5 41.8 57.8 40.3C58.4 39.6 59 38.6 59.7 37.4C62.4 32.7 66.5 25.7 78 25.7C78.1 25.7 78.1 25.7 78.2 25.7C83.7 25.7 86.4 27.6 88.8 29.3C90.2 30.3 91.5 31.1 93.1 31.4C94.6 31.7 96.8 31.2 99.3 30.7C103.9 29.7 109.6 28.5 114.2 31.5C117.9 33.9 118.3 37.6 118.7 40.8C118.9 42.9 119.2 44.9 120.2 46.4C121.6 48.5 122.9 48.8 124.4 49.2C125.7 49.5 127.1 49.9 128.6 51.5C130.5 53.5 130.2 56.5 130 59.2C129.9 61.1 129.7 62.9 130.4 63.9C131 64.8 131.7 65.2 132.4 65.7C133.7 66.6 135 67.5 135.5 70.6C135.8 72.6 134.4 73.9 133.1 75.2C131.4 76.9 129.6 78.7 130.9 82.5C132.4 86.8 130.2 88.3 128.1 89.7C126.5 90.8 124.9 91.9 124.5 94.2C123.8 98.8 121 99.5 118.2 100.1C116.7 100.4 115.2 100.8 113.9 101.7C106.2 107.3 106.4 108.4 109.1 114.4C110.8 118.3 107.1 121.4 104.1 123.9C102.3 125.4 100.6 126.8 100.4 128C100 130 100.6 131.7 101.1 133.1C101.8 135.3 102.5 137.3 99.5 139.7L99 140.1C94.8 143.5 89 148.1 91.2 152.1C93 155.4 91.6 156.9 90.6 158C89.8 158.8 89.4 159.3 90.1 160.4C91.9 163.5 95.1 165.1 95.1 165.1C95.3 165.2 95.4 165.4 95.4 165.7C95.2 166 95 166.2 94.8 166.2ZM77.1 165.2H93.1C92 164.4 90.4 163 89.2 161C88.2 159.2 89.1 158.2 89.9 157.4C90.9 156.3 91.8 155.3 90.3 152.7C87.7 147.9 93.8 143 98.3 139.4L98.8 139C101.3 137 100.8 135.6 100.1 133.5C99.6 132 99 130.2 99.4 127.9C99.7 126.3 101.4 124.9 103.4 123.2C106.4 120.7 109.6 118 108.1 114.8C105.2 108.3 105.3 106.7 113.2 100.9C114.7 99.8 116.3 99.5 117.8 99.1C120.5 98.5 122.7 98 123.3 94C123.7 91.2 125.6 89.9 127.3 88.8C129.4 87.4 131 86.3 129.8 82.8C128.3 78.4 130.5 76.2 132.2 74.4C133.4 73.2 134.5 72.1 134.3 70.6C134 67.9 132.9 67.2 131.7 66.4C131 65.9 130.1 65.3 129.4 64.3C128.6 63 128.7 61.1 128.9 59C129.1 56.4 129.3 53.7 127.8 52.1C126.5 50.7 125.3 50.4 124.1 50.1C122.6 49.7 121 49.3 119.4 46.9C118.2 45.2 118 43.1 117.7 40.8C117.3 37.6 117 34.4 113.7 32.2C109.4 29.4 104.2 30.5 99.5 31.5C96.9 32.1 94.6 32.6 92.9 32.2C91.1 31.9 89.7 30.9 88.2 29.9C85.9 28.3 83.3 26.5 78.1 26.5C67 26.5 63.1 33.2 60.5 37.7C59.8 39 59.1 40 58.5 40.8C57 42.5 55 43 53.1 43.4C51 43.9 48.8 44.4 47.1 46.6C44.8 49.5 45.8 52.2 47 55.5C48.2 58.9 49.7 62.7 46.9 66.9C44 71.3 45.8 73.3 47.9 75.7C49.7 77.7 51.7 80 50.4 83.8C48.7 88.7 51.5 90.2 54.4 91.8C56.9 93.2 59.8 94.7 58.7 98.8C58.6 99 58.6 99.3 58.5 99.5C57.9 101.4 57.2 104 59.2 108.9C60.6 112.4 62.7 113.9 64.3 115.1C66.2 116.5 67.8 117.7 65.9 121.1C64 124.4 63.4 128.8 64.4 132.1C64.9 133.9 65.9 135.2 67.2 135.9C70.7 137.7 71.3 139.3 71.9 140.9C72.5 142.3 73 143.7 76.1 145.5C77.2 146.1 77.8 146.8 78 147.6C78.3 148.8 77.5 150 76.7 151.2C75.9 152.3 75.2 153.5 75.3 154.6C75.5 156.3 76.6 157 77.7 157.8C78.8 158.6 80 159.4 80.1 161.2C80.3 163.1 78.7 164.4 77.1 165.2Z" fill="black"/>
<path d="M78.6 59.5C79.2 57.2 77.9 52.6 83.2 51.7C87.8 50.9 89.6 54.5 92.3 54.1C95 53.7 98.1 52.4 100.3 54.2C102.7 56.1 101.1 58.9 102.8 61.4C104.5 63.9 108.3 64.9 108.7 68.5C109.1 73 104.1 74.7 103.1 76.3C102.1 77.9 103.3 83.4 100.4 84.8C96.3 86.8 94.3 84.9 91.2 86.2C88.1 87.5 86.6 89.7 83.6 90.4C79.7 91.4 75.6 88.7 75.6 82.9C75.6 78.3 73.7 79.9 70.4 76.1C67.8 73 67.8 67.7 72.5 65.1C75.7 63.4 78.1 61.7 78.6 59.5Z" fill="#E0E0E0"/>
<path d="M82.1 91.1C80.7 91.1 79.3 90.6 78.1 89.7C76.2 88.2 75.2 85.8 75.2 82.9C75.2 80.4 74.6 80 73.4 79.2C72.6 78.7 71.5 78 70.2 76.5C68.7 74.7 68 72.3 68.4 70C68.8 67.8 70.2 65.9 72.4 64.7C75.1 63.2 77.6 61.6 78.2 59.4C78.3 58.9 78.3 58.3 78.4 57.7C78.5 55.3 78.7 52 83.2 51.3C86 50.8 87.9 51.9 89.4 52.7C90.5 53.3 91.4 53.8 92.3 53.7C92.8 53.6 93.4 53.5 93.9 53.4C96.1 52.9 98.7 52.4 100.7 54C102.2 55.2 102.3 56.7 102.4 58.1C102.5 59.2 102.6 60.3 103.3 61.3C103.9 62.2 104.8 62.9 105.7 63.6C107.3 64.8 109 66.1 109.2 68.6C109.5 72.1 107 74 105.1 75.4C104.4 75.9 103.8 76.4 103.6 76.7C103.3 77.2 103.2 78.2 103.2 79.3C103.1 81.6 102.9 84.4 100.7 85.4C98.3 86.6 96.6 86.5 95 86.4C93.8 86.3 92.7 86.3 91.5 86.8C90.2 87.4 89.1 88.1 88.1 88.8C86.8 89.7 85.6 90.6 83.9 91C83.2 91.1 82.6 91.1 82.1 91.1ZM84.6 52C84.2 52 83.8 52 83.4 52.1C79.7 52.8 79.5 55.3 79.4 57.6C79.4 58.3 79.3 58.9 79.2 59.5C78.6 62.1 75.8 63.9 72.9 65.5C70.5 66.8 69.7 68.7 69.4 70.1C69 72.1 69.6 74.2 70.9 75.8C72.1 77.2 73.1 77.8 73.9 78.3C75.4 79.3 76.2 79.9 76.2 82.9C76.2 85.5 77.1 87.7 78.7 89C80 90 81.8 90.4 83.5 90C85 89.6 86.2 88.8 87.4 87.9C88.5 87.1 89.5 86.4 91 85.8C92.5 85.2 93.7 85.3 95 85.3C96.5 85.4 98 85.5 100.2 84.4C101.8 83.6 102 81.2 102.1 79.1C102.2 77.8 102.3 76.7 102.7 76C103 75.5 103.7 75 104.5 74.4C106.3 73.1 108.5 71.5 108.2 68.6C108 66.6 106.6 65.5 105.1 64.3C104.1 63.5 103.1 62.8 102.4 61.7C101.6 60.5 101.5 59.2 101.4 58C101.3 56.7 101.2 55.5 100 54.6C98.4 53.3 96.2 53.8 94.1 54.2C93.5 54.3 93 54.4 92.4 54.5C91.1 54.7 90 54.1 88.8 53.4C87.7 52.8 86.3 52 84.6 52Z" fill="black"/>
<path d="M248.9 192H0V193H248.9V192Z" fill="black"/>
<path d="M100.6 38.9L120.5 66C120.5 66 125.2 65.9 136.9 61.6C152.9 55.8 163.7 43.4 163.7 43.4L140 22.6C140 22.6 135.2 27.5 122.1 32.9C112 37.2 100.6 38.9 100.6 38.9Z" fill="white"/>
<path d="M120.5 66.6C120.3 66.6 120.2 66.5 120.1 66.4L100.2 39.3C100.1 39.2 100.1 39 100.1 38.8C100.1 38.6 100.3 38.5 100.5 38.5C100.6 38.5 112 36.7 122 32.6C134.8 27.3 139.7 22.4 139.7 22.4C139.9 22.2 140.2 22.2 140.4 22.4L164 43.1C164.2 43.3 164.2 43.6 164 43.8C163.9 43.9 152.9 56.3 137 62.1C125.5 66.4 120.7 66.6 120.5 66.6ZM101.5 39.3L120.8 65.6C121.9 65.5 126.8 64.9 136.8 61.3C150.9 56.1 161.1 45.7 163 43.6L140 23.3C138.7 24.5 133.6 28.7 122.3 33.4C113.8 37 104.3 38.8 101.5 39.3Z" fill="black"/>
<path d="M109.5 41.3L123.6 60.6C123.6 60.6 126.1 60.3 134.9 57.1C146.9 52.7 155.6 44.3 155.6 44.3L139 29.4C139 29.4 136.2 32.9 126.3 37C118.6 40.2 109.5 41.3 109.5 41.3Z" fill="#DEEDFF"/>
<path d="M123.6 61.1C123.4 61.1 123.3 61 123.2 60.9L109.1 41.6C109 41.5 109 41.3 109 41.1C109.1 40.9 109.2 40.8 109.4 40.8C109.5 40.8 118.5 39.7 126 36.6C135.6 32.6 138.5 29.1 138.5 29.1C138.6 29 138.7 28.9 138.8 28.9C138.9 28.9 139.1 28.9 139.2 29L155.8 43.9C155.9 44 156 44.1 156 44.3C156 44.5 155.9 44.6 155.8 44.7C155.7 44.8 146.9 53.2 135 57.6C126.4 60.7 123.8 61.1 123.6 61.1C123.6 61.1 123.7 61.1 123.6 61.1ZM110.4 41.7L123.8 60C124.7 59.8 127.7 59.1 134.7 56.6C145.1 52.8 153 46 154.8 44.3L139 30.1C138 31.1 134.6 34.1 126.4 37.5C120.2 40.1 112.9 41.3 110.4 41.7Z" fill="black"/>
<path d="M125.708 49.3158C127.583 48.3737 128.52 46.4498 127.801 45.0185C127.082 43.5873 124.979 43.1908 123.104 44.1329C121.229 45.075 120.291 46.999 121.01 48.4302C121.729 49.8614 123.832 50.2579 125.708 49.3158Z" fill="#FEEEB1"/>
<path d="M123.7 50.3C122.6 50.3 121.6 49.9 121 49.1C120.4 48.4 120.2 47.5 120.4 46.6C120.8 44.6 122.9 43.1 125.1 43C126.3 43 127.3 43.4 127.9 44.2C128.5 44.9 128.7 45.8 128.5 46.7C128.1 48.7 126 50.3 123.7 50.3C123.7 50.3 123.8 50.3 123.7 50.3ZM125.2 44.1C125.1 44.1 125.1 44.1 125.2 44.1C123.4 44.1 121.7 45.4 121.4 46.9C121.3 47.5 121.4 48.1 121.8 48.5C122.2 49 122.9 49.3 123.8 49.3C125.5 49.3 127.2 48 127.5 46.5C127.6 45.9 127.5 45.3 127.1 44.9C126.7 44.4 126 44.1 125.2 44.1Z" fill="black"/>
<path d="M123.6 60.6C123.6 60.6 131.4 53.7 135.9 44.2C140.4 34.7 139 29.4 139 29.4L155.6 44.3C155.6 44.3 151.6 48.5 144.1 53.1C136 57.9 123.6 60.6 123.6 60.6Z" fill="url(#paint0_linear)"/>
<path d="M123.6 61.1C123.4 61.1 123.2 61 123.2 60.8C123.1 60.6 123.1 60.3 123.3 60.2C123.4 60.1 131.1 53.3 135.5 44C139.8 34.8 138.5 29.6 138.5 29.5C138.4 29.3 138.5 29.1 138.7 28.9C138.9 28.8 139.1 28.8 139.3 29L155.9 43.9C156 44 156.1 44.1 156.1 44.3C156.1 44.4 156.1 44.6 156 44.7C156 44.7 151.8 49 144.4 53.5C136.4 58.4 123.9 61.1 123.8 61.1C123.7 61.1 123.6 61.1 123.6 61.1ZM139.6 30.7C139.8 32.9 139.5 37.6 136.3 44.4C133 51.5 127.7 57.2 125.3 59.7C129 58.8 137.7 56.3 143.8 52.6C149.9 48.9 153.7 45.4 154.9 44.3L139.6 30.7Z" fill="black"/>
<path d="M45.4 89.5L34 115.5C50.1 120.4 65.6 122.5 82.3 123.1L91.4 95.4C75.1 95.5 59.5 93.9 45.4 89.5Z" fill="white"/>
<path d="M82.4 123.7C63.8 123 48.9 120.6 33.9 116C33.8 116 33.7 115.9 33.6 115.7C33.5 115.6 33.5 115.4 33.6 115.3L45 89.3C45.1 89.1 45.4 89 45.6 89C58.6 93 73.6 94.9 91.5 95C91.7 95 91.8 95.1 91.9 95.2C92 95.3 92 95.5 92 95.6L82.9 123.3C82.8 123.6 82.6 123.7 82.4 123.7ZM34.8 115.2C49.4 119.6 64 121.9 82.1 122.6L90.8 96C73.3 95.9 58.5 94 45.7 90.1L34.8 115.2Z" fill="black"/>
<path d="M50.2001 95.9L43.0001 111.8C54.1001 115.2 65.6001 116.6 78.1001 117.2L84.0001 100.2C71.9001 100 60.5001 98.8 50.2001 95.9Z" fill="#DEEDFF"/>
<path d="M78 117.8C63.8 117.1 52.9 115.4 42.8 112.3C42.7 112.3 42.5 112.2 42.5 112C42.4 111.9 42.4 111.7 42.5 111.6L49.7 95.7C49.8 95.5 50.1 95.4 50.3 95.4C59.6 98 70.6001 99.4 83.8001 99.7C84.0001 99.7 84.1 99.8 84.2 99.9C84.3 100 84.3001 100.2 84.3001 100.3L78.4001 117.3C78.4001 117.6 78.2 117.8 78 117.8ZM43.6 111.5C53.4 114.4 63.9 116 77.6 116.7L83.1 100.7C70.2 100.3 59.5001 98.9 50.4001 96.5L43.6 111.5Z" fill="black"/>
<path d="M45.6001 106.3C45.9001 105.9 53.6001 101.2 53.6001 101.2L60.8001 111.8L68.9001 108.5L78.0001 117.3C78.0001 117.3 64.9001 116.9 58.2001 115.5C51.5001 114.1 43.0001 111.9 43.0001 111.9L45.6001 106.3Z" fill="url(#paint1_linear)"/>
<path d="M78 117.8C77.9 117.8 64.8 117.4 58.1 116C51.4 114.6 42.9 112.4 42.8 112.3C42.7 112.3 42.5 112.2 42.5 112C42.4 111.9 42.4 111.7 42.5 111.6L45.2 106C45.2 106 45.2 106 45.2 105.9C45.4 105.6 48.2 103.8 53.3 100.7C53.5 100.6 53.8 100.6 54 100.8L60.9001 111.1L68.6 107.9C68.8 107.8 69 107.9 69.1 108L78.2 116.8C78.3 116.9 78.4001 117.2 78.3001 117.4C78.4001 117.7 78.2 117.8 78 117.8ZM43.7 111.5C45.7 112 52.7 113.8 58.3 115C63.7 116.1 73.3 116.6 76.7 116.7L68.8001 109L61 112.2C60.8 112.3 60.5001 112.2 60.4001 112L53.5 101.8C50.7 103.5 46.6 106 46.1 106.5L43.7 111.5Z" fill="black"/>
<path d="M73.1754 107.373C74.9199 107.089 76.1689 105.843 75.9652 104.589C75.7614 103.335 74.182 102.548 72.4375 102.832C70.693 103.115 69.444 104.362 69.6477 105.615C69.8515 106.869 71.4309 107.656 73.1754 107.373Z" fill="#FEEEB1"/>
<path d="M72.5 107.9C71.8 107.9 71.2 107.8 70.7 107.5C69.9 107.1 69.4 106.5 69.3 105.7C69.1 104.2 70.5 102.7 72.5 102.4C74.5 102.1 76.3 103 76.5 104.5C76.7 106 75.3 107.5 73.3 107.8C73 107.9 72.7 107.9 72.5 107.9ZM73.1 103.3C72.9 103.3 72.7 103.3 72.5 103.3C71.1 103.5 70 104.5 70.2 105.5C70.3 105.9 70.6 106.3 71.1 106.6C71.7 106.9 72.4 107 73.1 106.9C74.5 106.7 75.6 105.7 75.4 104.7C75.3 103.9 74.3 103.3 73.1 103.3Z" fill="black"/>
<path d="M132.454 153.336L138.394 147.396L132.454 141.456L126.515 147.396L132.454 153.336Z" fill="#39AE7F"/>
<path d="M132.4 153.9C132.3 153.9 132.1 153.8 132 153.8L126.1 147.9C125.9 147.7 125.9 147.4 126.1 147.2L132 141.3C132.2 141.1 132.5 141.1 132.7 141.3L138.6 147.2C138.7 147.3 138.7 147.4 138.7 147.6C138.7 147.8 138.6 147.9 138.6 148L132.7 153.9C132.7 153.9 132.6 153.9 132.4 153.9ZM127.2 147.5L132.4 152.7L137.6 147.5L132.4 142.3L127.2 147.5Z" fill="black"/>
<path d="M107.7 81.1L115.4 90.9L119.8 79.4L107.7 81.1Z" fill="white"/>
<path d="M115.4 91.4C115.2 91.4 115.1 91.3 115 91.2L107.3 81.3C107.2 81.2 107.2 81 107.2 80.8C107.3 80.6 107.4 80.5 107.6 80.5L119.7 78.8C119.9 78.8 120 78.8 120.2 79C120.3 79.1 120.3 79.3 120.3 79.5L115.9 91C115.8 91.3 115.6 91.4 115.4 91.4ZM108.6 81.4L115.2 89.9L119 80L108.6 81.4Z" fill="black"/>
<path d="M19.3 106.6L18.9 114.1L26.1 110.2L19.3 106.6Z" fill="white"/>
<path d="M18.9 114.6C18.8 114.6 18.7 114.6 18.6 114.5C18.4 114.4 18.4 114.2 18.4 114.1L18.8 106.6C18.8 106.4 18.9 106.3 19.1 106.2C19.2 106.1 19.4 106.1 19.6 106.2L26.4 109.8C26.6 109.9 26.7 110.1 26.7 110.2C26.7 110.4 26.6 110.6 26.4 110.6L19.2 114.5C19.1 114.6 19 114.6 18.9 114.6ZM19.7 107.4L19.4 113.2L25 110.2L19.7 107.4Z" fill="black"/>
<path d="M61.6 24L63.2 29.8L68.8 31.8L63.8 35L63.6 41L59 37.2L53.2 38.9L55.4 33.3L52 28.4L58 28.7L61.6 24Z" fill="#FFDB66"/>
<path d="M63.6 41.5C63.5 41.5 63.4 41.5 63.3 41.4L58.9 37.8L53.4 39.4C53.2 39.4 53 39.4 52.9 39.3C52.8 39.2 52.7 39 52.8 38.8L54.9 33.5L51.7 28.8C51.6 28.6 51.6 28.4 51.7 28.3C51.8 28.1 52 28 52.2 28L57.9 28.3L61.4 23.8C61.5 23.6 61.7 23.6 61.9 23.6C62.1 23.6 62.2 23.8 62.3 24L63.8 29.5L69.2 31.4C69.4 31.5 69.5 31.6 69.5 31.8C69.5 32 69.4 32.2 69.3 32.3L64.5 35.4L64.1 41C64.1 41.2 64 41.4 63.8 41.4C63.7 41.5 63.7 41.5 63.6 41.5ZM59 36.7C59.1 36.7 59.2 36.7 59.3 36.8L63.1 39.9L63.2 34.9C63.2 34.7 63.3 34.6 63.4 34.5L67.6 31.8L63 30.2C62.8 30.1 62.7 30 62.7 29.9L61.4 25.1L58.4 29C58.3 29.1 58.2 29.2 58 29.2L53 28.9L55.8 33C55.9 33.1 55.9 33.3 55.9 33.5L54.1 38.1L58.9 36.7C58.9 36.7 58.9 36.7 59 36.7Z" fill="black"/>
<path d="M159.2 89.3L158.1 94.2L161.5 97.8L156.6 98.2L154.1 102.5L152.2 98L147.3 97.1L151.1 93.8L150.5 88.9L154.7 91.4L159.2 89.3Z" fill="#FFDB66"/>
<path d="M154.1 103C153.9 103 153.7 102.9 153.6 102.7L151.7 98.4L147.1 97.5C146.9 97.5 146.8 97.3 146.7 97.1C146.7 96.9 146.7 96.7 146.9 96.6L150.4 93.5L149.8 88.9C149.8 88.7 149.9 88.5 150 88.4C150.2 88.3 150.4 88.3 150.5 88.4L154.5 90.8L158.7 88.8C158.9 88.7 159.1 88.7 159.2 88.9C159.3 89 159.4 89.2 159.4 89.4L158.4 94L161.6 97.4C161.7 97.5 161.8 97.7 161.7 97.9C161.6 98.1 161.5 98.2 161.3 98.2L156.6 98.6L154.3 102.7C154.5 103 154.3 103 154.1 103ZM148.4 96.8L152.3 97.6C152.5 97.6 152.6 97.7 152.7 97.9L154.3 101.5L156.2 98.1C156.3 98 156.4 97.9 156.6 97.8L160.5 97.4L157.8 94.5C157.7 94.4 157.6 94.2 157.7 94.1L158.6 90.3L155 91.9C154.8 92 154.7 92 154.5 91.9L151.1 89.9L151.6 93.8C151.6 94 151.6 94.1 151.4 94.2L148.4 96.8Z" fill="black"/>
<path d="M61.5 69.3L45 78.9C43.9 79.5 42.6 79.2 41.9 78.1L32.3 61.6C31.7 60.5 32 59.2 33.1 58.5L49.6 49C50.7 48.4 52 48.7 52.7 49.8L62.3 66.3C62.9 67.3 62.5 68.7 61.5 69.3Z" fill="#02345E"/>
<path d="M43.8 79.7C43.6 79.7 43.3 79.7 43.1 79.6C42.4 79.4 41.8 79 41.4 78.3L31.8 61.8C31 60.5 31.5 58.8 32.8 58.1L49.3 48.5C50.6 47.7 52.3 48.2 53 49.5L62.7 66C63.1 66.6 63.2 67.4 63 68.1C62.8 68.8 62.4 69.4 61.7 69.8L45.2 79.4C44.8 79.6 44.3 79.7 43.8 79.7ZM50.7 49.2C50.4 49.2 50.1 49.3 49.8 49.4L33.4 59C32.6 59.5 32.3 60.5 32.8 61.4L42.4 77.9C42.9 78.7 43.9 79 44.8 78.5L61.3 68.9C61.7 68.7 62 68.3 62.1 67.8C62.2 67.3 62.2 66.9 61.9 66.5L52.2 50C51.9 49.5 51.3 49.2 50.7 49.2Z" fill="#011D35"/>
<path d="M45 70.6L40.6 63L42.8 61.7C43.6 61.2 44.2 61 44.5 60.9C44.9 60.8 45.4 60.9 45.9 61.1C46.4 61.3 46.8 61.7 47.1 62.4C47.4 62.9 47.5 63.3 47.6 63.7C47.6 64.1 47.6 64.5 47.5 64.8C47.4 65.1 47.2 65.4 47 65.6C46.7 65.9 46.3 66.2 45.7 66.5L44.7 67L46.4 69.9L45 70.6ZM42.7 63.6L43.9 65.7L44.6 65.3C45.1 65 45.5 64.7 45.6 64.6C45.7 64.4 45.8 64.2 45.8 64C45.8 63.8 45.7 63.5 45.6 63.3C45.4 63 45.2 62.8 45 62.7C44.8 62.6 44.5 62.6 44.3 62.7C44.1 62.8 43.8 62.9 43.3 63.2L42.7 63.6Z" fill="#39A6FB"/>
<path d="M49.8 65.7L50.9 64.7C51.1 64.9 51.4 65.1 51.6 65.2C51.9 65.3 52.1 65.2 52.4 65C52.7 64.8 52.9 64.6 53 64.4C53.1 64.2 53 64.1 52.9 63.9C52.8 63.8 52.8 63.7 52.7 63.7C52.6 63.7 52.4 63.7 52.2 63.8C51 64.1 50.2 64.3 49.8 64.2C49.2 64.1 48.8 63.8 48.5 63.3C48.2 62.8 48.2 62.3 48.3 61.8C48.4 61.3 48.9 60.8 49.6 60.4C50.3 60 50.8 59.9 51.3 59.9C51.8 60 52.2 60.2 52.6 60.6L51.5 61.6C51.3 61.4 51.1 61.3 50.9 61.3C50.7 61.3 50.5 61.3 50.2 61.5C49.9 61.7 49.7 61.9 49.6 62.1C49.5 62.2 49.6 62.4 49.6 62.5C49.7 62.6 49.8 62.7 49.9 62.7C50.1 62.7 50.5 62.6 51.3 62.4C52.1 62.2 52.7 62.1 53.1 62.2C53.5 62.3 53.9 62.6 54.1 63C54.4 63.5 54.5 64 54.3 64.6C54.1 65.2 53.7 65.7 53 66.1C52.3 66.5 51.7 66.6 51.2 66.6C50.7 66.5 50.2 66.2 49.8 65.7Z" fill="#39A6FB"/>
<path d="M121.1 126.7L103.3 120.6C102.1 120.2 101.5 118.9 101.9 117.8L108 100C108.4 98.8 109.7 98.2 110.8 98.6L128.6 104.7C129.8 105.1 130.4 106.4 130 107.5L123.9 125.3C123.5 126.4 122.3 127.1 121.1 126.7Z" fill="#570003"/>
<path d="M121.8 127.3C121.5 127.3 121.2 127.3 120.9 127.2L103.1 121.1C102.4 120.9 101.9 120.4 101.5 119.7C101.1 119 101.1 118.3 101.4 117.6L107.5 99.8C107.7 99.1 108.2 98.6 108.9 98.2C109.6 97.8 110.3 97.8 111 98.1L128.8 104.2C129.5 104.4 130 104.9 130.4 105.6C130.8 106.3 130.8 107 130.5 107.7L124.4 125.5C124 126.6 122.9 127.3 121.8 127.3ZM121.3 126.2C122.2 126.5 123.2 126 123.5 125.1L129.6 107.3C129.7 106.9 129.7 106.4 129.5 106C129.3 105.6 129 105.3 128.5 105.1L110.7 99C110.3 98.9 109.8 98.9 109.4 99.1C109 99.3 108.7 99.6 108.5 100.1L102.4 117.9C102.3 118.3 102.3 118.8 102.5 119.2C102.7 119.6 103 119.9 103.5 120.1L121.3 126.2Z" fill="#011D35"/>
<path d="M116.4 117L114.8 116.5V114.3L111.9 113.3L110.6 115.1L109 114.6L114.8 106.8L116.4 107.3V117ZM114.9 112.6L115 109L112.9 111.9L114.9 112.6Z" fill="#FE9D2C"/>
<path d="M117.9 117.5L120.1 111.1L121.5 111.6L119.3 118L117.9 117.5ZM120.4 110.3L120.9 108.7L122.3 109.2L121.8 110.8L120.4 110.3Z" fill="#FE9D2C"/>
<path d="M17.5 143.6C19.8196 143.6 21.7 141.72 21.7 139.4C21.7 137.08 19.8196 135.2 17.5 135.2C15.1804 135.2 13.3 137.08 13.3 139.4C13.3 141.72 15.1804 143.6 17.5 143.6Z" fill="#B2D6FF"/>
<path d="M17.5 144.2C14.9 144.2 12.8 142.1 12.8 139.5C12.8 136.9 14.9 134.8 17.5 134.8C20.1 134.8 22.2 136.9 22.2 139.5C22.2 142.1 20.1 144.2 17.5 144.2ZM17.5 135.7C15.4 135.7 13.8 137.4 13.8 139.4C13.8 141.5 15.5 143.1 17.5 143.1C19.6 143.1 21.2 141.4 21.2 139.4C21.2 137.4 19.5 135.7 17.5 135.7Z" fill="black"/>
<path d="M183.4 35.3C185.72 35.3 187.6 33.4196 187.6 31.1C187.6 28.7804 185.72 26.9 183.4 26.9C181.08 26.9 179.2 28.7804 179.2 31.1C179.2 33.4196 181.08 35.3 183.4 35.3Z" fill="white"/>
<path d="M183.4 35.8C180.8 35.8 178.7 33.7 178.7 31.1C178.7 28.5 180.8 26.4 183.4 26.4C186 26.4 188.1 28.5 188.1 31.1C188.1 33.7 186 35.8 183.4 35.8ZM183.4 27.3C181.3 27.3 179.7 29 179.7 31C179.7 33.1 181.4 34.7 183.4 34.7C185.5 34.7 187.1 33 187.1 31C187.2 29 185.5 27.3 183.4 27.3Z" fill="black"/>
<path d="M88.9 77.2C92.4899 77.2 95.4 74.2898 95.4 70.7C95.4 67.1101 92.4899 64.2 88.9 64.2C85.3102 64.2 82.4 67.1101 82.4 70.7C82.4 74.2898 85.3102 77.2 88.9 77.2Z" fill="#FEEEB1"/>
<path d="M88.9 77.6C85.1 77.6 81.9 74.5 81.9 70.6C81.9 66.7 85 63.6 88.9 63.6C92.8 63.6 95.9 66.7 95.9 70.6C95.9 74.5 92.8 77.6 88.9 77.6ZM88.9 64.7C85.6 64.7 82.9 67.4 82.9 70.7C82.9 74 85.6 76.7 88.9 76.7C92.2 76.7 94.9 74 94.9 70.7C94.9 67.4 92.2 64.7 88.9 64.7Z" fill="black"/>
<path d="M216.6 83.2C215.6 81.2 214.5 81.2 215.1 79.6C215.6 78.3 215.4 77.8 214.9 76.9C214 75.2 213.6 75.7 213.4 73.4C213.1 71.2 213.5 70 210.3 68.9C206.6 67.2 205 67.8 202.2 69.5C201.6 69.9 201.1 70.3 200.6 70.9C200 71.3 200.7 73.5 199.9 74.2C199.2 74.8 197.3 76.1 197.2 77.7C197.1 79.2 195.4 79.8 194.7 81.1C193.7 82.8 194 84.7 194.3 85.4C198.5 86.3 216.2 86.3 216.3 86.2C216.7 85.8 217.3 84.7 216.6 83.2Z" fill="#40588F"/>
<path d="M212.5 86.9C206.5 86.9 196 86.4 194.2 86C194 86 193.9 85.8 193.8 85.7C193.6 85.1 193.1 83 194.3 81C194.6 80.4 195.1 80 195.6 79.5C196.2 78.9 196.7 78.5 196.8 77.7C196.9 76.1 198.4 74.8 199.3 74.1L199.6 73.9C199.9 73.7 199.9 72.9 199.9 72.4C199.9 71.7 199.9 71.1 200.3 70.7C200.8 70.1 201.3 69.6 202 69.2C204.9 67.5 206.7 66.8 210.5 68.6C213.3 69.6 213.6 70.7 213.8 72.6C213.8 72.9 213.9 73.2 213.9 73.5C214.1 74.8 214.3 75.1 214.6 75.5C214.8 75.8 215.1 76.1 215.4 76.7C215.9 77.6 216.2 78.3 215.6 79.8C215.3 80.6 215.5 80.7 216 81.4C216.3 81.8 216.7 82.3 217.1 83C217.9 84.6 217.3 86 216.8 86.6C216.5 86.8 214.9 86.9 212.5 86.9ZM194.7 85.1C199 85.9 214 85.9 216 85.8C216.2 85.4 216.6 84.6 216.1 83.5C215.8 82.8 215.4 82.4 215.1 82C214.6 81.3 214.1 80.7 214.5 79.4C214.9 78.2 214.7 77.9 214.3 77.1C214 76.6 213.8 76.3 213.6 76C213.2 75.4 212.9 75 212.7 73.5C212.7 73.2 212.6 72.9 212.6 72.6C212.4 71 212.4 70.2 210 69.4C206.5 67.8 205.1 68.3 202.3 69.9C201.8 70.2 201.3 70.7 200.9 71.2L200.8 71.3C200.7 71.4 200.7 71.9 200.7 72.3C200.7 73.1 200.7 74.1 200.1 74.6L199.8 74.9C199 75.5 197.7 76.6 197.6 77.8C197.5 78.9 196.8 79.6 196.1 80.2C195.7 80.6 195.3 81 195 81.4C194.4 82.9 194.6 84.4 194.7 85.1Z" fill="black"/>
<path d="M191.1 83.1L184.3 77.9L199.7 74.3C199.7 74.3 202.3 74.3 202.8 73.3C203.3 72.3 204.1 69.3 204.6 68.7C204.7 68.5 207.2 68.4 207.9 68.2C208.2 68.1 208.4 67.3 207.9 67.1C207.1 66.8 204.9 66.7 204.2 66.8C203 67 199.8 70.1 199.8 70.1C199.6 70.2 178.8 72.7 176.9 73.4C175 74.1 173.8 76.3 175.4 78.6C178 82.4 186.3 88.6 186.2 88.7L191.1 83.1Z" fill="#FFF0EB"/>
<path d="M186 89.2C185.9 89.2 185.7 89.1 185.6 89C185.5 88.9 185 88.5 184.5 88.1C182 86.1 176.8 81.9 174.8 78.9C173.8 77.4 173.9 76.2 174.2 75.4C174.5 74.3 175.4 73.4 176.6 72.9C177.9 72.4 186.1 71.3 194.4 70.3C196.8 70 198.9 69.7 199.4 69.6C200 69 202.8 66.4 204 66.3C204.8 66.2 207.1 66.3 208 66.7C208.4 66.9 208.6 67.2 208.6 67.7C208.6 68.1 208.4 68.6 208 68.7C207.6 68.8 206.8 68.9 206 69C205.6 69 205.1 69.1 204.9 69.1C204.6 69.6 204.2 70.9 203.9 71.8C203.7 72.5 203.5 73.1 203.3 73.5C202.8 74.8 200.4 74.8 199.8 74.8L185.5 78.1L191.5 82.6C191.6 82.7 191.7 82.8 191.7 83C191.7 83.1 191.7 83.3 191.6 83.4L186.4 89L186.3 89.1C186.2 89.2 186.1 89.2 186 89.2ZM204.6 67.2C204.4 67.2 204.2 67.2 204.1 67.2C203.4 67.3 201.2 69.1 199.9 70.4C199.7 70.6 199.7 70.6 194.4 71.2C188.3 72 178.1 73.3 176.8 73.8C175.9 74.1 175.3 74.8 175 75.6C174.7 76.4 174.9 77.3 175.5 78.2C177.4 81 182.8 85.3 185 87.2C185.4 87.5 185.6 87.7 185.8 87.9L190.2 83.1L183.8 78.2C183.6 78.1 183.6 77.9 183.6 77.7C183.6 77.5 183.8 77.4 184 77.3L199.4 73.7H199.5C200.4 73.7 201.9 73.5 202.1 73C202.3 72.6 202.5 72 202.7 71.4C203.2 69.8 203.6 68.7 204 68.3C204.2 68.1 204.4 68 205.7 67.9C206.3 67.8 207.1 67.7 207.4 67.7C207.4 67.6 207.4 67.6 207.4 67.5C207.1 67.4 205.6 67.2 204.6 67.2Z" fill="black"/>
<path d="M199.3 88.8C197.4 85.5 193.3 84.3 188.3 80.7L183.2 86.6L192.9 95.5L199.3 88.8Z" fill="url(#paint2_linear)"/>
<path d="M192.9 96.1C192.8 96.1 192.7 96.1 192.6 96L182.9 87.1C182.7 86.9 182.7 86.6 182.9 86.4L188 80.5C188.2 80.3 188.5 80.3 188.7 80.4C190.4 81.6 192.1 82.6 193.6 83.4C196.4 85 198.7 86.3 199.9 88.6C200 88.8 200 89 199.8 89.2L193.4 96C193.1 96 193 96.1 192.9 96.1ZM183.9 86.6L192.9 94.9L198.7 88.7C197.5 86.8 195.5 85.7 192.9 84.2C191.5 83.4 190 82.5 188.3 81.4L183.9 86.6Z" fill="black"/>
<path d="M215.9 73.6C218.44 73.6 220.5 71.5405 220.5 69C220.5 66.4595 218.44 64.4 215.9 64.4C213.359 64.4 211.3 66.4595 211.3 69C211.3 71.5405 213.359 73.6 215.9 73.6Z" fill="#40588F"/>
<path d="M215.9 74.1C213.2 74.1 210.9 72 210.8 69.3C210.7 66.5 212.8 64.1 215.6 63.9C216.9 63.8 218.3 64.3 219.3 65.2C220.3 66.1 220.9 67.4 221 68.7C221.1 71.5 219 73.9 216.2 74.1C216.1 74.1 216 74.1 215.9 74.1ZM215.9 64.8C215.8 64.8 215.8 64.8 215.7 64.8C213.4 64.9 211.7 66.9 211.8 69.1C211.9 70.2 212.3 71.2 213.2 71.9C214 72.6 215.1 73 216.2 72.9C218.5 72.8 220.2 70.8 220.1 68.6C220 67.5 219.6 66.5 218.7 65.8C217.9 65.2 216.9 64.8 215.9 64.8Z" fill="black"/>
<path d="M202.2 77.9C201.4 80.9 200 86.6 196.9 89C196.2 89.6 195.6 93.5 196 94.2C196.7 95.2 202.4 91.5 203.8 92.2C204.6 92.6 205.4 93.6 205.9 92.6C205.2 88.7 205.5 85.1 207.5 81.6C207.9 80.7 207.5 79.7 206.5 79.5L205 79.2C204.4 79.1 202.4 77.3 202.2 77.9Z" fill="#FFF0EB"/>
<path d="M196.4 94.9C196 94.9 195.7 94.8 195.6 94.5C195 93.6 195.7 89.4 196.6 88.7C199.4 86.5 200.8 81.4 201.6 78.4L201.7 77.9C201.8 77.7 201.9 77.5 202.1 77.4C202.6 77.2 203.2 77.6 204.1 78.3C204.4 78.5 204.9 78.9 205.1 78.9L206.6 79.2C207.2 79.3 207.6 79.7 207.9 80.2C208.2 80.7 208.2 81.4 207.9 82C206 85.1 205.5 88.5 206.3 92.7C206.3 92.8 206.3 92.9 206.3 93C206.1 93.4 205.9 93.6 205.6 93.7C205.1 93.9 204.6 93.5 204.1 93.2C203.9 93.1 203.7 93 203.6 92.9C203.1 92.7 201.1 93.5 199.9 94C198.4 94.4 197.2 94.9 196.4 94.9ZM202.6 78.4L202.5 78.6C201.6 81.8 200.2 87.1 197.2 89.5C196.7 89.9 196.1 93.4 196.4 94C196.7 94.1 198.3 93.4 199.4 92.9C201.7 91.9 203.2 91.4 204 91.8C204.2 91.9 204.4 92.1 204.6 92.2C204.8 92.3 205.1 92.6 205.3 92.6C204.5 88.2 205.1 84.7 207 81.5C207.1 81.2 207.1 80.9 207 80.6C206.9 80.4 206.7 80.2 206.4 80.1L204.9 79.8C204.6 79.7 204.2 79.5 203.6 79.1C203.3 78.8 202.9 78.5 202.6 78.4Z" fill="black"/>
<path d="M200 84.7C200 84.7 200.9 85.9 202 85.9C203.7 86 205.8 85 205.8 85C205.8 85 206.7 83.1 206.5 82.7C206.3 82.3 204.3 82.4 204.2 82.3C204.1 82.3 202 81.7 202 81.7C202 81.7 201.4 81.1 201.2 81.3C201.1 81.4 200.7 82.5 200.4 83.5C199.9 84.8 200 84.7 200 84.7Z" fill="black"/>
<path d="M209.2 92.6C209 91.7 208.4 89.9 207.1 89C205.9 88.2 200.5 91 198.9 90.6C197.8 90.3 197.1 88.8 198.4 87.2C197.5 87.2 196.6 87.4 195.9 87.8C192.9 89.6 190.2 92.7 189.3 95.4C188.8 96.8 188.5 98.9 187.9 101C186.3 106.2 185.3 107.1 183.7 110.7C192.7 114 196.7 113.6 199.9 114.7C199.9 114.7 199.5 110.8 204.1 105C208.5 99.6 209.8 95.4 209.2 92.6Z" fill="url(#paint3_linear)"/>
<path d="M200 115.1C199.9 115.1 199.9 115.1 199.8 115.1C198.7 114.7 197.5 114.5 196 114.3C193.2 113.9 189.5 113.2 183.6 111.1C183.5 111.1 183.4 111 183.3 110.8C183.2 110.7 183.2 110.5 183.3 110.4C183.8 109.1 184.3 108.2 184.8 107.3C185.6 105.7 186.4 104.1 187.4 100.8C187.7 99.7 188 98.6 188.2 97.7C188.4 96.8 188.6 95.9 188.8 95.3C189.7 92.5 192.5 89.4 195.7 87.5C196.4 87.1 197.3 86.9 198.4 86.8C198.6 86.8 198.8 86.9 198.9 87.1C199 87.3 199 87.5 198.8 87.6C198.3 88.2 198.1 88.9 198.2 89.4C198.3 89.8 198.6 90.1 199 90.2C199.6 90.4 201.3 89.8 202.6 89.4C205 88.6 206.5 88.2 207.3 88.7C208.9 89.8 209.5 92.1 209.6 92.6C210.3 95.9 208.5 100.4 204.5 105.3C200.1 110.8 200.4 114.6 200.4 114.6C200.4 114.8 200.3 114.9 200.2 115C200.2 115.1 200.1 115.1 200 115.1ZM184.5 110.3C190 112.3 193.6 112.8 196.2 113.3C197.5 113.5 198.5 113.7 199.5 113.9C199.6 112.5 200.2 109.1 203.8 104.6C207.6 99.9 209.3 95.7 208.7 92.7C208.5 91.6 207.8 90.1 206.8 89.4C206.4 89.1 204.3 89.8 203 90.2C201.2 90.8 199.7 91.3 198.8 91C198.1 90.8 197.5 90.3 197.3 89.5C197.2 89.1 197.1 88.5 197.5 87.7C197 87.8 196.6 87.9 196.3 88.1C193.3 89.9 190.7 92.9 189.9 95.4C189.7 96 189.5 96.9 189.3 97.7C189.1 98.7 188.8 99.8 188.5 100.9C187.5 104.3 186.6 105.9 185.8 107.5C185.3 108.5 184.9 109.3 184.5 110.3Z" fill="black"/>
<path d="M200.1 72.5C200.1 72.5 199.3 74.2 198.6 74.9C197.8 75.8 198.5 76.9 198.4 77.4C198.3 78 197.4 78.7 197.1 79.8C196.9 80.4 197.9 81.5 197 82.7C196.2 83.9 198 85.4 198.4 86C198.4 86 197.8 83.5 198.7 82.6C199.7 81.5 198.5 80.6 199.3 79.7C199.7 79.2 200.4 78.4 200.6 77.7C200.8 77 200.8 76.3 201.7 75.8" fill="#40588F"/>
<path d="M198.4 86.5C198.2 86.5 198.1 86.4 198 86.3C197.9 86.2 197.8 86.1 197.7 85.9C197.1 85.2 195.9 83.8 196.7 82.5C197.1 81.9 197 81.4 196.8 80.8C196.7 80.4 196.6 80.1 196.7 79.7C196.9 79 197.3 78.4 197.6 78C197.8 77.7 197.9 77.5 198 77.3C198 77.3 198 77.1 197.9 76.9C197.8 76.3 197.5 75.4 198.3 74.6C198.8 74 199.5 72.7 199.7 72.3C199.8 72.1 200.1 72 200.4 72.1C200.7 72.2 200.7 72.5 200.6 72.8C200.6 72.9 199.7 74.6 199 75.4C198.6 75.8 198.7 76.2 198.8 76.8C198.9 77.1 198.9 77.4 198.9 77.6C198.8 77.9 198.6 78.2 198.4 78.6C198.1 79 197.8 79.5 197.7 80C197.7 80.1 197.7 80.3 197.8 80.5C198 81.1 198.2 82 197.6 83C197.4 83.4 197.5 83.8 197.9 84.3C197.9 83.5 198 82.7 198.5 82.2C198.9 81.8 198.8 81.5 198.7 81C198.6 80.5 198.5 79.9 199 79.3L199.2 79.1C199.5 78.7 200.1 78 200.2 77.5V77.4C200.3 76.7 200.5 75.8 201.5 75.3C201.7 75.2 202 75.3 202.2 75.5C202.3 75.7 202.2 76 202 76.2C201.4 76.5 201.3 77 201.2 77.6V77.7C201.1 78.4 200.4 79.2 200 79.7L199.8 79.9C199.6 80.2 199.6 80.4 199.7 80.8C199.8 81.3 199.9 82.1 199.2 82.8C198.7 83.3 198.8 84.9 199 85.7C199.1 85.9 198.9 86.2 198.7 86.3C198.5 86.5 198.4 86.5 198.4 86.5Z" fill="black"/>
<path d="M211.1 79.3C208.5 82.9 203.3 84 200.7 82.4C198.7 81.2 199.1 75.8 201.7 72.1C204.3 68.4 207.4 68.1 210.2 70.1C213 72.1 213.7 75.7 211.1 79.3Z" fill="#FFF0EB"/>
<path d="M203.6 83.7C202.4 83.7 201.3 83.4 200.4 82.9C199.7 82.5 199.2 81.7 199 80.6C198.5 78 199.4 74.5 201.3 72C203.9 68.4 207.3 67.6 210.5 69.9C212 71 213 72.5 213.2 74.2C213.4 76 212.8 77.9 211.5 79.7C209.5 82.3 206.3 83.7 203.6 83.7ZM206.8 69.5C205.1 69.5 203.6 70.5 202.1 72.5C200.2 75.1 199.6 78.4 200 80.4C200.2 81.2 200.5 81.8 200.9 82.1C203.3 83.6 208.1 82.6 210.6 79.1C211.8 77.5 212.3 75.8 212.1 74.3C211.9 72.9 211.1 71.6 209.8 70.7C208.8 69.8 207.8 69.5 206.8 69.5Z" fill="black"/>
<path d="M213 73.7C213 73.7 210.5 71.7 206.9 71.8C203.3 71.9 200.6 73.2 199.9 72.8C200.6 71.2 202.8 68.3 206.4 68.2C210.9 68 213.6 71.2 213 73.7Z" fill="#40588F"/>
<path d="M213 74.2C212.9 74.2 212.8 74.2 212.7 74.1C212.7 74.1 210.3 72.2 206.9 72.4C205.1 72.5 203.4 72.8 202.2 73.1C200.9 73.4 200.1 73.6 199.7 73.3C199.5 73.2 199.4 72.9 199.5 72.7C200.3 70.9 202.6 67.9 206.4 67.8C208.8 67.7 211 68.6 212.4 70.2C213.4 71.3 213.8 72.7 213.5 73.9C213.5 74.1 213.3 74.2 213.2 74.3C213.2 74.2 213.1 74.2 213 74.2ZM207.3 71.3C209.7 71.3 211.6 72.2 212.6 72.8C212.5 72.1 212.2 71.4 211.7 70.7C210.5 69.3 208.6 68.6 206.5 68.7C203.6 68.8 201.7 70.8 200.8 72.4C201.2 72.3 201.6 72.2 202.1 72.1C203.4 71.8 205.1 71.4 207 71.3C207 71.3 207.2 71.3 207.3 71.3Z" fill="black"/>
<path d="M205 69.7C204.9 69.9 205.5 72.8 208.7 77.5C210.3 79.8 209.7 80.6 209.7 80.6C209.7 80.6 215.3 77 212.2 71.8C210.5 69 205.5 68.7 205 69.7Z" fill="#40588F"/>
<path d="M209.7 81.1C209.6 81.1 209.4 81 209.3 80.9C209.1 80.7 209.1 80.4 209.3 80.3C209.3 80.3 209.5 79.6 208.3 77.8C205.3 73.4 204.3 70.1 204.6 69.5C204.9 68.9 205.8 68.7 206.5 68.7C208.2 68.6 211.3 69.3 212.7 71.6C216 77.1 210 81 210 81C209.9 81.1 209.8 81.1 209.7 81.1ZM205.5 69.9C205.6 70.5 206.3 73.1 209.1 77.2C209.8 78.2 210.1 79 210.2 79.5C211.5 78.3 213.9 75.6 211.8 72C210.8 70.4 208.7 69.7 207.2 69.6C206.2 69.6 205.7 69.8 205.5 69.9Z" fill="black"/>
<path d="M206.2 68.6C206.2 68.6 211.4 67.4 215 73.4C215.8 74.7 215.8 78.5 213.7 80.7C212.7 81.7 211.4 81 211.4 81L209 79.8C209 79.8 208.9 79.7 208.8 79.2C208.8 78.9 208.8 77.7 208.9 77.6C208.9 77.6 208.8 77.7 208.7 77.3C208.2 75 206.2 68.6 206.2 68.6Z" fill="#40588F"/>
<path d="M199.5 74.8C199.5 74.8 200.1 71.8 202.5 71.1C204.3 70.6 204.5 71.4 204.5 71.4L201.3 72.4C201.3 72.4 199.7 74.5 199.5 74.8Z" fill="#40588F"/>
<path d="M209.7 78.1C209.7 78.1 212 77.1 212.5 78.6C212.9 79.7 211.9 80.4 210.7 80.7C209.5 81 208.4 80.8 208.4 80.8" fill="#FFF0EB"/>
<path d="M209.4 81.3C208.8 81.3 208.3 81.2 208.3 81.2C208 81.2 207.8 80.9 207.9 80.6C207.9 80.3 208.2 80.2 208.5 80.2C208.5 80.2 209.6 80.4 210.7 80.1C211.4 80 211.9 79.7 212.1 79.3C212.2 79.1 212.2 78.9 212.1 78.6C212 78.4 211.9 78.3 211.8 78.2C211.3 78 210.3 78.3 210 78.4C209.7 78.5 209.5 78.4 209.3 78.1C209.2 77.8 209.3 77.6 209.6 77.4C209.8 77.3 211.2 76.7 212.2 77.2C212.6 77.4 212.9 77.7 213.1 78.2C213.3 78.7 213.2 79.3 213 79.7C212.6 80.5 211.7 80.8 211 80.9C210.3 81.3 209.8 81.3 209.4 81.3Z" fill="black"/>
<path d="M208.4 76.5C208.4 76.5 207.9 77.1 207.6 78C207.3 79.1 208 79.7 207.9 80.2C207.8 81 207 81.3 206.9 82.5C206.9 83.2 207.9 83.8 207.5 84.5C206.7 85.8 207.8 86.9 208.6 87.7C208.6 87.7 208 86.5 209 85.3C209.8 84.3 208.1 83.4 209 82.4C209.8 81.5 210.1 81.3 209.5 80.2C209 79.3 209.7 77.8 210.6 77.4" fill="#40588F"/>
<path d="M208.5 88.2C208.4 88.2 208.2 88.2 208.2 88.1C207.4 87.3 206.1 86 207.1 84.3C207.2 84.2 207.1 84 206.9 83.6C206.7 83.3 206.5 82.9 206.5 82.5C206.5 81.7 206.9 81.2 207.1 80.8C207.3 80.6 207.4 80.4 207.4 80.1C207.4 80.1 207.3 79.9 207.3 79.8C207.1 79.4 206.9 78.7 207.1 77.9C207.4 76.8 208 76.2 208 76.2C208.2 76 208.5 76 208.7 76.2C208.9 76.4 208.9 76.7 208.7 76.9C208.7 76.9 208.2 77.4 208 78.2C207.8 78.7 208 79.1 208.2 79.4C208.3 79.7 208.4 80 208.4 80.3C208.3 80.8 208.1 81.1 207.9 81.4C207.7 81.7 207.5 82 207.4 82.5C207.4 82.6 207.5 82.8 207.7 83C208 83.4 208.4 84 208 84.7C207.7 85.2 207.7 85.7 208 86.2C208.1 85.8 208.3 85.4 208.6 85C208.8 84.8 208.8 84.6 208.5 84.1C208.3 83.6 207.9 82.8 208.6 82.1L208.8 81.9C209.4 81.3 209.4 81.2 209 80.5C208.7 80 208.7 79.4 208.9 78.7C209.2 77.9 209.7 77.3 210.2 77C210.4 76.9 210.7 77 210.9 77.2C211 77.5 210.9 77.7 210.7 77.9C210.4 78 210 78.5 209.9 79C209.8 79.4 209.8 79.8 209.9 80C210.6 81.3 210.2 81.8 209.5 82.5L209.3 82.7C209.1 83 209.1 83.1 209.3 83.7C209.5 84.2 209.8 84.9 209.2 85.6C208.4 86.5 208.8 87.4 208.9 87.4C209 87.6 208.9 87.9 208.7 88C208.7 88.2 208.6 88.2 208.5 88.2Z" fill="black"/>
<path d="M207.3 71.4L201.8 72.2L203.8 71C203.8 71 204.2 69.5 204.3 69.4C205.5 68.2 208.2 68.3 208.3 68.8L207.9 69.8L208.2 71.1L207.3 71.4Z" fill="#40588F"/>
<path d="M215.9 75.5C215.6 75.5 215.4 75.3 215.4 75C215.4 74.9 215.3 72.1 212.1 70C210.6 69 207.6 68.3 205.4 68.8C205.1 68.9 204.9 68.7 204.8 68.4C204.7 68.1 204.9 67.9 205.2 67.8C207.8 67.1 211 68 212.7 69.1C216.4 71.5 216.5 74.8 216.5 74.9C216.4 75.2 216.2 75.5 215.9 75.5Z" fill="black"/>
<path d="M215.5 78.7C224.7 84.5 229.7 88 231.9 90C234.1 91.9 232.8 95.2 230.5 95.6C227.3 96.1 217.4 97.1 217.4 97.1L217.8 89.7H222.7L211.5 81.5C211.5 81.5 210.3 80.6 209.7 79.9C209.3 79.3 208.9 77.8 209.3 76.6C209.8 75.3 210 74.7 210.2 73.5C210.4 72.6 209.4 71 209.8 70.3C210.3 69.6 210.9 70.1 210.9 70.1C210.9 70.1 210.5 69 211.2 68.6C211.8 68.3 212.5 68.9 212.5 68.9C212.5 68.9 212.7 68.4 213.3 68.5C213.7 68.6 214.3 69 214.6 69.5C214.8 69.4 215.4 69.4 215.7 69.7C216.3 70.3 216.7 71.9 216.7 72.8C216.6 76.1 215.5 78.7 215.5 78.7Z" fill="#FFF0EB"/>
<path d="M217.5 97.7C217.4 97.7 217.2 97.7 217.2 97.6C217.1 97.5 217 97.4 217 97.2L217.4 89.8C217.4 89.5 217.6 89.3 217.9 89.3H221.3L211.3 82C211.2 82 210 81.1 209.4 80.3C208.9 79.6 208.4 77.9 209 76.5C209.5 75.2 209.7 74.7 209.9 73.5C210 73.2 209.8 72.7 209.7 72.2C209.5 71.4 209.2 70.6 209.7 70.1C210 69.7 210.3 69.6 210.6 69.5C210.6 69 210.7 68.5 211.3 68.2C211.8 68 212.3 68.1 212.7 68.2C212.9 68 213.2 67.9 213.7 68C214.3 68.1 214.8 68.6 215.1 69C215.5 69 216 69.1 216.4 69.4C217.1 70.1 217.6 71.8 217.5 72.8C217.3 75.4 216.7 77.6 216.4 78.5C224.4 83.5 230 87.4 232.5 89.6C233.6 90.6 234.1 92 233.7 93.4C233.3 94.8 232.2 95.8 230.9 96C227.5 96.7 217.9 97.6 217.5 97.7ZM218.3 90.3L218 96.6C220.2 96.4 227.8 95.6 230.5 95.2C231.4 95 232.2 94.3 232.5 93.3C232.8 92.2 232.5 91.2 231.6 90.5C229.8 88.9 225.5 85.7 215.2 79.3C215 79.2 214.9 78.9 215 78.7C215 78.7 216 76.1 216.2 72.9C216.2 72.2 215.8 70.7 215.4 70.2C215.3 70 215 70 215 70C214.9 70.1 214.8 70.1 214.7 70.1C214.6 70.1 214.5 70 214.4 69.9C214 69.4 213.6 69.1 213.4 69.1C213.3 69.1 213.2 69.1 213.2 69.2C213.1 69.3 213 69.5 212.8 69.5C212.6 69.5 212.5 69.5 212.4 69.4C212.4 69.4 212 69.1 211.7 69.2C211.4 69.3 211.6 69.9 211.6 70.1C211.7 70.3 211.6 70.5 211.4 70.7C211.2 70.8 211 70.8 210.8 70.7C210.6 70.6 210.4 70.7 210.4 70.8C210.3 71 210.5 71.7 210.6 72.1C210.8 72.7 210.9 73.3 210.9 73.8C210.7 75.1 210.5 75.7 210 77C209.6 78.1 210 79.4 210.3 79.8C210.8 80.5 211.9 81.3 212 81.3L223.2 89.5C223.4 89.6 223.4 89.9 223.4 90.1C223.3 90.3 223.1 90.5 222.9 90.4L218.3 90.3Z" fill="black"/>
<path d="M207.5 98.9C207.5 98.9 208.4 98.3 212.3 98C215.3 97.7 219 97.6 219 97.6C219 97.6 218.4 95.7 218.5 93C218.6 90.4 219.5 89.5 219.5 89.5C219.5 89.5 212.7 89 210.5 88.8C206.5 88.3 204.7 89.2 204.7 89.2" fill="url(#paint4_linear)"/>
<path d="M207.5 99.4C207.3 99.4 207.2 99.3 207.1 99.2C207 99 207 98.7 207.3 98.5C207.4 98.4 208.5 97.8 212.3 97.5C214.5 97.3 217.2 97.2 218.4 97.1C218.2 96.3 218 94.8 218.1 93C218.2 91.5 218.5 90.6 218.7 90C216.8 89.9 212.2 89.5 210.5 89.3C206.8 88.8 205 89.7 205 89.7C204.8 89.8 204.5 89.7 204.3 89.5C204.2 89.3 204.3 89 204.5 88.8C204.6 88.8 206.5 87.8 210.6 88.3C212.7 88.6 219.5 89 219.5 89C219.7 89 219.9 89.1 219.9 89.3C220 89.5 219.9 89.7 219.8 89.8C219.8 89.8 219 90.6 218.9 92.9C218.8 95.4 219.3 97.3 219.3 97.3C219.3 97.4 219.3 97.6 219.2 97.7C219.1 97.8 219 97.9 218.8 97.9C218.8 97.9 215.1 98 212.1 98.3C208.5 98.6 207.6 99.2 207.5 99.2C207.7 99.4 207.6 99.4 207.5 99.4Z" fill="black"/>
<path d="M211.1 70.1C211.1 70.1 211.8 71.2 211.9 72.3C212.1 73.4 211.9 74.4 211.9 74.4" fill="#FFF0EB"/>
<path d="M211.9 74.9H211.8C211.5 74.8 211.4 74.6 211.4 74.3C211.4 74.3 211.6 73.4 211.4 72.4C211.2 71.4 210.6 70.4 210.6 70.4C210.5 70.2 210.5 69.9 210.8 69.7C211 69.6 211.3 69.6 211.5 69.9C211.5 69.9 212.2 71.1 212.4 72.3C212.6 73.5 212.4 74.5 212.4 74.6C212.3 74.8 212.1 74.9 211.9 74.9Z" fill="black"/>
<path d="M212.4 68.8C212.4 68.8 213.2 69.8 213.6 71.7C213.8 72.9 213.8 74.2 213.8 74.2" fill="#FFF0EB"/>
<path d="M213.8 74.7C213.5 74.7 213.3 74.5 213.3 74.2C213.3 74.2 213.3 73 213.1 71.8C212.8 70 212 69.1 212 69.1C211.8 68.9 211.9 68.6 212.1 68.4C212.3 68.2 212.6 68.3 212.8 68.5C212.8 68.5 213.7 69.6 214.1 71.6C214.3 72.9 214.3 74.1 214.3 74.2C214.3 74.5 214 74.7 213.8 74.7Z" fill="black"/>
<path d="M214 79.8C213.8 79.8 213.6 79.7 213.5 79.5C213.4 79.2 213.5 79 213.8 78.9L215.4 78.3C215.7 78.2 215.9 78.3 216 78.6C216.1 78.9 216 79.1 215.7 79.2L214.1 79.8H214Z" fill="black"/>
<path d="M225.9 92.7C225.8 92.7 225.7 92.7 225.6 92.6L222.2 90C222 89.8 221.9 89.5 222.1 89.3C222.3 89.1 222.6 89 222.8 89.2L226.2 91.8C226.4 92 226.5 92.3 226.3 92.5C226.2 92.7 226 92.7 225.9 92.7Z" fill="black"/>
<path d="M215.3 74.6C215.3 74.6 215.2 74.6 215.3 74.6C215 74.6 214.8 74.3 214.8 74.1C214.8 73.7 214.9 72.4 214.8 71.8C214.5 70.2 214 69.5 214 69.5C213.9 69.3 213.9 69 214.2 68.8C214.4 68.7 214.7 68.7 214.9 69C214.9 69 215.5 69.9 215.8 71.7C216 72.5 215.8 74.1 215.8 74.3C215.8 74.4 215.5 74.6 215.3 74.6Z" fill="black"/>
<path d="M185 185.7H181.1C180.9 185.7 180.8 185.7 180.6 185.8L179.6 186.2L179.9 185.2C180.1 184.9 180.1 185.2 180.2 184.4L176.3 176C176 175.1 181.4 173.5 181.6 174.2L185.4 184.1C185.5 184.8 185.8 185.7 185 185.7Z" fill="#FFEFEA"/>
<path d="M179.6 186.7C179.5 186.7 179.4 186.7 179.3 186.6C179.2 186.5 179.1 186.3 179.2 186.1L179.5 185.1V185C179.6 184.9 179.6 184.8 179.7 184.7C179.7 184.7 179.7 184.6 179.7 184.5L175.9 176.2C175.8 175.9 175.8 175.6 176.2 175.3C177.1 174.4 180.7 173.3 181.7 173.6C182.1 173.7 182.1 174 182.2 174.1L186 183.9C186 184.1 186.1 184.2 186.1 184.3C186.2 184.9 186.4 185.5 186 185.9C185.8 186.1 185.5 186.2 185.2 186.2H181.3C181.2 186.2 181.1 186.2 181 186.3L180 186.7C179.7 186.7 179.7 186.7 179.6 186.7ZM176.8 176L180.6 184.3C180.6 184.4 180.7 184.5 180.6 184.5C180.6 184.9 180.5 185.2 180.3 185.4C180.5 185.3 180.7 185.3 181 185.3H184.9C185 185.3 185 185.3 185 185.3C185 185.2 184.9 184.8 184.8 184.6C184.8 184.5 184.7 184.4 184.7 184.2L181 174.6C180.3 174.5 177.4 175.4 176.8 176ZM181.1 174.3C181.1 174.3 181.1 174.4 181.1 174.3V174.3Z" fill="black"/>
<path d="M196.3 113.3L183.9 110.2L179.2 117.9C179.2 117.9 163.8 143.1 162.2 146C161.5 147.3 161.4 148.8 162 150.7L177 180.1C180.7 180.3 182.1 179.8 184.5 179.2L172.6 149.2C177.4 143 186 130.2 189.4 126.1C192.6 122.2 197.5 116.2 195.4 113.6" fill="#0072EC"/>
<path d="M178.6 180.7C178.1 180.7 177.6 180.7 177 180.7C176.8 180.7 176.7 180.6 176.6 180.4L161.6 151C160.9 149 160.9 147.4 161.8 145.9C163.4 143 178.2 118.8 178.8 117.8L183.5 110.1C183.6 109.9 183.8 109.8 184 109.9L196.4 113C196.7 113.1 196.8 113.3 196.8 113.6C196.8 113.9 196.5 114 196.2 114H196.1C197.6 117 193.3 122.4 190.1 126.4L189.8 126.7C188.1 128.8 184.9 133.3 181.6 138C178.6 142.2 175.5 146.6 173.2 149.6L185 179C185.1 179.1 185 179.3 185 179.4C185 179.5 184.8 179.6 184.7 179.7L184.2 179.8C182.4 180.3 181.1 180.7 178.6 180.7ZM177.4 179.6C180.6 179.7 181.9 179.4 183.9 178.8L172.2 149.3C172.1 149.1 172.2 149 172.3 148.8C174.6 145.8 177.8 141.4 180.8 137C184.1 132.3 187.3 127.8 189 125.7L189.3 125.4C192.1 121.9 196.8 116.1 195 113.8C194.9 113.7 194.9 113.5 194.9 113.4L184.2 110.7L179.7 118.1C179.5 118.4 164.3 143.3 162.7 146.2C162 147.5 162 148.8 162.6 150.5L177.4 179.6Z" fill="black"/>
<path d="M180 184.6C179.5 184.6 180.1 186.1 178.6 186.6C176.1 187.3 173.1 187.7 172.6 188.7C172.1 189.7 172.2 190.8 172.2 190.8H187.2C187.9 190.8 187.8 189.7 187.7 188.7C187.5 187.5 185.6 183.7 185.6 183.7C184.7 184.5 181.7 184.7 180 184.6Z" fill="#FFB93B"/>
<path d="M187.2 191.3H172.2C172 191.3 171.7 191.1 171.7 190.9C171.7 190.9 171.5 189.7 172.1 188.5C172.6 187.5 174.2 187.1 176.3 186.6C177 186.4 177.7 186.3 178.4 186.1C179 185.9 179.1 185.6 179.2 185C179.2 184.7 179.3 184.1 179.9 184.1C182 184.2 184.5 183.9 185.1 183.3C185.2 183.2 185.4 183.1 185.5 183.2C185.7 183.2 185.8 183.3 185.9 183.5C186.1 183.9 187.9 187.3 188.1 188.6C188.3 189.8 188.3 190.6 187.9 191C187.8 191.2 187.5 191.3 187.2 191.3ZM172.7 190.3H187.2C187.2 190.3 187.4 190 187.2 188.8C187.1 188 186 185.7 185.4 184.5C184 185.2 181.3 185.2 180.3 185.2C180.2 185.7 180.1 186.7 178.8 187.1C178.1 187.3 177.4 187.5 176.7 187.6C175.2 188 173.4 188.4 173.1 188.9C172.8 189.4 172.7 189.9 172.7 190.3Z" fill="black"/>
<path d="M172.3 190.8V191.8C172.3 192.2 172.6 192.5 173 192.5H186.9C187.3 192.5 187.6 192.2 187.6 191.8V190.8H172.3Z" fill="white"/>
<path d="M186.9 193H173C172.3 193 171.8 192.4 171.8 191.8V190.8C171.8 190.5 172 190.3 172.3 190.3H187.7C188 190.3 188.2 190.5 188.2 190.8V191.8C188.2 192.5 187.6 193 186.9 193ZM172.8 191.3V191.8C172.8 191.9 172.9 192 173 192H186.9C187 192 187.1 191.9 187.1 191.8V191.3H172.8Z" fill="black"/>
<path d="M183.6 180.2L179 181.8L178.1 180.2C178.1 180.2 179.1 180.4 181 179.8C182.4 179.3 183.4 179.4 183.4 179.4L183.6 180.2Z" fill="black"/>
<path d="M209.3 185.7L205.2 185.8C205 185.8 204.9 185.8 204.7 185.9L204.3 186.5L204.5 184.8C204.7 184.5 204.6 184.5 204.2 184L199.7 175.7C199.4 174.8 205.5 173.3 205.6 173.9L209.5 184.1C209.8 184.8 210.1 185.7 209.3 185.7Z" fill="#FFEFEA"/>
<path d="M204.4 186.9C204.3 186.9 204.3 186.9 204.2 186.9C204 186.8 203.8 186.6 203.9 186.4L204.1 184.7C204.1 184.6 204.1 184.6 204.2 184.5L204.1 184.4L204 184.2L199.4 175.8V175.7C199.4 175.5 199.3 175.2 199.7 174.9C200.6 174 204.9 172.9 205.9 173.2C206.3 173.3 206.4 173.6 206.4 173.7L210.3 183.8L210.4 184.2C210.5 184.8 210.7 185.4 210.3 185.8C210.1 186 209.8 186.1 209.5 186.1L205.4 186.2C205.3 186.2 205.3 186.2 205.2 186.2L204.9 186.6C204.7 186.8 204.5 186.9 204.4 186.9ZM205.1 184.8L205 185.2C205.1 185.2 205.1 185.2 205.2 185.2L209.3 185.1C209.4 185.1 209.4 185.1 209.4 185.1C209.4 185 209.3 184.6 209.2 184.4C209.2 184.3 209.1 184.2 209.1 184L205.3 174C204.5 173.9 201 174.8 200.3 175.4L204.8 183.6C205.1 184.1 205.3 184.4 205.1 184.8Z" fill="black"/>
<path d="M189.4 111.6L199.8 114C199.8 114 202.8 117.9 199.5 130C197.7 137.7 196.9 144.2 196 150.7L207.8 177.8C205.1 178.7 204.3 179 200.6 178.9L186.7 153.7C185.6 151.6 185.5 149.6 185.5 148.1C185.6 144.9 187.7 117.4 187.7 117.4" fill="#0072EC"/>
<path d="M201.4 179.5C201.1 179.5 200.8 179.5 200.5 179.5C200.3 179.5 200.2 179.4 200.1 179.2L186.2 154C185.3 152.2 184.9 150.3 184.9 148.1C185 144.9 187 118.5 187.1 117.4C187.1 117.1 187.4 116.9 187.6 116.9C187.9 116.9 188.1 117.2 188.1 117.4C188.1 117.7 186 144.9 185.9 148C185.9 150 186.2 151.8 187.1 153.4L200.9 178.3C204 178.4 204.9 178.1 207.1 177.4L195.5 151C195.5 150.9 195.5 150.8 195.5 150.7V150.6C196.3 144.2 197.2 137.6 199 129.9C201.9 119.4 199.9 115.2 199.5 114.4L189.3 112C189 111.9 188.9 111.7 188.9 111.4C189 111.1 189.2 111 189.5 111L199.9 113.4C200 113.4 200.1 113.5 200.2 113.6C200.3 113.8 203.3 117.8 200 130.1C198.2 137.7 197.4 144.3 196.5 150.6L208.2 177.6C208.3 177.7 208.3 177.9 208.2 178C208.1 178.1 208 178.2 207.9 178.3L207.6 178.4C205.3 179.2 204.3 179.5 201.4 179.5Z" fill="black"/>
<path d="M207.6 179.2L202.8 181L202 179C202 179 202.2 179.3 204 178.6C205.4 178.1 207.4 178.2 207.4 178.2L207.6 179.2Z" fill="black"/>
<path d="M204.3 184.5C204 184.5 201.9 187.9 201.7 188.5C201.4 189.3 201.7 190.6 201.7 190.6H211.2C212 190.6 211.9 190 211.8 189.3C211.6 187.8 209.6 183.7 209.6 183.7C208.5 184.3 206 184.3 204.3 184.5Z" fill="#FFB93B"/>
<path d="M211.3 191.1H201.8C201.6 191.1 201.4 190.9 201.3 190.7C201.3 190.5 201 189.2 201.3 188.3C201.4 188.1 203.6 184.1 204.3 184C204.8 183.9 205.4 183.9 206 183.8C207.3 183.7 208.7 183.6 209.5 183.2C209.6 183.1 209.8 183.1 209.9 183.2C210 183.2 210.1 183.3 210.2 183.5C210.3 183.7 212.2 187.8 212.4 189.3C212.5 189.9 212.5 190.4 212.2 190.8C212 191 211.7 191.1 211.3 191.1ZM202.1 190.1H211.2C211.3 190.1 211.3 190.1 211.4 190.1C211.4 190.1 211.4 189.9 211.4 189.4C211.2 188.4 210.1 185.7 209.5 184.3C208.6 184.6 207.3 184.7 206.1 184.8C205.6 184.8 205 184.9 204.6 184.9C204.2 185.4 202.5 188 202.3 188.6C202.1 189.1 202.1 189.7 202.1 190.1Z" fill="black"/>
<path d="M201.8 190.6V191.6C201.8 192 202.2 192.4 202.6 192.4H211C211.5 192.4 211.8 192.1 211.8 191.6V190.6H201.8Z" fill="white"/>
<path d="M211.1 193H202.7C202 193 201.4 192.4 201.4 191.7V190.7C201.4 190.4 201.6 190.2 201.9 190.2H212C212.3 190.2 212.5 190.4 212.5 190.7V191.7C212.4 192.4 211.8 193 211.1 193ZM202.3 191.1V191.6C202.3 191.7 202.5 191.9 202.6 191.9H211C211.2 191.9 211.3 191.8 211.3 191.6V191.1H202.3Z" fill="black"/>
<path d="M233.6 61.6C233.6 61.6 237.8 58.1 240.3 58.6C241.6 58.9 242.1 60.9 240.2 61.6C238.7 62 237.1 61.1 233.6 61.6Z" fill="white"/>
<path d="M239.2 62.2C238.8 62.2 238.3 62.1 237.9 62.1C236.9 62 235.6 61.8 233.7 62.1C233.5 62.1 233.3 62 233.2 61.8C233.1 61.6 233.2 61.4 233.3 61.2C233.5 61 237.7 57.5 240.4 58.1C241.3 58.3 241.9 59 242 59.9C242 60.6 241.6 61.6 240.4 62C239.9 62.2 239.6 62.2 239.2 62.2ZM235.7 60.9C236.6 60.9 237.3 61 238 61.1C238.9 61.2 239.5 61.3 240 61.1C240.6 60.9 241 60.5 241 60C241 59.6 240.6 59.2 240.2 59.1C238.9 58.8 236.8 60 235.3 61C235.4 60.9 235.6 60.9 235.7 60.9Z" fill="black"/>
<path d="M227.3 69C227.3 69 232.3 66.7 234.5 67.9C235.7 68.5 235.6 70.7 233.6 70.7C232.1 70.8 230.8 69.4 227.3 69Z" fill="white"/>
<path d="M233.5 71.2C232.8 71.2 232.1 70.9 231.3 70.6C230.3 70.2 229.1 69.7 227.3 69.5C227.1 69.5 226.9 69.3 226.9 69.1C226.9 68.9 227 68.7 227.2 68.6C227.4 68.5 232.4 66.2 234.9 67.5C235.7 67.9 236.1 68.8 235.9 69.7C235.7 70.4 235.1 71.2 233.7 71.3C233.6 71.2 233.5 71.2 233.5 71.2ZM229.1 68.8C230.1 69.1 230.9 69.4 231.6 69.7C232.4 70 232.9 70.2 233.5 70.2C234.2 70.2 234.6 69.9 234.7 69.4C234.8 69 234.6 68.5 234.2 68.3C233.1 67.7 230.8 68.2 229.1 68.8Z" fill="black"/>
<path d="M221.6 60.9C221.6 60.9 223.9 56 226.4 55.4C227.7 55.1 229 56.8 227.5 58.2C226.4 59.2 224.5 59 221.6 60.9Z" fill="white"/>
<path d="M221.6 61.4C221.5 61.4 221.4 61.4 221.3 61.3C221.1 61.2 221.1 60.9 221.2 60.7C221.3 60.5 223.7 55.5 226.4 54.9C227.2 54.7 228.2 55.1 228.6 55.9C228.9 56.6 229 57.6 228 58.5C227.4 59 226.7 59.3 225.8 59.6C224.8 59.9 223.6 60.3 222 61.3C221.8 61.4 221.7 61.4 221.6 61.4ZM226.7 55.9C226.6 55.9 226.6 55.9 226.5 55.9C225.2 56.2 223.7 58.1 222.8 59.6C223.8 59.1 224.6 58.9 225.3 58.6C226.1 58.3 226.7 58.2 227.1 57.8C227.6 57.3 227.7 56.8 227.5 56.4C227.4 56.1 227.1 55.9 226.7 55.9Z" fill="black"/>
<path d="M233.1 76.7C233.1 76.7 238.5 77.8 239.6 80C240.2 81.2 238.9 82.9 237.2 81.8C235.9 81 235.6 79.1 233.1 76.7Z" fill="white"/>
<path d="M238.3 82.7C237.9 82.7 237.4 82.6 236.9 82.2C236.2 81.8 235.8 81.1 235.3 80.3C234.7 79.4 234.1 78.3 232.7 77C232.5 76.8 232.5 76.6 232.6 76.4C232.7 76.2 232.9 76.1 233.1 76.1C233.3 76.1 238.7 77.2 240 79.7C240.4 80.5 240.2 81.5 239.5 82.1C239.3 82.5 238.8 82.7 238.3 82.7ZM234.6 77.7C235.3 78.5 235.8 79.3 236.1 79.9C236.6 80.6 236.9 81.2 237.4 81.5C238 81.9 238.5 81.9 238.9 81.6C239.2 81.3 239.3 80.8 239.1 80.4C238.5 79.1 236.3 78.2 234.6 77.7Z" fill="black"/>
<path d="M182.5 78.7C182.3 78.7 182.1 78.5 182 78.3C182 78 182.1 77.8 182.4 77.7L184.4 77.3C184.7 77.2 184.9 77.4 185 77.7C185 78 184.9 78.2 184.6 78.3L182.5 78.7C182.6 78.7 182.6 78.7 182.5 78.7Z" fill="black"/>
<path d="M199.3 119.4C199.1 119.4 198.9 119.3 198.8 119.1L196.9 114.1C196.8 113.8 196.9 113.6 197.2 113.5C197.5 113.4 197.7 113.5 197.8 113.8L199.7 118.8C199.8 119.1 199.7 119.3 199.4 119.4C199.4 119.4 199.4 119.4 199.3 119.4Z" fill="black"/>
<path d="M187.3 118.4L183.7 133.7L186.5 130L187.3 118.4Z" fill="black"/>
</g>
<defs>
<linearGradient id="paint0_linear" x1="129.747" y1="44.4082" x2="152.264" y2="52.9836" gradientUnits="userSpaceOnUse">
<stop offset="0.0410511" stop-color="#A4DBD6"/>
<stop offset="1" stop-color="#A4DBD6"/>
</linearGradient>
<linearGradient id="paint1_linear" x1="42.944" y1="109.222" x2="77.9989" y2="109.222" gradientUnits="userSpaceOnUse">
<stop offset="0.0410511" stop-color="#A4DBD6"/>
<stop offset="1" stop-color="#A4DBD6"/>
</linearGradient>
<linearGradient id="paint2_linear" x1="185.532" y1="71.9035" x2="194.001" y2="95.3425" gradientUnits="userSpaceOnUse">
<stop offset="0.0259811" stop-color="#F2F3F5"/>
<stop offset="0.9245" stop-color="#DFDFDF"/>
</linearGradient>
<linearGradient id="paint3_linear" x1="208.734" y1="71.5391" x2="192.027" y2="114.193" gradientUnits="userSpaceOnUse">
<stop offset="0.0259811" stop-color="#F2F3F5"/>
<stop offset="0.9245" stop-color="#DFDFDF"/>
</linearGradient>
<linearGradient id="paint4_linear" x1="214.893" y1="74.4744" x2="208.31" y2="115.584" gradientUnits="userSpaceOnUse">
<stop offset="0.0259811" stop-color="#F2F3F5"/>
<stop offset="0.9245" stop-color="#DFDFDF"/>
</linearGradient>
<clipPath id="clip0">
<rect width="248.9" height="193" fill="white"/>
</clipPath>
</defs>
</svg>
