<svg width="238" height="193" viewBox="0 0 238 193" fill="none" xmlns="http://www.w3.org/2000/svg">
<g clip-path="url(#clip0)">
<path d="M227.6 131.1H155C153.5 131.1 152.3 129.9 152.3 128.4V90.4C152.3 88.9 153.5 87.7 155 87.7H227.6C229.1 87.7 230.3 88.9 230.3 90.4V128.4C230.3 129.9 229.1 131.1 227.6 131.1Z" fill="white" stroke="black" stroke-miterlimit="10"/>
<path d="M176 96.4C176 95.7 175.5 95.2 174.8 95.2H166.3C166 95.2 166.1 95.2 165.9 95L165.5 94.6C165.3 94.4 165 94.3 164.7 94.3H159.4C158.7 94.3 158.2 94.8 158.2 95.5V97V98V106.5C158.2 107.2 158.7 107.7 159.4 107.7H174.8C175.5 107.7 176 107.2 176 106.5V97.9V97V96.4V96.4Z" fill="#DEEDFF" stroke="black" stroke-miterlimit="10" stroke-linecap="round" stroke-linejoin="round"/>
<path d="M165.2 94.1L165.1 94H159.1C158.6 94 158.3 94.4 158.3 94.8V96.1H165.2H165.3L166.3 95.1L165.2 94.1Z" fill="#E0E0E0" stroke="black" stroke-miterlimit="10" stroke-linecap="round" stroke-linejoin="round"/>
<path d="M200.3 96.4C200.3 95.7 199.8 95.2 199.1 95.2H190.6C190.3 95.2 190.4 95.2 190.2 95L189.8 94.6C189.6 94.4 189.3 94.3 189 94.3H183.7C183 94.3 182.5 94.8 182.5 95.5V97V98V106.5C182.5 107.2 183 107.7 183.7 107.7H199.1C199.8 107.7 200.3 107.2 200.3 106.5V97.9V97V96.4V96.4Z" fill="#DEEDFF" stroke="black" stroke-miterlimit="10" stroke-linecap="round" stroke-linejoin="round"/>
<path d="M189.6 94.1L189.5 94H183.5C183 94 182.7 94.4 182.7 94.8V96.1H189.6H189.7L190.7 95.1L189.6 94.1Z" fill="#B2D6FF" stroke="black" stroke-miterlimit="10" stroke-linecap="round" stroke-linejoin="round"/>
<path d="M176 113.7C176 113 175.5 112.5 174.8 112.5H166.3C166 112.5 166.1 112.5 165.9 112.3L165.5 111.9C165.3 111.7 165 111.6 164.7 111.6H159.4C158.7 111.6 158.2 112.1 158.2 112.8V114.4V115.4V123.9C158.2 124.6 158.7 125.1 159.4 125.1H174.8C175.5 125.1 176 124.6 176 123.9V115.3V114.4V113.7V113.7Z" fill="#DEEDFF" stroke="black" stroke-miterlimit="10" stroke-linecap="round" stroke-linejoin="round"/>
<path d="M165.2 111.4L165.1 111.3H159.1C158.6 111.3 158.3 111.7 158.3 112.1V113.4H165.2H165.3L166.3 112.4L165.2 111.4Z" fill="#E0E0E0" stroke="black" stroke-miterlimit="10" stroke-linecap="round" stroke-linejoin="round"/>
<path d="M200.3 113.7C200.3 113 199.8 112.5 199.1 112.5H190.6C190.3 112.5 190.4 112.5 190.2 112.3L189.8 111.9C189.6 111.7 189.3 111.6 189 111.6H183.7C183 111.6 182.5 112.1 182.5 112.8V114.4V115.4V123.9C182.5 124.6 183 125.1 183.7 125.1H199.1C199.8 125.1 200.3 124.6 200.3 123.9V115.3V114.4V113.7V113.7Z" fill="#DEEDFF" stroke="black" stroke-miterlimit="10" stroke-linecap="round" stroke-linejoin="round"/>
<path d="M189.6 111.4L189.5 111.3H183.5C183 111.3 182.7 111.7 182.7 112.1V113.4H189.6H189.7L190.7 112.4L189.6 111.4Z" fill="#B2D6FF" stroke="black" stroke-miterlimit="10" stroke-linecap="round" stroke-linejoin="round"/>
<path d="M224.7 96.4C224.7 95.7 224.2 95.2 223.5 95.2H215C214.7 95.2 214.8 95.2 214.6 95L214.2 94.6C214 94.4 213.7 94.3 213.4 94.3H208.1C207.4 94.3 206.9 94.8 206.9 95.5V97V98V106.5C206.9 107.2 207.4 107.7 208.1 107.7H223.5C224.2 107.7 224.7 107.2 224.7 106.5V97.9V97V96.4V96.4Z" fill="#DEEDFF" stroke="black" stroke-miterlimit="10" stroke-linecap="round" stroke-linejoin="round"/>
<path d="M214 94.1L213.9 94H207.9C207.4 94 207.1 94.4 207.1 94.8V96.1H214H214.1L215.1 95.1L214 94.1Z" fill="#B2D6FF" stroke="black" stroke-miterlimit="10" stroke-linecap="round" stroke-linejoin="round"/>
<path d="M224.7 113.7C224.7 113 224.2 112.5 223.5 112.5H215C214.7 112.5 214.8 112.5 214.6 112.3L214.2 111.9C214 111.7 213.7 111.6 213.4 111.6H208.1C207.4 111.6 206.9 112.1 206.9 112.8V114.4V115.4V123.9C206.9 124.6 207.4 125.1 208.1 125.1H223.5C224.2 125.1 224.7 124.6 224.7 123.9V115.3V114.4V113.7V113.7Z" fill="#DEEDFF" stroke="black" stroke-miterlimit="10" stroke-linecap="round" stroke-linejoin="round"/>
<path d="M214 111.4L213.9 111.3H207.9C207.4 111.3 207.1 111.7 207.1 112.1V113.4H214H214.1L215.1 112.4L214 111.4Z" fill="#B2D6FF" stroke="black" stroke-miterlimit="10" stroke-linecap="round" stroke-linejoin="round"/>
<path d="M161.2 28.7C161.2 26.8 159.6 25.2 157.7 25.2H133.1C132.3 25.2 132.5 25.1 132 24.5L130.9 23.3C130.3 22.7 129.6 22.4 128.7 22.4H113.3C111.4 22.4 109.8 24 109.8 25.9V30.6V33.4V57.9C109.8 59.8 111.4 61.4 113.3 61.4H157.6C159.5 61.4 161.1 59.8 161.1 57.9V33.1V30.5V28.7H161.2Z" fill="#F0F0F0" stroke="black" stroke-miterlimit="10" stroke-linecap="round" stroke-linejoin="round"/>
<path d="M130.2 22.1C130.1 22 129.9 21.9 129.8 21.9H112.3C111 21.9 109.9 23 109.9 24.3V28H129.8C129.9 28 130.1 28 130.2 27.9L133.2 25.1L130.2 22.1Z" fill="#E0E0E0" stroke="black" stroke-miterlimit="10" stroke-linecap="round" stroke-linejoin="round"/>
<path d="M150 8.5C150 4.1 146.4 0.5 142 0.5C137.6 0.5 134 4.1 134 8.5C134 12.6 137.1 16 141.1 16.5C141.6 18.2 142.5 20.5 142.5 20.5L143.8 16.4C147.3 15.6 150 12.4 150 8.5Z" fill="#39AE7F" stroke="black" stroke-miterlimit="10" stroke-linecap="round" stroke-linejoin="round"/>
<path d="M207.8 45.7H156.6C155.5 45.7 154.6 44.8 154.6 43.7V14C154.6 12.9 155.5 12 156.6 12H207.8C208.9 12 209.8 12.9 209.8 14V43.7C209.8 44.8 208.9 45.7 207.8 45.7Z" fill="white" stroke="black" stroke-miterlimit="10"/>
<path d="M200.8 39.2H182.9C181.5 39.2 180.3 38 180.3 36.6V21C180.3 19.6 181.5 18.4 182.9 18.4H200.8C202.2 18.4 203.4 19.6 203.4 21V36.6C203.4 38.1 202.2 39.2 200.8 39.2Z" fill="url(#paint0_linear)" stroke="black" stroke-miterlimit="10" stroke-linecap="round" stroke-linejoin="round"/>
<path d="M191.9 34C194.772 34 197.1 31.6719 197.1 28.8C197.1 25.9281 194.772 23.6 191.9 23.6C189.028 23.6 186.7 25.9281 186.7 28.8C186.7 31.6719 189.028 34 191.9 34Z" fill="#FFDB66" stroke="black" stroke-miterlimit="10" stroke-linecap="round" stroke-linejoin="round"/>
<path d="M174.8 23.8H160.7V26H174.8V23.8Z" fill="black"/>
<path d="M174.8 31.7H160.7V33.9H174.8V31.7Z" fill="black"/>
<path d="M162.8 118.5H95.3C93.8 118.5 92.6 117.3 92.6 115.8V71.4C92.6 69.9 93.9 68.6 95.4 68.6H162.7C164.2 68.6 165.5 69.9 165.5 71.4V115.8C165.5 117.3 164.3 118.5 162.8 118.5Z" fill="white" stroke="black" stroke-miterlimit="10"/>
<path d="M116.5 74.4H111.9V107H116.5V74.4Z" fill="#F0F0F0" stroke="black" stroke-miterlimit="10" stroke-linecap="round" stroke-linejoin="round"/>
<path d="M116.5 73.7H111.9V87.3H116.5V73.7Z" fill="#E0E0E0" stroke="black" stroke-miterlimit="10" stroke-linecap="round" stroke-linejoin="round"/>
<path d="M97.5 89.7H105.8" stroke="black" stroke-miterlimit="10" stroke-linecap="round" stroke-linejoin="round"/>
<path d="M97.5 98H105.8" stroke="black" stroke-miterlimit="10" stroke-linecap="round" stroke-linejoin="round"/>
<path d="M97.5 81.3H105.8" stroke="black" stroke-miterlimit="10" stroke-linecap="round" stroke-linejoin="round"/>
<path d="M137.8 83.7H123.9V97.2H137.8V83.7Z" fill="#E0E0E0" stroke="black" stroke-miterlimit="10" stroke-linecap="round" stroke-linejoin="round"/>
<path d="M158.2 83.7H144.3V97.2H158.2V83.7Z" fill="#0072ED" stroke="black" stroke-miterlimit="10" stroke-linecap="round" stroke-linejoin="round"/>
<path d="M92.3 70.2V73.5L165.4 73.7C165.4 73.7 165.9 70.5 165 69.6C164.1 68.7 164.7 68.1 159.6 68.1C154.5 68.1 94.6 68.4 94.6 68.4C94.6 68.4 92.3 68.8 92.3 70.2Z" fill="#E0E0E0"/>
<path d="M162.8 118.5H95.3C93.8 118.5 92.6 117.3 92.6 115.8V71.4C92.6 69.9 93.9 68.6 95.4 68.6H162.7C164.2 68.6 165.5 69.9 165.5 71.4V115.8C165.5 117.3 164.3 118.5 162.8 118.5Z" stroke="black" stroke-miterlimit="10"/>
<path d="M92.8 73.7H165.3" stroke="black" stroke-miterlimit="10" stroke-linecap="round" stroke-linejoin="round"/>
<path d="M95.3 119.8H162.8C164.2 119.8 165.5 118.4 165.5 117.1V107.3H92.6V117.1C92.6 118.4 93.9 119.8 95.3 119.8Z" fill="#E0E0E0" stroke="black" stroke-miterlimit="10" stroke-linecap="round" stroke-linejoin="round"/>
<path d="M107.7 111.9H159.3" stroke="black" stroke-miterlimit="10" stroke-linecap="round" stroke-linejoin="round"/>
<path d="M211.8 52.3H145.4C144.3 52.3 142.8 52.6 142.8 54.2V76.9C142.8 78.7 143.8 79.4 144.9 79.4H155L152.9 86.3L159.3 79.4H211.8C212.9 79.4 213.4 78.6 213.4 77.5V54.5C213.4 53.3 212.9 52.3 211.8 52.3Z" fill="#DEEDFF" stroke="black" stroke-miterlimit="10" stroke-linecap="round" stroke-linejoin="round"/>
<path d="M150.2 61H205.9" stroke="black" stroke-miterlimit="10" stroke-linecap="round" stroke-linejoin="round"/>
<path d="M150.2 69.3H205.9" stroke="black" stroke-miterlimit="10" stroke-linecap="round" stroke-linejoin="round"/>
<path d="M122.9 57.2H75.6C75 57.2 74.4 56.7 74.4 56V36.5C74.4 35.9 74.9 35.3 75.6 35.3H122.9C123.5 35.3 124.1 35.8 124.1 36.5V56C124.1 56.6 123.6 57.2 122.9 57.2Z" fill="white" stroke="black" stroke-miterlimit="10"/>
<path d="M122.9 35.6H75.6C75 35.6 74.5 36.1 74.5 36.8V39.8H124.1V36.8C124.1 36.2 123.6 35.6 122.9 35.6Z" fill="#E0E0E0" stroke="black" stroke-miterlimit="10" stroke-linecap="round" stroke-linejoin="round"/>
<path d="M110.1 43.9H88.5V52.8H110.1V43.9Z" fill="#DEEDFF" stroke="black" stroke-miterlimit="10" stroke-linecap="round" stroke-linejoin="round"/>
<path d="M100.8 45.6V51.5" stroke="black" stroke-miterlimit="10" stroke-linecap="round" stroke-linejoin="round"/>
<path d="M95.4 51.2C96.9464 51.2 98.2 49.9464 98.2 48.4C98.2 46.8536 96.9464 45.6 95.4 45.6C93.8536 45.6 92.6 46.8536 92.6 48.4C92.6 49.9464 93.8536 51.2 95.4 51.2Z" fill="#DEEDFF" stroke="black" stroke-miterlimit="10" stroke-linecap="round" stroke-linejoin="round"/>
<path d="M105.9 45.4C105.7 45.5 101.2 48 101.2 48L106.2 50.9" stroke="black" stroke-miterlimit="10" stroke-linecap="round" stroke-linejoin="round"/>
<path d="M137.8 149.5H112.4C111.4 149.5 110.5 148.7 110.5 147.6V95.2C110.5 94.2 111.3 93.3 112.4 93.3H137.8C138.8 93.3 139.7 94.1 139.7 95.2V147.6C139.7 148.7 138.9 149.5 137.8 149.5Z" fill="#F0F0F0" stroke="black" stroke-miterlimit="10" stroke-linecap="round" stroke-linejoin="round"/>
<path d="M115 125.1L139.4 125" stroke="black" stroke-miterlimit="10" stroke-linecap="round" stroke-linejoin="round"/>
<path d="M134.8 127.7L136.7 129.6L134.8 131.3" stroke="black" stroke-miterlimit="10" stroke-linecap="round" stroke-linejoin="round"/>
<path d="M123 98.7H115.1V100.9H123V98.7Z" fill="black"/>
<path d="M123 105.2H115.1V107.4H123V105.2Z" fill="black"/>
<path d="M123 111.8H115.1V114H123V111.8Z" fill="black"/>
<path d="M123 118.3H115.1V120.5H123V118.3Z" fill="black"/>
<path d="M123 130H115.1V132.2H123V130Z" fill="black"/>
<path d="M123 136H115.1V138.2H123V136Z" fill="black"/>
<path d="M123 142H115.1V144.2H123V142Z" fill="black"/>
<path d="M138.2 8.2H146.2" stroke="black" stroke-miterlimit="10" stroke-linecap="round" stroke-linejoin="round"/>
<path d="M142.1 3.8V12.8" stroke="black" stroke-miterlimit="10" stroke-linecap="round" stroke-linejoin="round"/>
<path d="M87.2 192.3L158 192.5C158 192.5 153.7 185.5 148.8 184.5C144.2 183.6 142.5 185.6 142.5 185.6C142.5 185.6 142 180.4 138 179.2C134.5 178.2 132.1 180.1 132.1 180.1C132.1 180.1 130.6 175.7 126.5 175.1C122.5 174.5 120.4 177.1 120.4 177.1C120.4 177.1 117.5 170.4 111.5 171.1C105.8 171.8 105 178.4 105 178.4C105 178.4 101.9 177.3 99.2 179.6C96.5 181.9 97.3 186.1 97.3 186.1C97.3 186.1 94.2 184.3 91.2 186.2C88.7 187.7 87.2 192.3 87.2 192.3Z" fill="url(#paint1_linear)" stroke="black" stroke-miterlimit="10" stroke-linecap="round" stroke-linejoin="round"/>
<path d="M123.4 183.7C124.118 183.7 124.7 183.118 124.7 182.4C124.7 181.682 124.118 181.1 123.4 181.1C122.682 181.1 122.1 181.682 122.1 182.4C122.1 183.118 122.682 183.7 123.4 183.7Z" fill="#FFDD73" stroke="black" stroke-miterlimit="10" stroke-linecap="round" stroke-linejoin="round"/>
<path d="M111.339 181.392C111.891 181.367 112.318 180.899 112.292 180.347C112.267 179.795 111.799 179.369 111.248 179.394C110.696 179.419 110.269 179.887 110.295 180.439C110.32 180.991 110.788 181.417 111.339 181.392Z" fill="#FFDD73" stroke="black" stroke-miterlimit="10" stroke-linecap="round" stroke-linejoin="round"/>
<path d="M134.117 187.504C134.614 187.496 135.011 187.087 135.003 186.59C134.995 186.093 134.586 185.697 134.089 185.704C133.592 185.712 133.195 186.122 133.203 186.619C133.211 187.116 133.62 187.512 134.117 187.504Z" fill="#FFDD73" stroke="black" stroke-miterlimit="10" stroke-linecap="round" stroke-linejoin="round"/>
<path d="M103.523 188.005C104.241 187.994 104.814 187.402 104.802 186.685C104.791 185.967 104.2 185.394 103.482 185.405C102.764 185.417 102.191 186.008 102.203 186.726C102.214 187.444 102.805 188.016 103.523 188.005Z" fill="#FFDD73" stroke="black" stroke-miterlimit="10" stroke-linecap="round" stroke-linejoin="round"/>
<path d="M120.054 186.777C120.065 186.225 119.625 185.769 119.073 185.759C118.521 185.749 118.065 186.188 118.055 186.74C118.044 187.292 118.483 187.748 119.036 187.759C119.588 187.769 120.044 187.33 120.054 186.777Z" fill="#FFDD73" stroke="black" stroke-miterlimit="10" stroke-linecap="round" stroke-linejoin="round"/>
<path d="M0.5 192.5H236.6" stroke="black" stroke-miterlimit="10" stroke-linecap="round" stroke-linejoin="round"/>
<path d="M195.5 192.5H174.8L170.4 172.6H199.2L195.5 192.5Z" fill="#E0E0E0" stroke="black" stroke-miterlimit="10" stroke-linecap="round" stroke-linejoin="round"/>
<path d="M170.4 172.8C170.4 172.8 166.1 171.4 166.3 167.7C166.5 164.1 170.6 163.4 170.6 163.4C170.6 163.4 168.3 162.6 168.3 160C168.4 157.4 171.9 156.9 171.9 156.9C171.9 156.9 167.7 153.1 170.4 149.6C173.5 145.7 178 149.5 178 149.5C178 149.5 180.5 142.6 186.8 143.9C192.4 145 192.2 151.6 192.2 151.6C192.2 151.6 196.6 150.1 198.6 153.1C200.6 156.1 198.1 158.8 198.1 158.8C198.1 158.8 200.5 158.8 201.5 161.1C202.8 164.1 199.3 165.7 199.3 165.7C199.3 165.7 202.9 165.8 203 168.6C203.1 171.5 199.1 172.7 199.1 172.7H170.4V172.8Z" fill="url(#paint2_linear)" stroke="black" stroke-miterlimit="10" stroke-linecap="round" stroke-linejoin="round"/>
<path d="M187.1 157.1C187.984 157.1 188.7 156.384 188.7 155.5C188.7 154.616 187.984 153.9 187.1 153.9C186.216 153.9 185.5 154.616 185.5 155.5C185.5 156.384 186.216 157.1 187.1 157.1Z" fill="#FFDD73" stroke="black" stroke-miterlimit="10" stroke-linecap="round" stroke-linejoin="round"/>
<path d="M177.8 166.4C178.518 166.4 179.1 165.818 179.1 165.1C179.1 164.382 178.518 163.8 177.8 163.8C177.082 163.8 176.5 164.382 176.5 165.1C176.5 165.818 177.082 166.4 177.8 166.4Z" fill="#FFDD73" stroke="black" stroke-miterlimit="10" stroke-linecap="round" stroke-linejoin="round"/>
<path d="M191.5 163.9C192.218 163.9 192.8 163.318 192.8 162.6C192.8 161.882 192.218 161.3 191.5 161.3C190.782 161.3 190.2 161.882 190.2 162.6C190.2 163.318 190.782 163.9 191.5 163.9Z" fill="#FFDD73" stroke="black" stroke-miterlimit="10" stroke-linecap="round" stroke-linejoin="round"/>
<path d="M94.6 99.8C98.7974 99.8 102.2 96.3974 102.2 92.2C102.2 88.0026 98.7974 84.6 94.6 84.6C90.4026 84.6 87 88.0026 87 92.2C87 96.3974 90.4026 99.8 94.6 99.8Z" fill="#FFDB66" stroke="black" stroke-miterlimit="10" stroke-linecap="round" stroke-linejoin="round"/>
<path d="M38.8 77.2L26.9 82.3C24.8 83.4 23.9 84.6 25 87.1C28.2 94.1 32 102.2 32.2 102.2C32.6 102.2 36.2 100.1 35.9 99.7C35.6 99.3 31.7 87 31.7 87L40.7 83.2L38.8 77.2Z" fill="#FFF0EB" stroke="black" stroke-miterlimit="10" stroke-linecap="round" stroke-linejoin="round"/>
<path d="M55.6 72.3C52 71 45.1 74.5 35.6 77.6L38.5 84.3L46.7 80.9" fill="url(#paint3_linear)"/>
<path d="M55.6 72.3C52 71 45.1 74.5 35.6 77.6L38.5 84.3L46.7 80.9" stroke="black" stroke-miterlimit="10" stroke-linecap="round" stroke-linejoin="round"/>
<path d="M27.1 190.2L27 191.4C27 191.9 26.6 192.3 26.1 192.2L22 192L13 189.8C12.5 189.7 12.2 189.2 12.3 188.7L12.6 187.6L22.5 190L27.1 190.2Z" fill="white" stroke="black" stroke-miterlimit="10" stroke-linecap="round" stroke-linejoin="round"/>
<path d="M15.9 183L18.9 183.7C19.1 183.7 19.8 184 20 184.1L21.1 184.8L19.9 182.2C19.9 181.9 20 181.5 20.1 181L25.9 167C26.2 166 25.5 165 24.5 164.9L21.8 164.8C21 164.8 20.4 165.3 20.2 166L15.2 180.8C14.6 181.8 14.9 182.8 15.9 183Z" fill="#FFF0EB" stroke="black" stroke-miterlimit="10" stroke-linecap="round" stroke-linejoin="round"/>
<path d="M19.9 182.7C20.4 182.6 20.4 183.2 20.6 183.7C21.1 184.7 21.9 185.6 23.1 186.3C25.8 187.9 27.2 187 27.3 188.4C27.4 189.8 27.2 190.2 27.2 190.2L22.5 190L13.1 187.8C12.3 187.6 12.7 187 12.9 186.2L14.8 180.8C15.3 181.6 18.3 182.9 19.9 182.7Z" fill="#FFBA3B" stroke="black" stroke-miterlimit="10" stroke-linecap="round" stroke-linejoin="round"/>
<path d="M39.2 102.5L37.8 144.7L24.8 176.1C22.9 176.2 18.2 175.4 15.6 173.8L27.7 143.6L27.2 115.8C27 106.3 27.3 102.8 30.2 99.6L39.2 102.5Z" fill="#0072ED" stroke="black" stroke-miterlimit="10" stroke-linecap="round" stroke-linejoin="round"/>
<path d="M16.6 176.1L22 176.9L22.5 175.9C22.5 175.9 21.6 175.8 19.6 175.5C17.8 175.2 17.1 174.9 17.1 174.9L16.6 176.1Z" fill="black"/>
<path d="M52.7 185.6H56.4C56.6 185.6 56.8 185.6 57 185.7L58.2 186.2L57.2 184.2C57 183.8 56.9 183.7 56.9 182.8L58.9 168.3C59.2 167.3 56.1 166.4 55 166.4H54.8C54 166.4 53.2 166.8 53.1 167.5L51.4 183.7C51.2 184.7 51.7 185.6 52.7 185.6Z" fill="#FFEFEA" stroke="black" stroke-miterlimit="10" stroke-linecap="round" stroke-linejoin="round"/>
<path d="M37.1 99.7L48.1 103.3L65.3 139.8C65.6 140.6 65.6 141.4 65.4 142.2L59.6 176.9C56.7 177.2 52.8 176.6 50.7 175.6L55 142.7C55 142.7 37.9 118.3 35.9 114.9C34 111.5 32.9 108.8 33.3 105.1" fill="#0072EC"/>
<path d="M37.1 99.7L48.1 103.3L65.3 139.8C65.6 140.6 65.6 141.4 65.4 142.2L59.6 176.9C56.7 177.2 52.8 176.6 50.7 175.6L55 142.7C55 142.7 37.9 118.3 35.9 114.9C34 111.5 32.9 108.8 33.3 105.1" stroke="black" stroke-miterlimit="10" stroke-linecap="round" stroke-linejoin="round"/>
<path d="M45.5 103.3L40.2 106.1" stroke="black" stroke-miterlimit="10" stroke-linecap="round" stroke-linejoin="round"/>
<path d="M43.7 104.9L60.7 140.7C61 141.6 61.1 142.5 60.8 143.4L56.1 176.4" stroke="black" stroke-miterlimit="10" stroke-linecap="round" stroke-linejoin="round"/>
<path d="M56.7 183.9C57.2 183.7 57.3 184.2 57.7 184.6C58.4 185.3 58.3 186.1 60.1 186.6C63.1 187.5 64.8 187.2 65 188.5C65.2 189.9 65 190.3 65 190.3H50.2C49.4 190.3 49.6 189.6 49.7 188.8L50.9 183.2C51.9 184.3 55.1 184.5 56.7 183.9Z" fill="#FFB93B" stroke="black" stroke-miterlimit="10" stroke-linecap="round" stroke-linejoin="round"/>
<path d="M64.9 190.4V191.6C64.9 192.1 64.5 192.5 64 192.5H50.6C50.1 192.5 49.7 192.1 49.7 191.6V190.4H64.9Z" fill="white" stroke="black" stroke-miterlimit="10" stroke-linecap="round" stroke-linejoin="round"/>
<path d="M52 177.9H57.4L57.7 176.9C57.7 176.9 57.9 177 56.1 177C54.3 177 52.4 176.1 52.4 176.1L52 177.9Z" fill="black"/>
<path d="M55.3 58C55.9 57.8 58.8 57.6 59.5 59.7C60.2 61.8 63.6 62.3 63.1 65.8C62.5 69.8 66.2 68.4 66.1 73C66.1 73 62.5 72.9 56.5 73.1C51.4 73.2 47.4 74.3 47.4 74.3C47.4 74.3 50.5 64.2 50.5 62.9C50.6 61.4 51.1 56.8 55.3 58Z" fill="#40588F" stroke="black" stroke-miterlimit="10" stroke-linecap="round" stroke-linejoin="round"/>
<path d="M61 67.5C59.2 70.2 58.8 74.3 56.8 76.4C56.1 77 55.2 76.3 54.3 76.4C53.1 76.5 51.4 76 49.9 75.4C49 75 47.9 75.3 48.4 74.4L56.5 66.5C56.9 65.6 58 65.3 58.8 65.9L60.1 66.8C60.6 67.1 61.4 66.9 61 67.5Z" fill="#FFF0EB" stroke="black" stroke-miterlimit="10" stroke-linecap="round" stroke-linejoin="round"/>
<path d="M59.5 67.7C60.2 68 61 67.1 60.9 67.9L59.3 71.2C59.3 71.2 58.5 70.3 58 69.5C57.4 68.5 57.6 68.7 56.8 67.7C56.9 67.3 57.3 66.2 57.3 66.2C57.3 66.2 58.1 67.1 59.5 67.7Z" fill="black"/>
<path d="M55.1 61C55.1 61.1 55.1 62.5 55.3 63.2C55.5 63.8 56.6 64.4 56.6 64.4" stroke="black" stroke-miterlimit="10" stroke-linecap="round" stroke-linejoin="round"/>
<path d="M47.2 73.9C49.6 72 54.2 71.8 57.1 73C59 73.8 60.6 76.8 59.6 81C58.6 85.1 50.2 97.3 48 103.6L28.7 100.9C28.7 100.9 35.7 92.1 38.6 86.6C42.4 79.4 44.7 75.9 47.2 73.9Z" fill="url(#paint4_linear)" stroke="black" stroke-miterlimit="10" stroke-linecap="round" stroke-linejoin="round"/>
<path d="M60.3 58.5C60.4 58.6 60.4 58.6 60.5 58.7C61.1 59.3 64.6 63.3 63.8 65.7C63 68.5 58.2 68.1 56.6 68C55 67.9 52.7 67.6 51.1 64C49.5 60.4 50.3 59 52.5 57.7C56 55.2 59.7 58 60.3 58.5Z" fill="#FFF0EB" stroke="black" stroke-miterlimit="10" stroke-linecap="round" stroke-linejoin="round"/>
<path d="M52.9 55.7C52.9 55.7 54.5 55.2 55.6 55.4C56.7 55.6 57.9 56.7 58 57.1C58 57.6 57.9 57.5 57.6 57.5C57.3 57.5 55.4 56.7 54.2 56.5C53 56.3 51.3 56.4 52.9 55.7Z" fill="#40588F" stroke="black" stroke-miterlimit="10" stroke-linecap="round" stroke-linejoin="round"/>
<path d="M54.9 64.7C54.9 64.7 55.6 65.4 55.8 65.5C56 65.6 56.1 65.5 56.1 65.5C56.1 65.5 55.9 64.8 55.8 64.7C55.7 64.7 54.9 64.7 54.9 64.7Z" fill="#FFF0EB"/>
<path d="M60.7 83.6L59.9 85.8L60.7 83.5V83.6Z" fill="black"/>
<path d="M93.2 95.4C94.5 95.4 95.1 95.4 95.7 95.5C96.3 95.5 96.8 96.3 96.2 96.7C95.6 97.2 93.4 97.1 92.8 97.5C92.3 97.9 92.6 98.4 92.6 98.4C92.6 98.4 94.9 99.8 95.8 99.7C96.7 99.6 98.9 98.1 100.2 97.5C101.5 96.9 102.2 97.9 101.3 98.8C100.2 99.8 95.4 102.8 94.6 102.7C93.8 102.6 87.4 101.7 87.4 101.7L63.3 108.3C62.5 108.6 61.2 108.2 60.8 107.1L54 86.5L61.1 84.8L65.2 100.3L86.7 97.2C86.7 97.3 88.2 95.1 93.2 95.4Z" fill="#FFF0EB" stroke="black" stroke-miterlimit="10" stroke-linecap="round" stroke-linejoin="round"/>
<path d="M58.6 74.1C58.6 74.1 59.9 75.8 60.6 78.6C61.6 82.3 63.8 94 63.8 94L56.5 96.3C56.5 96.3 54.3 89.1 53.1 86C52.9 85.4 52.3 84.5 51.4 84.6" fill="url(#paint5_linear)"/>
<path d="M58.6 74.1C58.6 74.1 59.9 75.8 60.6 78.6C61.6 82.3 63.8 94 63.8 94L56.5 96.3C56.5 96.3 54.3 89.1 53.1 86C52.9 85.4 52.3 84.5 51.4 84.6" stroke="black" stroke-miterlimit="10" stroke-linecap="round" stroke-linejoin="round"/>
<path d="M46.3 63C43.5 64.6 39.7 63.2 38.8 60C38.3 58.2 38.9 56.2 40.3 54.9C42.8 52.7 46.5 53.4 48.1 56.1C48.5 56.7 48.8 57.8 48.4 59.2C48.5 59.1 48.4 58.4 49.1 57.7C51 55.8 54.6 55 56.4 55.5C57.7 55.9 59.8 56.2 57.4 60.4C56.6 62.3 56.9 63 57.5 63.4C58.1 63.9 59.4 64.6 59.2 66.1C58.8 68.2 59.4 68.6 60.4 69C62 69.7 60.7 72.6 60.7 72.6C60.7 72.6 60.5 71 60 70.5C59.5 70 58.9 70 58.2 69.4C57.5 68.8 57.7 67.3 57.3 66.1C56.9 64.9 55.7 64.2 55.5 63.8C55.3 63.4 55.1 61.9 55.1 61.9C55.1 61.9 54.7 63.3 55.2 64.9C55.7 66.4 55 66.1 56.2 67C57.7 68.1 55.1 69.2 56.2 70.3C57.3 71.4 57.3 71.9 56.8 72.9C54.8 72.2 51.7 72.1 49.3 72.9C48 73.4 46.5 74.5 44.8 76L44.7 75.7C44.7 75.6 43.9 73.7 45.2 72.9C47.3 71.5 45 71 46.4 69.1C47.2 68 46.8 67.7 46.3 66.4C45.7 64.5 46.3 64 47 63C47.1 62.8 47.5 61.7 47.5 61.5C47.1 62.4 46.6 62.8 46.3 63Z" fill="#40588F" stroke="black" stroke-miterlimit="10" stroke-linecap="round" stroke-linejoin="round"/>
<path d="M55.3 63.1C55.3 63.1 53.4 62.9 53.2 64.2C53 65.5 54.7 66.3 56.6 66.3" fill="#FFF0EB"/>
<path d="M55.3 63.1C55.3 63.1 53.4 62.9 53.2 64.2C53 65.5 54.7 66.3 56.6 66.3" stroke="black" stroke-miterlimit="10" stroke-linecap="round" stroke-linejoin="round"/>
<path d="M31.7 25C34.7 20.3 49.4 18.2 50.3 21.2C51.2 24.5 38.1 27.7 35.1 27.8C32.1 27.9 39.6 23.8 45.1 23.7C50.6 23.6 50.3 26.8 45 29.3C39.7 31.8 35.2 31.9 37 30.3C37.7 29.7 47.8 26.9 48.9 29.6C49.7 31.7 42.6 34.9 39.5 34.9C36.5 34.9 47.4 29.3 49.3 32.2C50.5 34.1 43.9 36.3 43.4 37.1C42.9 37.9 45.3 37.4 46.8 37C48.9 36.4 49.2 37.4 47.5 38.2C46 39 44.8 39.6 45.4 40C46 40.4 48.8 39 48.7 39.8C48.6 40.6 47.1 41 47.3 41.7C47.5 42.4 48.7 45.1 48.7 45.1" fill="white"/>
<path d="M31.7 25C34.7 20.3 49.4 18.2 50.3 21.2C51.2 24.5 38.1 27.7 35.1 27.8C32.1 27.9 39.6 23.8 45.1 23.7C50.6 23.6 50.3 26.8 45 29.3C39.7 31.8 35.2 31.9 37 30.3C37.7 29.7 47.8 26.9 48.9 29.6C49.7 31.7 42.6 34.9 39.5 34.9C36.5 34.9 47.4 29.3 49.3 32.2C50.5 34.1 43.9 36.3 43.4 37.1C42.9 37.9 45.3 37.4 46.8 37C48.9 36.4 49.2 37.4 47.5 38.2C46 39 44.8 39.6 45.4 40C46 40.4 48.8 39 48.7 39.8C48.6 40.6 47.1 41 47.3 41.7C47.5 42.4 48.7 45.1 48.7 45.1" stroke="black" stroke-miterlimit="10" stroke-linecap="round" stroke-linejoin="round"/>
<path d="M52.6 84.8L53.9 91.5L54.7 89.8C54.7 89.8 53.2 85.4 52.9 85.2C52.6 85 52.6 84.8 52.6 84.8Z" fill="black"/>
<path d="M215.7 151C217.854 151 219.6 149.254 219.6 147.1C219.6 144.946 217.854 143.2 215.7 143.2C213.546 143.2 211.8 144.946 211.8 147.1C211.8 149.254 213.546 151 215.7 151Z" fill="#FFDB66" stroke="black" stroke-miterlimit="10" stroke-linecap="round" stroke-linejoin="round"/>
</g>
<defs>
<linearGradient id="paint0_linear" x1="189.848" y1="16.9414" x2="202.506" y2="91.0812" gradientUnits="userSpaceOnUse">
<stop offset="0.0259811" stop-color="#F3F4F6"/>
<stop offset="0.9245" stop-color="#E0E0E0"/>
</linearGradient>
<linearGradient id="paint1_linear" x1="87.233" y1="181.778" x2="158.047" y2="181.778" gradientUnits="userSpaceOnUse">
<stop offset="0.0410511" stop-color="#A4DBD6"/>
<stop offset="1" stop-color="#A4DBD6"/>
</linearGradient>
<linearGradient id="paint2_linear" x1="166.318" y1="158.292" x2="203.043" y2="158.292" gradientUnits="userSpaceOnUse">
<stop offset="0.0410511" stop-color="#A4DBD6"/>
<stop offset="1" stop-color="#A4DBD6"/>
</linearGradient>
<linearGradient id="paint3_linear" x1="56.3023" y1="77.0515" x2="-8.74366" y2="83.6833" gradientUnits="userSpaceOnUse">
<stop offset="0.0259811" stop-color="#F3F4F6"/>
<stop offset="0.9245" stop-color="#E0E0E0"/>
</linearGradient>
<linearGradient id="paint4_linear" x1="62.2994" y1="67.9379" x2="19.4256" y2="126.961" gradientUnits="userSpaceOnUse">
<stop offset="0.0259811" stop-color="#F2F3F5"/>
<stop offset="0.9245" stop-color="#DFDFDF"/>
</linearGradient>
<linearGradient id="paint5_linear" x1="64.0911" y1="85.2507" x2="24.6055" y2="85.3867" gradientUnits="userSpaceOnUse">
<stop offset="0.0259811" stop-color="#F3F4F6"/>
<stop offset="0.9245" stop-color="#E0E0E0"/>
</linearGradient>
<clipPath id="clip0">
<rect width="237.1" height="193" fill="white"/>
</clipPath>
</defs>
</svg>
