<?xml version="1.0" encoding="UTF-8" standalone="no"?>
<!DOCTYPE svg PUBLIC "-//W3C//DTD SVG 1.1//EN" "http://www.w3.org/Graphics/SVG/1.1/DTD/svg11.dtd">
<svg width="100%" height="100%" viewBox="0 0 128 128" version="1.1" xmlns="http://www.w3.org/2000/svg" xmlns:xlink="http://www.w3.org/1999/xlink" xml:space="preserve" xmlns:serif="http://www.serif.com/" style="fill-rule:evenodd;clip-rule:evenodd;stroke-linejoin:round;stroke-miterlimit:2;">
    <g transform="matrix(1.25275,0,0,1.25275,-14.7822,-18.2371)">
        <path d="M86.138,57.788C87.45,59.1 89.213,59.813 91.075,59.813C92.938,59.813 94.7,59.088 96.013,57.788L110.525,43.362C111.838,42.05 112.563,40.313 112.563,38.45C112.563,36.588 111.838,34.85 110.525,33.537L95.125,18.238C92.488,15.625 87.888,15.625 85.25,18.238L70.75,32.663C69.438,33.975 68.713,35.713 68.713,37.575C68.713,39.438 69.438,41.175 70.75,42.488L86.138,57.788ZM74.975,36.863L89.488,22.437C89.738,22.187 90.038,22.15 90.188,22.15C90.338,22.15 90.638,22.187 90.888,22.437L106.287,37.75C106.537,38 106.575,38.3 106.575,38.45C106.575,38.6 106.537,38.9 106.287,39.15L91.787,53.575C91.537,53.825 91.238,53.863 91.087,53.863C90.937,53.863 90.637,53.825 90.387,53.575L74.975,38.275C74.725,38.025 74.688,37.725 74.688,37.575C74.688,37.425 74.725,37.113 74.975,36.863ZM39.513,73.55C36.875,70.938 32.263,70.938 29.638,73.55L27.725,75.45C25.813,77.363 23.788,80.75 23.038,83.338L16.65,105.175C16.113,107 16.35,108.7 17.313,109.975C18.188,111.138 19.588,111.8 21.15,111.8C21.775,111.8 22.438,111.7 23.1,111.488L45.9,104.475C48.475,103.688 51.863,101.65 53.763,99.763L54.888,98.65C56.2,97.338 56.925,95.6 56.925,93.738C56.925,91.875 56.2,90.138 54.888,88.825L39.513,73.55ZM50.663,94.45L49.538,95.562C48.338,96.762 45.763,98.3 44.138,98.8L30.5,102.988L25.337,96.8L28.787,85.013C29.263,83.4 30.775,80.85 31.962,79.675L33.875,77.775C34.125,77.525 34.425,77.488 34.575,77.488C34.725,77.488 35.025,77.525 35.275,77.775L50.65,93.062C50.9,93.312 50.938,93.612 50.938,93.762C50.95,93.912 50.913,94.212 50.663,94.45ZM40.5,18.238C37.863,15.625 33.263,15.625 30.625,18.238L15.238,33.538C13.925,34.85 13.2,36.588 13.2,38.45C13.2,40.313 13.925,42.05 15.238,43.363L85.263,112.988C86.575,114.3 88.338,115.013 90.2,115.013C92.063,115.013 93.825,114.288 95.138,112.988L110.538,97.675C111.85,96.363 112.575,94.625 112.575,92.763C112.575,90.9 111.85,89.163 110.538,87.85L40.5,18.238ZM106.287,93.462L90.9,108.775C90.65,109.025 90.35,109.063 90.2,109.063C90.05,109.063 89.75,109.025 89.5,108.775L19.475,39.15C19.225,38.9 19.187,38.6 19.187,38.45C19.187,38.3 19.225,38 19.475,37.75L34.863,22.438C35.113,22.188 35.412,22.15 35.563,22.15C35.713,22.15 36.013,22.188 36.263,22.438L38.35,24.513L31.213,31.625C30.038,32.788 30.038,34.675 31.213,35.838C31.8,36.413 32.563,36.713 33.325,36.713C34.088,36.713 34.863,36.425 35.438,35.838L42.588,28.725L46.063,32.188L42.975,35.263C41.813,36.425 41.813,38.313 42.975,39.475C43.563,40.05 44.325,40.35 45.088,40.35C45.85,40.35 46.625,40.063 47.2,39.475L50.287,36.4L53.762,39.862L46.612,46.975C45.438,48.137 45.438,50.025 46.612,51.187C47.2,51.762 47.963,52.062 48.725,52.062C49.487,52.062 50.25,51.775 50.837,51.187L57.987,44.075L61.475,47.537L58.387,50.612C57.225,51.775 57.225,53.662 58.387,54.825C58.975,55.412 59.737,55.7 60.5,55.7C61.262,55.7 62.037,55.412 62.612,54.825L65.7,51.75L69.187,55.212L62.037,62.325C60.875,63.487 60.875,65.375 62.037,66.538C62.625,67.113 63.387,67.413 64.15,67.413C64.912,67.413 65.687,67.125 66.262,66.538L73.413,59.425L76.9,62.887L73.812,65.962C72.65,67.125 72.65,69.012 73.812,70.175C74.4,70.763 75.162,71.05 75.925,71.05C76.687,71.05 77.462,70.763 78.037,70.175L81.125,67.1L84.6,70.563L77.45,77.675C76.275,78.837 76.275,80.725 77.45,81.888C78.037,82.475 78.8,82.763 79.562,82.763C80.325,82.763 81.087,82.475 81.675,81.888L88.825,74.775L92.3,78.238L89.212,81.313C88.05,82.475 88.05,84.363 89.212,85.525C89.8,86.1 90.562,86.4 91.325,86.4C92.087,86.4 92.862,86.113 93.437,85.525L96.525,82.45L100.012,85.913L92.862,93.025C91.687,94.188 91.687,96.075 92.862,97.238C93.45,97.813 94.212,98.113 94.975,98.113C95.737,98.113 96.512,97.825 97.087,97.238L104.237,90.125L106.225,92.113C106.475,92.363 106.512,92.663 106.512,92.813C106.512,92.963 106.537,93.213 106.287,93.463Z" style="fill:rgb(0,114,239);fill-rule:nonzero;stroke:rgb(0,114,239);stroke-width:2.39px;"/>
    </g>
</svg>
